# MagicaVoxel @ Ephtracy

# group
o door

# material
mtllib Police Good-0-door.mtl
usemtl palette

# normals
vn -1 0 0
vn 1 0 0
vn 0 0 1
vn 0 0 -1
vn 0 -1 0
vn 0 1 0

# texcoords
vt 0.982422 0.5
vt 0.990234 0.5

# verts
v 0 0.1 -4.8
v 0 0.1 -4.9
v 0 0.1 -5
v 0 1.7 -4.8
v 0 1.7 -4.9
v 0 1.7 -5
v 0.2 0.8 -4.8
v 0.2 0.8 -4.9
v 0.2 0.9 -4.8
v 0.2 0.9 -4.9
v 0.9 0.1 -4.8
v 0.9 0.1 -4.9
v 0.9 1.6 -4.8
v 0.9 1.6 -4.9
v 0.1 0.1 -4.8
v 0.1 0.1 -4.9
v 0.1 1.6 -4.8
v 0.1 1.6 -4.9
v 0.3 0.8 -4.8
v 0.3 0.8 -4.9
v 0.3 0.9 -4.8
v 0.3 0.9 -4.9
v 1 0.1 -4.8
v 1 0.1 -4.9
v 1 0.1 -5
v 1 1.7 -4.8
v 1 1.7 -4.9
v 1 1.7 -5
v 0 0.1 -4.8
v 0 1.7 -4.8
v 0.1 0.1 -4.8
v 0.1 1.6 -4.8
v 0.2 0.8 -4.8
v 0.2 0.9 -4.8
v 0.3 0.8 -4.8
v 0.3 0.9 -4.8
v 0.9 0.1 -4.8
v 0.9 1.6 -4.8
v 1 0.1 -4.8
v 1 1.7 -4.8
v 0.1 0.1 -4.9
v 0.1 1.6 -4.9
v 0.2 0.8 -4.9
v 0.2 0.9 -4.9
v 0.3 0.8 -4.9
v 0.3 0.9 -4.9
v 0.9 0.1 -4.9
v 0.9 1.6 -4.9
v 0 0.1 -5
v 0 1.7 -5
v 1 0.1 -5
v 1 1.7 -5
v 0 0.1 -4.8
v 0.1 0.1 -4.8
v 0.9 0.1 -4.8
v 1 0.1 -4.8
v 0 0.1 -4.9
v 0.1 0.1 -4.9
v 0.9 0.1 -4.9
v 1 0.1 -4.9
v 0 0.1 -5
v 1 0.1 -5
v 0.2 0.8 -4.8
v 0.3 0.8 -4.8
v 0.2 0.8 -4.9
v 0.3 0.8 -4.9
v 0.1 1.6 -4.8
v 0.9 1.6 -4.8
v 0.1 1.6 -4.9
v 0.9 1.6 -4.9
v 0.2 0.9 -4.8
v 0.3 0.9 -4.8
v 0.2 0.9 -4.9
v 0.3 0.9 -4.9
v 0 1.7 -4.8
v 1 1.7 -4.8
v 0 1.7 -4.9
v 1 1.7 -4.9
v 0 1.7 -5
v 1 1.7 -5

# faces
f 4/2/1 2/2/1 1/2/1
f 5/1/1 3/1/1 2/1/1
f 5/2/1 2/2/1 4/2/1
f 6/1/1 3/1/1 5/1/1
f 9/2/1 8/2/1 7/2/1
f 10/2/1 8/2/1 9/2/1
f 13/2/1 12/2/1 11/2/1
f 14/2/1 12/2/1 13/2/1
f 15/2/2 16/2/2 17/2/2
f 17/2/2 16/2/2 18/2/2
f 19/2/2 20/2/2 21/2/2
f 21/2/2 20/2/2 22/2/2
f 23/2/2 24/2/2 26/2/2
f 24/1/2 25/1/2 27/1/2
f 26/2/2 24/2/2 27/2/2
f 27/1/2 25/1/2 28/1/2
f 31/2/3 30/2/3 29/2/3
f 32/2/3 30/2/3 31/2/3
f 35/2/3 34/2/3 33/2/3
f 36/2/3 34/2/3 35/2/3
f 38/2/3 30/2/3 32/2/3
f 39/2/3 38/2/3 37/2/3
f 40/2/3 30/2/3 38/2/3
f 40/2/3 38/2/3 39/2/3
f 43/1/3 42/1/3 41/1/3
f 44/1/3 42/1/3 43/1/3
f 45/1/3 43/1/3 41/1/3
f 46/1/3 42/1/3 44/1/3
f 47/1/3 45/1/3 41/1/3
f 47/1/3 46/1/3 45/1/3
f 48/1/3 42/1/3 46/1/3
f 48/1/3 46/1/3 47/1/3
f 49/1/4 50/1/4 51/1/4
f 51/1/4 50/1/4 52/1/4
f 57/2/5 54/2/5 53/2/5
f 58/2/5 54/2/5 57/2/5
f 59/2/5 56/2/5 55/2/5
f 60/2/5 56/2/5 59/2/5
f 61/1/5 58/1/5 57/1/5
f 61/1/5 59/1/5 58/1/5
f 61/1/5 60/1/5 59/1/5
f 62/1/5 60/1/5 61/1/5
f 65/2/5 64/2/5 63/2/5
f 66/2/5 64/2/5 65/2/5
f 69/2/5 68/2/5 67/2/5
f 70/2/5 68/2/5 69/2/5
f 71/2/6 72/2/6 73/2/6
f 73/2/6 72/2/6 74/2/6
f 75/2/6 76/2/6 77/2/6
f 77/2/6 76/2/6 78/2/6
f 77/1/6 78/1/6 79/1/6
f 79/1/6 78/1/6 80/1/6
