# MagicaVoxel @ Ephtracy

# group
o Mark 3

# material
mtllib Mark-0-Mark 3.mtl
usemtl palette

# normals
vn -1 0 0
vn 1 0 0
vn 0 0 1
vn 0 0 -1
vn 0 -1 0
vn 0 1 0

# texcoords
vt 0.208984 0.5
vt 0.904297 0.5
vt 0.955078 0.5

# verts
v -2.5 3.3 0
v -2.5 3.3 -0.1
v -2.5 3.4 0
v -2.5 3.4 -0.1
v -2.5 3.7 0
v -2.5 3.7 -0.1
v -2.5 3.8 0
v -2.5 3.8 -0.1
v -2.4 3.8 0
v -2.4 3.8 -0.1
v -2.4 3.9 0
v -2.4 3.9 -0.1
v -2.3 3.9 0
v -2.3 3.9 -0.1
v -2.3 4 0
v -2.3 4 -0.1
v -2.1 3.9 0
v -2.1 3.9 -0.1
v -2.1 4 0
v -2.1 4 -0.1
v -2 3.8 0
v -2 3.8 -0.1
v -2 3.9 0
v -2 3.9 -0.1
v -1.9 4 0
v -1.9 4 -0.1
v -1.9 4.1 0
v -1.9 4.1 -0.1
v -1.6 3.7 0
v -1.6 3.7 -0.1
v -1.6 3.8 0
v -1.6 3.8 -0.1
v -1.5 3.6 0
v -1.5 3.6 -0.1
v -1.5 3.7 0
v -1.5 3.7 -0.1
v -1.3 3.5 0
v -1.3 3.5 -0.1
v -1.3 3.6 0
v -1.3 3.6 -0.1
v -1.2 3.4 0
v -1.2 3.4 -0.1
v -1.2 3.5 0
v -1.2 3.5 -0.1
v -1.1 3.3 0
v -1.1 3.3 -0.1
v -1.1 3.4 0
v -1.1 3.4 -0.1
v -1 3.2 0
v -1 3.2 -0.1
v -1 3.3 0
v -1 3.3 -0.1
v -0.9 3 0
v -0.9 3 -0.1
v -0.9 3.2 0
v -0.9 3.2 -0.1
v -0.7 2.7 0
v -0.7 2.7 -0.1
v -0.7 3 0
v -0.7 3 -0.1
v -0.6 2.6 0
v -0.6 2.6 -0.1
v -0.6 2.7 0
v -0.6 2.7 -0.1
v -0.6 3 0
v -0.6 3 -0.1
v -0.6 3.1 0
v -0.6 3.1 -0.1
v -0.5 3.1 0
v -0.5 3.1 -0.1
v -0.5 3.2 0
v -0.5 3.2 -0.1
v -0.4 2.3 0
v -0.4 2.3 -0.1
v -0.4 2.6 0
v -0.4 2.6 -0.1
v -0.4 3.2 0
v -0.4 3.2 -0.1
v -0.4 3.3 0
v -0.4 3.3 -0.1
v -0.3 2.2 0
v -0.3 2.2 -0.1
v -0.3 2.3 0
v -0.3 2.3 -0.1
v -0.2 2.6 0
v -0.2 2.6 -0.1
v -0.2 2.7 0
v -0.2 2.7 -0.1
v -0.0999999 2.1 0
v -0.0999999 2.1 -0.1
v -0.0999999 2.2 0
v -0.0999999 2.2 -0.1
v -0.0999999 2.7 0
v -0.0999999 2.7 -0.1
v -0.0999999 2.9 0
v -0.0999999 2.9 -0.1
v 2.38419e-007 2 0
v 2.38419e-007 2 -0.1
v 2.38419e-007 2.1 0
v 2.38419e-007 2.1 -0.1
v 0.5 1.3 0
v 0.5 1.3 -0.1
v 0.5 1.6 0
v 0.5 1.6 -0.1
v 0.6 1.1 0
v 0.6 1.1 -0.1
v 0.6 1.3 0
v 0.6 1.3 -0.1
v 0.9 1.4 0
v 0.9 1.4 -0.1
v 0.9 1.5 0
v 0.9 1.5 -0.1
v 1 1.5 0
v 1 1.5 -0.1
v 1 1.6 0
v 1 1.6 -0.1
v -2.4 3.3 0
v -2.4 3.3 -0.1
v -2.4 3.4 0
v -2.4 3.4 -0.1
v -2.3 3.4 0
v -2.3 3.4 -0.1
v -2.3 3.5 0
v -2.3 3.5 -0.1
v -2.2 3.5 0
v -2.2 3.5 -0.1
v -2.2 3.6 0
v -2.2 3.6 -0.1
v -2.2 3.9 0
v -2.2 3.9 -0.1
v -2.2 4 0
v -2.2 4 -0.1
v -2.1 3.6 0
v -2.1 3.6 -0.1
v -2.1 3.7 0
v -2.1 3.7 -0.1
v -2.1 3.8 0
v -2.1 3.8 -0.1
v -2.1 3.9 0
v -2.1 3.9 -0.1
v -2 3.7 0
v -2 3.7 -0.1
v -2 3.8 0
v -2 3.8 -0.1
v -1.6 4 0
v -1.6 4 -0.1
v -1.6 4.1 0
v -1.6 4.1 -0.1
v -1.1 3.9 0
v -1.1 3.9 -0.1
v -1.1 4 0
v -1.1 4 -0.1
v -0.9 3.8 0
v -0.9 3.8 -0.1
v -0.9 3.9 0
v -0.9 3.9 -0.1
v -0.7 3 0
v -0.7 3 -0.1
v -0.7 3.1 0
v -0.7 3.1 -0.1
v -0.7 3.7 0
v -0.7 3.7 -0.1
v -0.7 3.8 0
v -0.7 3.8 -0.1
v -0.6 3.1 0
v -0.6 3.1 -0.1
v -0.6 3.2 0
v -0.6 3.2 -0.1
v -0.6 3.6 0
v -0.6 3.6 -0.1
v -0.6 3.7 0
v -0.6 3.7 -0.1
v -0.5 3.2 0
v -0.5 3.2 -0.1
v -0.5 3.3 0
v -0.5 3.3 -0.1
v -0.5 3.5 0
v -0.5 3.5 -0.1
v -0.5 3.6 0
v -0.5 3.6 -0.1
v -0.4 2.6 0
v -0.4 2.6 -0.1
v -0.4 2.7 0
v -0.4 2.7 -0.1
v -0.4 3.3 0
v -0.4 3.3 -0.1
v -0.4 3.5 0
v -0.4 3.5 -0.1
v -0.2 2.7 0
v -0.2 2.7 -0.1
v -0.2 2.9 0
v -0.2 2.9 -0.1
v -0.2 3.2 0
v -0.2 3.2 -0.1
v -0.2 3.3 0
v -0.2 3.3 -0.1
v -0.0999999 2.9 0
v -0.0999999 2.9 -0.1
v -0.0999999 3.2 0
v -0.0999999 3.2 -0.1
v 2.38419e-007 2.3 0
v 2.38419e-007 2.3 -0.1
v 2.38419e-007 2.4 0
v 2.38419e-007 2.4 -0.1
v 2.38419e-007 2.8 0
v 2.38419e-007 2.8 -0.1
v 2.38419e-007 2.9 0
v 2.38419e-007 2.9 -0.1
v 0.1 2.2 0
v 0.1 2.2 -0.1
v 0.1 2.3 0
v 0.1 2.3 -0.1
v 0.1 2.4 0
v 0.1 2.4 -0.1
v 0.1 2.8 0
v 0.1 2.8 -0.1
v 0.2 2 0
v 0.2 2 -0.1
v 0.2 2.2 0
v 0.2 2.2 -0.1
v 0.7 1.4 0
v 0.7 1.4 -0.1
v 0.7 1.6 0
v 0.7 1.6 -0.1
v 0.9 1.1 0
v 0.9 1.1 -0.1
v 0.9 1.2 0
v 0.9 1.2 -0.1
v 1 1.2 0
v 1 1.2 -0.1
v 1 1.3 0
v 1 1.3 -0.1
v 1.1 1.3 0
v 1.1 1.3 -0.1
v 1.1 1.4 0
v 1.1 1.4 -0.1
v 1.2 1.4 0
v 1.2 1.4 -0.1
v 1.2 1.5 0
v 1.2 1.5 -0.1
v 1.3 1.5 0
v 1.3 1.5 -0.1
v 1.3 1.6 0
v 1.3 1.6 -0.1
v -2.5 3.3 0
v -2.5 3.4 0
v -2.5 3.7 0
v -2.5 3.8 0
v -2.4 3.3 0
v -2.4 3.4 0
v -2.4 3.5 0
v -2.4 3.7 0
v -2.4 3.8 0
v -2.4 3.9 0
v -2.3 3.4 0
v -2.3 3.5 0
v -2.3 3.6 0
v -2.3 3.8 0
v -2.3 3.9 0
v -2.3 4 0
v -2.2 3.5 0
v -2.2 3.6 0
v -2.2 3.7 0
v -2.2 3.8 0
v -2.2 3.9 0
v -2.2 4 0
v -2.1 3.6 0
v -2.1 3.7 0
v -2.1 3.8 0
v -2.1 3.9 0
v -2.1 4 0
v -2 3.7 0
v -2 3.8 0
v -2 3.9 0
v -1.9 4 0
v -1.9 4.1 0
v -1.6 3.7 0
v -1.6 3.8 0
v -1.6 4 0
v -1.6 4.1 0
v -1.5 3.6 0
v -1.5 3.7 0
v -1.3 3.5 0
v -1.3 3.6 0
v -1.2 3.4 0
v -1.2 3.5 0
v -1.1 3.3 0
v -1.1 3.4 0
v -1.1 3.9 0
v -1.1 4 0
v -1 3.2 0
v -1 3.3 0
v -0.9 3 0
v -0.9 3.2 0
v -0.9 3.8 0
v -0.9 3.9 0
v -0.7 2.7 0
v -0.7 3 0
v -0.7 3.1 0
v -0.7 3.7 0
v -0.7 3.8 0
v -0.6 2.6 0
v -0.6 2.7 0
v -0.6 3 0
v -0.6 3.1 0
v -0.6 3.2 0
v -0.6 3.6 0
v -0.6 3.7 0
v -0.5 3.1 0
v -0.5 3.2 0
v -0.5 3.3 0
v -0.5 3.5 0
v -0.5 3.6 0
v -0.4 2.3 0
v -0.4 2.6 0
v -0.4 2.7 0
v -0.4 3.2 0
v -0.4 3.3 0
v -0.4 3.5 0
v -0.3 2.2 0
v -0.3 2.3 0
v -0.2 2.6 0
v -0.2 2.7 0
v -0.2 2.9 0
v -0.2 3.2 0
v -0.2 3.3 0
v -0.0999999 2.1 0
v -0.0999999 2.2 0
v -0.0999999 2.7 0
v -0.0999999 2.9 0
v -0.0999999 3.2 0
v 2.38419e-007 2 0
v 2.38419e-007 2.1 0
v 2.38419e-007 2.3 0
v 2.38419e-007 2.4 0
v 2.38419e-007 2.8 0
v 2.38419e-007 2.9 0
v 0.1 2.2 0
v 0.1 2.3 0
v 0.1 2.4 0
v 0.1 2.8 0
v 0.2 2 0
v 0.2 2.2 0
v 0.5 1.3 0
v 0.5 1.6 0
v 0.6 1.1 0
v 0.6 1.3 0
v 0.7 1.4 0
v 0.7 1.6 0
v 0.9 1.1 0
v 0.9 1.2 0
v 0.9 1.4 0
v 0.9 1.5 0
v 1 1.2 0
v 1 1.3 0
v 1 1.5 0
v 1 1.6 0
v 1.1 1.3 0
v 1.1 1.4 0
v 1.2 1.4 0
v 1.2 1.5 0
v 1.3 1.5 0
v 1.3 1.6 0
v -2.5 3.3 -0.1
v -2.5 3.4 -0.1
v -2.5 3.7 -0.1
v -2.5 3.8 -0.1
v -2.4 3.3 -0.1
v -2.4 3.4 -0.1
v -2.4 3.5 -0.1
v -2.4 3.7 -0.1
v -2.4 3.8 -0.1
v -2.4 3.9 -0.1
v -2.3 3.4 -0.1
v -2.3 3.5 -0.1
v -2.3 3.6 -0.1
v -2.3 3.8 -0.1
v -2.3 3.9 -0.1
v -2.3 4 -0.1
v -2.2 3.5 -0.1
v -2.2 3.6 -0.1
v -2.2 3.7 -0.1
v -2.2 3.8 -0.1
v -2.2 3.9 -0.1
v -2.2 4 -0.1
v -2.1 3.6 -0.1
v -2.1 3.7 -0.1
v -2.1 3.8 -0.1
v -2.1 3.9 -0.1
v -2.1 4 -0.1
v -2 3.7 -0.1
v -2 3.8 -0.1
v -2 3.9 -0.1
v -1.9 4 -0.1
v -1.9 4.1 -0.1
v -1.6 3.7 -0.1
v -1.6 3.8 -0.1
v -1.6 4 -0.1
v -1.6 4.1 -0.1
v -1.5 3.6 -0.1
v -1.5 3.7 -0.1
v -1.3 3.5 -0.1
v -1.3 3.6 -0.1
v -1.2 3.4 -0.1
v -1.2 3.5 -0.1
v -1.1 3.3 -0.1
v -1.1 3.4 -0.1
v -1.1 3.9 -0.1
v -1.1 4 -0.1
v -1 3.2 -0.1
v -1 3.3 -0.1
v -0.9 3 -0.1
v -0.9 3.2 -0.1
v -0.9 3.8 -0.1
v -0.9 3.9 -0.1
v -0.7 2.7 -0.1
v -0.7 3 -0.1
v -0.7 3.1 -0.1
v -0.7 3.7 -0.1
v -0.7 3.8 -0.1
v -0.6 2.6 -0.1
v -0.6 2.7 -0.1
v -0.6 3 -0.1
v -0.6 3.1 -0.1
v -0.6 3.2 -0.1
v -0.6 3.6 -0.1
v -0.6 3.7 -0.1
v -0.5 3.1 -0.1
v -0.5 3.2 -0.1
v -0.5 3.3 -0.1
v -0.5 3.5 -0.1
v -0.5 3.6 -0.1
v -0.4 2.3 -0.1
v -0.4 2.6 -0.1
v -0.4 2.7 -0.1
v -0.4 3.2 -0.1
v -0.4 3.3 -0.1
v -0.4 3.5 -0.1
v -0.3 2.2 -0.1
v -0.3 2.3 -0.1
v -0.2 2.6 -0.1
v -0.2 2.7 -0.1
v -0.2 2.9 -0.1
v -0.2 3.2 -0.1
v -0.2 3.3 -0.1
v -0.0999999 2.1 -0.1
v -0.0999999 2.2 -0.1
v -0.0999999 2.7 -0.1
v -0.0999999 2.9 -0.1
v -0.0999999 3.2 -0.1
v 2.38419e-007 2 -0.1
v 2.38419e-007 2.1 -0.1
v 2.38419e-007 2.3 -0.1
v 2.38419e-007 2.4 -0.1
v 2.38419e-007 2.8 -0.1
v 2.38419e-007 2.9 -0.1
v 0.1 2.2 -0.1
v 0.1 2.3 -0.1
v 0.1 2.4 -0.1
v 0.1 2.8 -0.1
v 0.2 2 -0.1
v 0.2 2.2 -0.1
v 0.5 1.3 -0.1
v 0.5 1.6 -0.1
v 0.6 1.1 -0.1
v 0.6 1.3 -0.1
v 0.7 1.4 -0.1
v 0.7 1.6 -0.1
v 0.9 1.1 -0.1
v 0.9 1.2 -0.1
v 0.9 1.4 -0.1
v 0.9 1.5 -0.1
v 1 1.2 -0.1
v 1 1.3 -0.1
v 1 1.5 -0.1
v 1 1.6 -0.1
v 1.1 1.3 -0.1
v 1.1 1.4 -0.1
v 1.2 1.4 -0.1
v 1.2 1.5 -0.1
v 1.3 1.5 -0.1
v 1.3 1.6 -0.1
v 0.6 1.1 0
v 0.9 1.1 0
v 0.6 1.1 -0.1
v 0.9 1.1 -0.1
v 0.9 1.2 0
v 1 1.2 0
v 0.9 1.2 -0.1
v 1 1.2 -0.1
v 0.5 1.3 0
v 0.6 1.3 0
v 1 1.3 0
v 1.1 1.3 0
v 0.5 1.3 -0.1
v 0.6 1.3 -0.1
v 1 1.3 -0.1
v 1.1 1.3 -0.1
v 1.1 1.4 0
v 1.2 1.4 0
v 1.1 1.4 -0.1
v 1.2 1.4 -0.1
v 1.2 1.5 0
v 1.3 1.5 0
v 1.2 1.5 -0.1
v 1.3 1.5 -0.1
v 2.38419e-007 2 0
v 0.2 2 0
v 2.38419e-007 2 -0.1
v 0.2 2 -0.1
v -0.0999999 2.1 0
v 2.38419e-007 2.1 0
v -0.0999999 2.1 -0.1
v 2.38419e-007 2.1 -0.1
v -0.3 2.2 0
v -0.0999999 2.2 0
v -0.3 2.2 -0.1
v -0.0999999 2.2 -0.1
v -0.4 2.3 0
v -0.3 2.3 0
v -0.4 2.3 -0.1
v -0.3 2.3 -0.1
v 2.38419e-007 2.4 0
v 0.1 2.4 0
v 2.38419e-007 2.4 -0.1
v 0.1 2.4 -0.1
v -0.6 2.6 0
v -0.4 2.6 0
v -0.6 2.6 -0.1
v -0.4 2.6 -0.1
v -0.7 2.7 0
v -0.6 2.7 0
v -0.4 2.7 0
v -0.2 2.7 0
v -0.7 2.7 -0.1
v -0.6 2.7 -0.1
v -0.4 2.7 -0.1
v -0.2 2.7 -0.1
v -0.2 2.9 0
v -0.0999999 2.9 0
v -0.2 2.9 -0.1
v -0.0999999 2.9 -0.1
v -0.9 3 0
v -0.7 3 0
v -0.9 3 -0.1
v -0.7 3 -0.1
v -0.7 3.1 0
v -0.6 3.1 0
v -0.7 3.1 -0.1
v -0.6 3.1 -0.1
v -1 3.2 0
v -0.9 3.2 0
v -0.6 3.2 0
v -0.5 3.2 0
v -1 3.2 -0.1
v -0.9 3.2 -0.1
v -0.6 3.2 -0.1
v -0.5 3.2 -0.1
v -2.5 3.3 0
v -2.4 3.3 0
v -1.1 3.3 0
v -1 3.3 0
v -0.5 3.3 0
v -0.4 3.3 0
v -2.5 3.3 -0.1
v -2.4 3.3 -0.1
v -1.1 3.3 -0.1
v -1 3.3 -0.1
v -0.5 3.3 -0.1
v -0.4 3.3 -0.1
v -2.4 3.4 0
v -2.3 3.4 0
v -1.2 3.4 0
v -1.1 3.4 0
v -2.4 3.4 -0.1
v -2.3 3.4 -0.1
v -1.2 3.4 -0.1
v -1.1 3.4 -0.1
v -2.3 3.5 0
v -2.2 3.5 0
v -1.3 3.5 0
v -1.2 3.5 0
v -2.3 3.5 -0.1
v -2.2 3.5 -0.1
v -1.3 3.5 -0.1
v -1.2 3.5 -0.1
v -2.2 3.6 0
v -2.1 3.6 0
v -1.5 3.6 0
v -1.3 3.6 0
v -2.2 3.6 -0.1
v -2.1 3.6 -0.1
v -1.5 3.6 -0.1
v -1.3 3.6 -0.1
v -2.1 3.7 0
v -2 3.7 0
v -1.6 3.7 0
v -1.5 3.7 0
v -2.1 3.7 -0.1
v -2 3.7 -0.1
v -1.6 3.7 -0.1
v -1.5 3.7 -0.1
v -2 3.8 0
v -1.6 3.8 0
v -2 3.8 -0.1
v -1.6 3.8 -0.1
v -2.1 3.9 0
v -2 3.9 0
v -2.1 3.9 -0.1
v -2 3.9 -0.1
v 0.7 1.4 0
v 0.9 1.4 0
v 0.7 1.4 -0.1
v 0.9 1.4 -0.1
v 0.9 1.5 0
v 1 1.5 0
v 0.9 1.5 -0.1
v 1 1.5 -0.1
v 0.5 1.6 0
v 0.7 1.6 0
v 1 1.6 0
v 1.3 1.6 0
v 0.5 1.6 -0.1
v 0.7 1.6 -0.1
v 1 1.6 -0.1
v 1.3 1.6 -0.1
v 0.1 2.2 0
v 0.2 2.2 0
v 0.1 2.2 -0.1
v 0.2 2.2 -0.1
v 2.38419e-007 2.3 0
v 0.1 2.3 0
v 2.38419e-007 2.3 -0.1
v 0.1 2.3 -0.1
v -0.4 2.6 0
v -0.2 2.6 0
v -0.4 2.6 -0.1
v -0.2 2.6 -0.1
v -0.2 2.7 0
v -0.0999999 2.7 0
v -0.2 2.7 -0.1
v -0.0999999 2.7 -0.1
v 2.38419e-007 2.8 0
v 0.1 2.8 0
v 2.38419e-007 2.8 -0.1
v 0.1 2.8 -0.1
v -0.0999999 2.9 0
v 2.38419e-007 2.9 0
v -0.0999999 2.9 -0.1
v 2.38419e-007 2.9 -0.1
v -0.7 3 0
v -0.6 3 0
v -0.7 3 -0.1
v -0.6 3 -0.1
v -0.6 3.1 0
v -0.5 3.1 0
v -0.6 3.1 -0.1
v -0.5 3.1 -0.1
v -0.5 3.2 0
v -0.4 3.2 0
v -0.2 3.2 0
v -0.0999999 3.2 0
v -0.5 3.2 -0.1
v -0.4 3.2 -0.1
v -0.2 3.2 -0.1
v -0.0999999 3.2 -0.1
v -0.4 3.3 0
v -0.2 3.3 0
v -0.4 3.3 -0.1
v -0.2 3.3 -0.1
v -0.5 3.5 0
v -0.4 3.5 0
v -0.5 3.5 -0.1
v -0.4 3.5 -0.1
v -0.6 3.6 0
v -0.5 3.6 0
v -0.6 3.6 -0.1
v -0.5 3.6 -0.1
v -0.7 3.7 0
v -0.6 3.7 0
v -0.7 3.7 -0.1
v -0.6 3.7 -0.1
v -2.5 3.8 0
v -2.4 3.8 0
v -2.1 3.8 0
v -2 3.8 0
v -0.9 3.8 0
v -0.7 3.8 0
v -2.5 3.8 -0.1
v -2.4 3.8 -0.1
v -2.1 3.8 -0.1
v -2 3.8 -0.1
v -0.9 3.8 -0.1
v -0.7 3.8 -0.1
v -2.4 3.9 0
v -2.3 3.9 0
v -2.2 3.9 0
v -2.1 3.9 0
v -1.1 3.9 0
v -0.9 3.9 0
v -2.4 3.9 -0.1
v -2.3 3.9 -0.1
v -2.2 3.9 -0.1
v -2.1 3.9 -0.1
v -1.1 3.9 -0.1
v -0.9 3.9 -0.1
v -2.3 4 0
v -2.2 4 0
v -2.1 4 0
v -1.9 4 0
v -1.6 4 0
v -1.1 4 0
v -2.3 4 -0.1
v -2.2 4 -0.1
v -2.1 4 -0.1
v -1.9 4 -0.1
v -1.6 4 -0.1
v -1.1 4 -0.1
v -1.9 4.1 0
v -1.6 4.1 0
v -1.9 4.1 -0.1
v -1.6 4.1 -0.1

# faces
f 3/3/1 2/3/1 1/3/1
f 4/3/1 2/3/1 3/3/1
f 5/2/1 4/2/1 3/2/1
f 6/2/1 4/2/1 5/2/1
f 7/3/1 6/3/1 5/3/1
f 8/3/1 6/3/1 7/3/1
f 11/3/1 10/3/1 9/3/1
f 12/3/1 10/3/1 11/3/1
f 15/3/1 14/3/1 13/3/1
f 16/3/1 14/3/1 15/3/1
f 19/1/1 18/1/1 17/1/1
f 20/1/1 18/1/1 19/1/1
f 23/1/1 22/1/1 21/1/1
f 24/1/1 22/1/1 23/1/1
f 27/1/1 26/1/1 25/1/1
f 28/1/1 26/1/1 27/1/1
f 31/1/1 30/1/1 29/1/1
f 32/1/1 30/1/1 31/1/1
f 35/1/1 34/1/1 33/1/1
f 36/1/1 34/1/1 35/1/1
f 39/1/1 38/1/1 37/1/1
f 40/1/1 38/1/1 39/1/1
f 43/1/1 42/1/1 41/1/1
f 44/1/1 42/1/1 43/1/1
f 47/1/1 46/1/1 45/1/1
f 48/1/1 46/1/1 47/1/1
f 51/1/1 50/1/1 49/1/1
f 52/1/1 50/1/1 51/1/1
f 55/1/1 54/1/1 53/1/1
f 56/1/1 54/1/1 55/1/1
f 59/1/1 58/1/1 57/1/1
f 60/1/1 58/1/1 59/1/1
f 63/1/1 62/1/1 61/1/1
f 64/1/1 62/1/1 63/1/1
f 67/1/1 66/1/1 65/1/1
f 68/1/1 66/1/1 67/1/1
f 71/1/1 70/1/1 69/1/1
f 72/1/1 70/1/1 71/1/1
f 75/1/1 74/1/1 73/1/1
f 76/1/1 74/1/1 75/1/1
f 79/1/1 78/1/1 77/1/1
f 80/1/1 78/1/1 79/1/1
f 83/1/1 82/1/1 81/1/1
f 84/1/1 82/1/1 83/1/1
f 87/1/1 86/1/1 85/1/1
f 88/1/1 86/1/1 87/1/1
f 91/1/1 90/1/1 89/1/1
f 92/1/1 90/1/1 91/1/1
f 95/1/1 94/1/1 93/1/1
f 96/1/1 94/1/1 95/1/1
f 99/1/1 98/1/1 97/1/1
f 100/1/1 98/1/1 99/1/1
f 103/1/1 102/1/1 101/1/1
f 104/1/1 102/1/1 103/1/1
f 107/1/1 106/1/1 105/1/1
f 108/1/1 106/1/1 107/1/1
f 111/1/1 110/1/1 109/1/1
f 112/1/1 110/1/1 111/1/1
f 115/1/1 114/1/1 113/1/1
f 116/1/1 114/1/1 115/1/1
f 117/3/2 118/3/2 119/3/2
f 119/3/2 118/3/2 120/3/2
f 121/3/2 122/3/2 123/3/2
f 123/3/2 122/3/2 124/3/2
f 125/3/2 126/3/2 127/3/2
f 127/3/2 126/3/2 128/3/2
f 129/3/2 130/3/2 131/3/2
f 131/3/2 130/3/2 132/3/2
f 133/3/2 134/3/2 135/3/2
f 135/3/2 134/3/2 136/3/2
f 137/3/2 138/3/2 139/3/2
f 139/3/2 138/3/2 140/3/2
f 141/3/2 142/3/2 143/3/2
f 143/3/2 142/3/2 144/3/2
f 145/1/2 146/1/2 147/1/2
f 147/1/2 146/1/2 148/1/2
f 149/1/2 150/1/2 151/1/2
f 151/1/2 150/1/2 152/1/2
f 153/1/2 154/1/2 155/1/2
f 155/1/2 154/1/2 156/1/2
f 157/1/2 158/1/2 159/1/2
f 159/1/2 158/1/2 160/1/2
f 161/1/2 162/1/2 163/1/2
f 163/1/2 162/1/2 164/1/2
f 165/1/2 166/1/2 167/1/2
f 167/1/2 166/1/2 168/1/2
f 169/1/2 170/1/2 171/1/2
f 171/1/2 170/1/2 172/1/2
f 173/1/2 174/1/2 175/1/2
f 175/1/2 174/1/2 176/1/2
f 177/1/2 178/1/2 179/1/2
f 179/1/2 178/1/2 180/1/2
f 181/1/2 182/1/2 183/1/2
f 183/1/2 182/1/2 184/1/2
f 185/1/2 186/1/2 187/1/2
f 187/1/2 186/1/2 188/1/2
f 189/1/2 190/1/2 191/1/2
f 191/1/2 190/1/2 192/1/2
f 193/1/2 194/1/2 195/1/2
f 195/1/2 194/1/2 196/1/2
f 197/1/2 198/1/2 199/1/2
f 199/1/2 198/1/2 200/1/2
f 201/1/2 202/1/2 203/1/2
f 203/1/2 202/1/2 204/1/2
f 205/1/2 206/1/2 207/1/2
f 207/1/2 206/1/2 208/1/2
f 209/1/2 210/1/2 211/1/2
f 211/1/2 210/1/2 212/1/2
f 213/1/2 214/1/2 215/1/2
f 215/1/2 214/1/2 216/1/2
f 217/1/2 218/1/2 219/1/2
f 219/1/2 218/1/2 220/1/2
f 221/1/2 222/1/2 223/1/2
f 223/1/2 222/1/2 224/1/2
f 225/1/2 226/1/2 227/1/2
f 227/1/2 226/1/2 228/1/2
f 229/1/2 230/1/2 231/1/2
f 231/1/2 230/1/2 232/1/2
f 233/1/2 234/1/2 235/1/2
f 235/1/2 234/1/2 236/1/2
f 237/1/2 238/1/2 239/1/2
f 239/1/2 238/1/2 240/1/2
f 241/1/2 242/1/2 243/1/2
f 243/1/2 242/1/2 244/1/2
f 249/3/3 246/3/3 245/3/3
f 250/2/3 247/2/3 246/2/3
f 250/3/3 246/3/3 249/3/3
f 251/2/3 247/2/3 250/2/3
f 252/3/3 248/3/3 247/3/3
f 252/2/3 247/2/3 251/2/3
f 253/3/3 248/3/3 252/3/3
f 255/3/3 251/3/3 250/3/3
f 256/2/3 253/2/3 252/2/3
f 256/3/3 251/3/3 255/3/3
f 256/2/3 252/2/3 251/2/3
f 257/2/3 253/2/3 256/2/3
f 258/3/3 254/3/3 253/3/3
f 258/2/3 253/2/3 257/2/3
f 259/3/3 254/3/3 258/3/3
f 261/3/3 257/3/3 256/3/3
f 262/2/3 259/2/3 258/2/3
f 262/3/3 257/3/3 261/3/3
f 262/2/3 258/2/3 257/2/3
f 263/2/3 259/2/3 262/2/3
f 264/2/3 259/2/3 263/2/3
f 265/3/3 260/3/3 259/3/3
f 265/2/3 259/2/3 264/2/3
f 266/3/3 260/3/3 265/3/3
f 267/3/3 263/3/3 262/3/3
f 268/2/3 264/2/3 263/2/3
f 268/3/3 263/3/3 267/3/3
f 269/3/3 265/3/3 264/3/3
f 269/2/3 264/2/3 268/2/3
f 270/3/3 265/3/3 269/3/3
f 272/3/3 269/3/3 268/3/3
f 273/3/3 269/3/3 272/3/3
f 274/1/3 271/1/3 270/1/3
f 275/1/3 274/1/3 273/1/3
f 275/1/3 271/1/3 274/1/3
f 278/1/3 275/1/3 273/1/3
f 278/1/3 276/1/3 275/1/3
f 279/1/3 276/1/3 278/1/3
f 280/1/3 276/1/3 279/1/3
f 282/1/3 278/1/3 277/1/3
f 282/1/3 279/1/3 278/1/3
f 284/1/3 282/1/3 281/1/3
f 286/1/3 284/1/3 283/1/3
f 288/1/3 286/1/3 285/1/3
f 289/1/3 279/1/3 282/1/3
f 289/1/3 282/1/3 284/1/3
f 289/1/3 286/1/3 288/1/3
f 289/1/3 284/1/3 286/1/3
f 290/1/3 279/1/3 289/1/3
f 292/1/3 288/1/3 287/1/3
f 292/1/3 289/1/3 288/1/3
f 294/1/3 292/1/3 291/1/3
f 295/1/3 289/1/3 292/1/3
f 295/1/3 292/1/3 294/1/3
f 296/1/3 289/1/3 295/1/3
f 298/1/3 294/1/3 293/1/3
f 298/1/3 295/1/3 294/1/3
f 299/1/3 295/1/3 298/1/3
f 300/1/3 295/1/3 299/1/3
f 301/1/3 295/1/3 300/1/3
f 303/1/3 298/1/3 297/1/3
f 304/1/3 298/1/3 303/1/3
f 305/1/3 300/1/3 299/1/3
f 306/1/3 300/1/3 305/1/3
f 307/1/3 300/1/3 306/1/3
f 308/1/3 300/1/3 307/1/3
f 309/1/3 304/1/3 303/1/3
f 309/1/3 303/1/3 302/1/3
f 309/1/3 305/1/3 304/1/3
f 310/1/3 307/1/3 306/1/3
f 311/1/3 307/1/3 310/1/3
f 312/1/3 307/1/3 311/1/3
f 313/1/3 307/1/3 312/1/3
f 315/1/3 309/1/3 302/1/3
f 315/1/3 310/1/3 309/1/3
f 316/1/3 310/1/3 315/1/3
f 317/1/3 310/1/3 316/1/3
f 318/1/3 312/1/3 311/1/3
f 319/1/3 312/1/3 318/1/3
f 321/1/3 315/1/3 314/1/3
f 322/1/3 315/1/3 321/1/3
f 322/1/3 321/1/3 320/1/3
f 323/1/3 317/1/3 316/1/3
f 323/1/3 318/1/3 317/1/3
f 324/1/3 318/1/3 323/1/3
f 325/1/3 318/1/3 324/1/3
f 326/1/3 318/1/3 325/1/3
f 328/1/3 322/1/3 320/1/3
f 328/1/3 323/1/3 322/1/3
f 329/1/3 323/1/3 328/1/3
f 330/1/3 325/1/3 324/1/3
f 331/1/3 325/1/3 330/1/3
f 333/1/3 329/1/3 328/1/3
f 333/1/3 328/1/3 327/1/3
f 333/1/3 330/1/3 329/1/3
f 334/1/3 330/1/3 333/1/3
f 335/1/3 330/1/3 334/1/3
f 336/1/3 330/1/3 335/1/3
f 337/1/3 330/1/3 336/1/3
f 338/1/3 333/1/3 332/1/3
f 338/1/3 334/1/3 333/1/3
f 339/1/3 334/1/3 338/1/3
f 340/1/3 336/1/3 335/1/3
f 341/1/3 336/1/3 340/1/3
f 342/1/3 338/1/3 332/1/3
f 343/1/3 338/1/3 342/1/3
f 347/1/3 345/1/3 344/1/3
f 348/1/3 345/1/3 347/1/3
f 348/1/3 347/1/3 346/1/3
f 349/1/3 345/1/3 348/1/3
f 350/1/3 348/1/3 346/1/3
f 351/1/3 348/1/3 350/1/3
f 352/1/3 348/1/3 351/1/3
f 354/1/3 353/1/3 352/1/3
f 354/1/3 352/1/3 351/1/3
f 355/1/3 353/1/3 354/1/3
f 356/1/3 353/1/3 355/1/3
f 358/1/3 357/1/3 356/1/3
f 358/1/3 356/1/3 355/1/3
f 359/1/3 357/1/3 358/1/3
f 360/1/3 357/1/3 359/1/3
f 361/1/3 357/1/3 360/1/3
f 362/1/3 357/1/3 361/1/3
f 363/1/3 357/1/3 362/1/3
f 364/3/4 365/3/4 368/3/4
f 365/2/4 366/2/4 369/2/4
f 368/3/4 365/3/4 369/3/4
f 369/2/4 366/2/4 370/2/4
f 366/3/4 367/3/4 371/3/4
f 370/2/4 366/2/4 371/2/4
f 371/3/4 367/3/4 372/3/4
f 369/3/4 370/3/4 374/3/4
f 371/2/4 372/2/4 375/2/4
f 374/3/4 370/3/4 375/3/4
f 370/2/4 371/2/4 375/2/4
f 375/2/4 372/2/4 376/2/4
f 372/3/4 373/3/4 377/3/4
f 376/2/4 372/2/4 377/2/4
f 377/3/4 373/3/4 378/3/4
f 375/3/4 376/3/4 380/3/4
f 377/2/4 378/2/4 381/2/4
f 380/3/4 376/3/4 381/3/4
f 376/2/4 377/2/4 381/2/4
f 381/2/4 378/2/4 382/2/4
f 382/2/4 378/2/4 383/2/4
f 378/3/4 379/3/4 384/3/4
f 383/2/4 378/2/4 384/2/4
f 384/3/4 379/3/4 385/3/4
f 381/3/4 382/3/4 386/3/4
f 382/2/4 383/2/4 387/2/4
f 386/3/4 382/3/4 387/3/4
f 383/3/4 384/3/4 388/3/4
f 387/2/4 383/2/4 388/2/4
f 388/3/4 384/3/4 389/3/4
f 387/3/4 388/3/4 391/3/4
f 391/3/4 388/3/4 392/3/4
f 389/1/4 390/1/4 393/1/4
f 392/1/4 393/1/4 394/1/4
f 393/1/4 390/1/4 394/1/4
f 392/1/4 394/1/4 397/1/4
f 394/1/4 395/1/4 397/1/4
f 397/1/4 395/1/4 398/1/4
f 398/1/4 395/1/4 399/1/4
f 396/1/4 397/1/4 401/1/4
f 397/1/4 398/1/4 401/1/4
f 400/1/4 401/1/4 403/1/4
f 402/1/4 403/1/4 405/1/4
f 404/1/4 405/1/4 407/1/4
f 401/1/4 398/1/4 408/1/4
f 403/1/4 401/1/4 408/1/4
f 407/1/4 405/1/4 408/1/4
f 405/1/4 403/1/4 408/1/4
f 408/1/4 398/1/4 409/1/4
f 406/1/4 407/1/4 411/1/4
f 407/1/4 408/1/4 411/1/4
f 410/1/4 411/1/4 413/1/4
f 411/1/4 408/1/4 414/1/4
f 413/1/4 411/1/4 414/1/4
f 414/1/4 408/1/4 415/1/4
f 412/1/4 413/1/4 417/1/4
f 413/1/4 414/1/4 417/1/4
f 417/1/4 414/1/4 418/1/4
f 418/1/4 414/1/4 419/1/4
f 419/1/4 414/1/4 420/1/4
f 416/1/4 417/1/4 422/1/4
f 422/1/4 417/1/4 423/1/4
f 418/1/4 419/1/4 424/1/4
f 424/1/4 419/1/4 425/1/4
f 425/1/4 419/1/4 426/1/4
f 426/1/4 419/1/4 427/1/4
f 422/1/4 423/1/4 428/1/4
f 421/1/4 422/1/4 428/1/4
f 423/1/4 424/1/4 428/1/4
f 425/1/4 426/1/4 429/1/4
f 429/1/4 426/1/4 430/1/4
f 430/1/4 426/1/4 431/1/4
f 431/1/4 426/1/4 432/1/4
f 421/1/4 428/1/4 434/1/4
f 428/1/4 429/1/4 434/1/4
f 434/1/4 429/1/4 435/1/4
f 435/1/4 429/1/4 436/1/4
f 430/1/4 431/1/4 437/1/4
f 437/1/4 431/1/4 438/1/4
f 433/1/4 434/1/4 440/1/4
f 440/1/4 434/1/4 441/1/4
f 439/1/4 440/1/4 441/1/4
f 435/1/4 436/1/4 442/1/4
f 436/1/4 437/1/4 442/1/4
f 442/1/4 437/1/4 443/1/4
f 443/1/4 437/1/4 444/1/4
f 444/1/4 437/1/4 445/1/4
f 439/1/4 441/1/4 447/1/4
f 441/1/4 442/1/4 447/1/4
f 447/1/4 442/1/4 448/1/4
f 443/1/4 444/1/4 449/1/4
f 449/1/4 444/1/4 450/1/4
f 447/1/4 448/1/4 452/1/4
f 446/1/4 447/1/4 452/1/4
f 448/1/4 449/1/4 452/1/4
f 452/1/4 449/1/4 453/1/4
f 453/1/4 449/1/4 454/1/4
f 454/1/4 449/1/4 455/1/4
f 455/1/4 449/1/4 456/1/4
f 451/1/4 452/1/4 457/1/4
f 452/1/4 453/1/4 457/1/4
f 457/1/4 453/1/4 458/1/4
f 454/1/4 455/1/4 459/1/4
f 459/1/4 455/1/4 460/1/4
f 451/1/4 457/1/4 461/1/4
f 461/1/4 457/1/4 462/1/4
f 463/1/4 464/1/4 466/1/4
f 466/1/4 464/1/4 467/1/4
f 465/1/4 466/1/4 467/1/4
f 467/1/4 464/1/4 468/1/4
f 465/1/4 467/1/4 469/1/4
f 469/1/4 467/1/4 470/1/4
f 470/1/4 467/1/4 471/1/4
f 471/1/4 472/1/4 473/1/4
f 470/1/4 471/1/4 473/1/4
f 473/1/4 472/1/4 474/1/4
f 474/1/4 472/1/4 475/1/4
f 475/1/4 476/1/4 477/1/4
f 474/1/4 475/1/4 477/1/4
f 477/1/4 476/1/4 478/1/4
f 478/1/4 476/1/4 479/1/4
f 479/1/4 476/1/4 480/1/4
f 480/1/4 476/1/4 481/1/4
f 481/1/4 476/1/4 482/1/4
f 485/1/5 484/1/5 483/1/5
f 486/1/5 484/1/5 485/1/5
f 489/1/5 488/1/5 487/1/5
f 490/1/5 488/1/5 489/1/5
f 495/1/5 492/1/5 491/1/5
f 496/1/5 492/1/5 495/1/5
f 497/1/5 494/1/5 493/1/5
f 498/1/5 494/1/5 497/1/5
f 501/1/5 500/1/5 499/1/5
f 502/1/5 500/1/5 501/1/5
f 505/1/5 504/1/5 503/1/5
f 506/1/5 504/1/5 505/1/5
f 509/1/5 508/1/5 507/1/5
f 510/1/5 508/1/5 509/1/5
f 513/1/5 512/1/5 511/1/5
f 514/1/5 512/1/5 513/1/5
f 517/1/5 516/1/5 515/1/5
f 518/1/5 516/1/5 517/1/5
f 521/1/5 520/1/5 519/1/5
f 522/1/5 520/1/5 521/1/5
f 525/1/5 524/1/5 523/1/5
f 526/1/5 524/1/5 525/1/5
f 529/1/5 528/1/5 527/1/5
f 530/1/5 528/1/5 529/1/5
f 535/1/5 532/1/5 531/1/5
f 536/1/5 532/1/5 535/1/5
f 537/1/5 534/1/5 533/1/5
f 538/1/5 534/1/5 537/1/5
f 541/1/5 540/1/5 539/1/5
f 542/1/5 540/1/5 541/1/5
f 545/1/5 544/1/5 543/1/5
f 546/1/5 544/1/5 545/1/5
f 549/1/5 548/1/5 547/1/5
f 550/1/5 548/1/5 549/1/5
f 555/1/5 552/1/5 551/1/5
f 556/1/5 552/1/5 555/1/5
f 557/1/5 554/1/5 553/1/5
f 558/1/5 554/1/5 557/1/5
f 565/3/5 560/3/5 559/3/5
f 566/3/5 560/3/5 565/3/5
f 567/1/5 562/1/5 561/1/5
f 568/1/5 562/1/5 567/1/5
f 569/1/5 564/1/5 563/1/5
f 570/1/5 564/1/5 569/1/5
f 575/3/5 572/3/5 571/3/5
f 576/3/5 572/3/5 575/3/5
f 577/1/5 574/1/5 573/1/5
f 578/1/5 574/1/5 577/1/5
f 583/3/5 580/3/5 579/3/5
f 584/3/5 580/3/5 583/3/5
f 585/1/5 582/1/5 581/1/5
f 586/1/5 582/1/5 585/1/5
f 591/3/5 588/3/5 587/3/5
f 592/3/5 588/3/5 591/3/5
f 593/1/5 590/1/5 589/1/5
f 594/1/5 590/1/5 593/1/5
f 599/3/5 596/3/5 595/3/5
f 600/3/5 596/3/5 599/3/5
f 601/1/5 598/1/5 597/1/5
f 602/1/5 598/1/5 601/1/5
f 605/1/5 604/1/5 603/1/5
f 606/1/5 604/1/5 605/1/5
f 609/1/5 608/1/5 607/1/5
f 610/1/5 608/1/5 609/1/5
f 611/1/6 612/1/6 613/1/6
f 613/1/6 612/1/6 614/1/6
f 615/1/6 616/1/6 617/1/6
f 617/1/6 616/1/6 618/1/6
f 619/1/6 620/1/6 623/1/6
f 623/1/6 620/1/6 624/1/6
f 621/1/6 622/1/6 625/1/6
f 625/1/6 622/1/6 626/1/6
f 627/1/6 628/1/6 629/1/6
f 629/1/6 628/1/6 630/1/6
f 631/1/6 632/1/6 633/1/6
f 633/1/6 632/1/6 634/1/6
f 635/1/6 636/1/6 637/1/6
f 637/1/6 636/1/6 638/1/6
f 639/1/6 640/1/6 641/1/6
f 641/1/6 640/1/6 642/1/6
f 643/1/6 644/1/6 645/1/6
f 645/1/6 644/1/6 646/1/6
f 647/1/6 648/1/6 649/1/6
f 649/1/6 648/1/6 650/1/6
f 651/1/6 652/1/6 653/1/6
f 653/1/6 652/1/6 654/1/6
f 655/1/6 656/1/6 657/1/6
f 657/1/6 656/1/6 658/1/6
f 659/1/6 660/1/6 663/1/6
f 663/1/6 660/1/6 664/1/6
f 661/1/6 662/1/6 665/1/6
f 665/1/6 662/1/6 666/1/6
f 667/1/6 668/1/6 669/1/6
f 669/1/6 668/1/6 670/1/6
f 671/1/6 672/1/6 673/1/6
f 673/1/6 672/1/6 674/1/6
f 675/1/6 676/1/6 677/1/6
f 677/1/6 676/1/6 678/1/6
f 679/1/6 680/1/6 681/1/6
f 681/1/6 680/1/6 682/1/6
f 683/3/6 684/3/6 689/3/6
f 689/3/6 684/3/6 690/3/6
f 685/3/6 686/3/6 691/3/6
f 691/3/6 686/3/6 692/3/6
f 687/1/6 688/1/6 693/1/6
f 693/1/6 688/1/6 694/1/6
f 695/3/6 696/3/6 701/3/6
f 701/3/6 696/3/6 702/3/6
f 697/3/6 698/3/6 703/3/6
f 703/3/6 698/3/6 704/3/6
f 699/1/6 700/1/6 705/1/6
f 705/1/6 700/1/6 706/1/6
f 707/3/6 708/3/6 713/3/6
f 713/3/6 708/3/6 714/3/6
f 709/1/6 710/1/6 715/1/6
f 715/1/6 710/1/6 716/1/6
f 711/1/6 712/1/6 717/1/6
f 717/1/6 712/1/6 718/1/6
f 719/1/6 720/1/6 721/1/6
f 721/1/6 720/1/6 722/1/6
