# MagicaVoxel @ Ephtracy

# group
g PoliceDetailed-1

# material
mtllib PoliceDetailed-1.mtl
usemtl palette

# normals
vn -1 0 0
vn 1 0 0
vn 0 0 1
vn 0 0 -1
vn 0 -1 0
vn 0 1 0

# texcoords
vt 0.955078 0.5

# verts
v -50 0 50
v -50 0 -50
v -50 1 50
v -50 1 -50
v -49 1 48
v -49 1 -48
v -49 2 48
v -49 2 -48
v -48 1 49
v -48 1 48
v -48 1 -48
v -48 1 -49
v -48 2 49
v -48 2 48
v -48 2 47
v -48 2 -47
v -48 2 -48
v -48 2 -49
v -48 3 47
v -48 3 -47
v -47 2 48
v -47 2 47
v -47 2 -47
v -47 2 -48
v -47 3 48
v -47 3 47
v -47 3 46
v -47 3 -46
v -47 3 -47
v -47 3 -48
v -47 4 46
v -47 4 -46
v -46 3 47
v -46 3 46
v -46 3 -46
v -46 3 -47
v -46 4 47
v -46 4 46
v -46 4 45
v -46 4 -45
v -46 4 -46
v -46 4 -47
v -46 5 45
v -46 5 -45
v -45 4 46
v -45 4 45
v -45 4 -45
v -45 4 -46
v -45 5 46
v -45 5 45
v -45 5 -45
v -45 5 -46
v -45 8 45
v -45 8 43
v -45 9 43
v -45 9 42
v -45 10 42
v -45 10 -45
v 44 7 44
v 44 7 -45
v 44 8 44
v 44 8 -45
v -44 7 44
v -44 7 43
v -44 8 44
v -44 8 43
v 30 0 50
v 30 0 49
v 30 1 50
v 30 1 49
v 39 0 49
v 39 0 48
v 39 2 49
v 39 2 48
v 41 0 48
v 41 0 47
v 41 3 48
v 41 3 47
v 42 9 42
v 42 9 -45
v 42 10 42
v 42 10 -45
v 43 0 47
v 43 0 46
v 43 4 47
v 43 4 46
v 43 7 43
v 43 7 -45
v 43 9 43
v 43 9 -45
v 44 0 46
v 44 0 45
v 44 5 46
v 44 5 45
v 45 0 45
v 45 0 44
v 45 4 -45
v 45 4 -46
v 45 5 44
v 45 5 -45
v 45 5 -46
v 45 8 45
v 45 8 -45
v 46 0 44
v 46 0 43
v 46 3 -46
v 46 3 -47
v 46 4 43
v 46 4 -45
v 46 4 -46
v 46 4 -47
v 46 5 44
v 46 5 -45
v 47 0 43
v 47 0 41
v 47 2 -47
v 47 2 -48
v 47 3 41
v 47 3 -46
v 47 3 -47
v 47 3 -48
v 47 4 43
v 47 4 -46
v 48 0 41
v 48 0 39
v 48 1 -48
v 48 1 -49
v 48 2 39
v 48 2 -47
v 48 2 -48
v 48 2 -49
v 48 3 41
v 48 3 -47
v 49 0 39
v 49 0 30
v 49 1 30
v 49 1 -48
v 49 2 39
v 49 2 -48
v 50 0 30
v 50 0 -50
v 50 1 30
v 50 1 -50
v -50 0 50
v -50 1 50
v 30 0 50
v 30 1 50
v -48 1 49
v -48 2 49
v 30 0 49
v 30 1 49
v 39 0 49
v 39 2 49
v -49 1 48
v -49 2 48
v -48 1 48
v -48 2 48
v -47 2 48
v -47 3 48
v 39 0 48
v 39 2 48
v 41 0 48
v 41 3 48
v -48 2 47
v -48 3 47
v -47 2 47
v -47 3 47
v -46 3 47
v -46 4 47
v 41 0 47
v 41 3 47
v 43 0 47
v 43 4 47
v -47 3 46
v -47 4 46
v -46 3 46
v -46 4 46
v -45 4 46
v -45 5 46
v 43 0 46
v 43 4 46
v 44 0 46
v 44 5 46
v -46 4 45
v -46 5 45
v -45 4 45
v -45 5 45
v -45 8 45
v 44 0 45
v 44 5 45
v 45 0 45
v 45 8 45
v 45 0 44
v 45 5 44
v 46 0 44
v 46 5 44
v -45 8 43
v -45 9 43
v -44 7 43
v -44 8 43
v 43 7 43
v 43 9 43
v 46 0 43
v 46 4 43
v 47 0 43
v 47 4 43
v -45 9 42
v -45 10 42
v 42 9 42
v 42 10 42
v 47 0 41
v 47 3 41
v 48 0 41
v 48 3 41
v 48 0 39
v 48 2 39
v 49 0 39
v 49 2 39
v 49 0 30
v 49 1 30
v 50 0 30
v 50 1 30
v -44 7 44
v -44 8 44
v 44 7 44
v 44 8 44
v -46 4 -45
v -46 5 -45
v -45 4 -45
v -45 5 -45
v -45 10 -45
v 42 9 -45
v 42 10 -45
v 43 7 -45
v 43 9 -45
v 44 7 -45
v 44 8 -45
v 45 4 -45
v 45 5 -45
v 45 8 -45
v 46 4 -45
v 46 5 -45
v -47 3 -46
v -47 4 -46
v -46 3 -46
v -46 4 -46
v -45 4 -46
v -45 5 -46
v 45 4 -46
v 45 5 -46
v 46 3 -46
v 46 4 -46
v 47 3 -46
v 47 4 -46
v -48 2 -47
v -48 3 -47
v -47 2 -47
v -47 3 -47
v -46 3 -47
v -46 4 -47
v 46 3 -47
v 46 4 -47
v 47 2 -47
v 47 3 -47
v 48 2 -47
v 48 3 -47
v -49 1 -48
v -49 2 -48
v -48 1 -48
v -48 2 -48
v -47 2 -48
v -47 3 -48
v 47 2 -48
v 47 3 -48
v 48 1 -48
v 48 2 -48
v 49 1 -48
v 49 2 -48
v -48 1 -49
v -48 2 -49
v 48 1 -49
v 48 2 -49
v -50 0 -50
v -50 1 -50
v 50 0 -50
v 50 1 -50
v -50 0 50
v 30 0 50
v 30 0 49
v 39 0 49
v 39 0 48
v 41 0 48
v 41 0 47
v 43 0 47
v 43 0 46
v 44 0 46
v 44 0 45
v 45 0 45
v 45 0 44
v 46 0 44
v 46 0 43
v 47 0 43
v 47 0 41
v 48 0 41
v 48 0 39
v 49 0 39
v 49 0 30
v 50 0 30
v -50 0 -50
v 50 0 -50
v -50 1 50
v 30 1 50
v -48 1 49
v 30 1 49
v -49 1 48
v -48 1 48
v 49 1 30
v 50 1 30
v -49 1 -48
v -48 1 -48
v 48 1 -48
v 49 1 -48
v -48 1 -49
v 48 1 -49
v -50 1 -50
v 50 1 -50
v -48 2 49
v 39 2 49
v -49 2 48
v -48 2 48
v -47 2 48
v 39 2 48
v -48 2 47
v -47 2 47
v 48 2 39
v 49 2 39
v -48 2 -47
v -47 2 -47
v 47 2 -47
v 48 2 -47
v -49 2 -48
v -48 2 -48
v -47 2 -48
v 47 2 -48
v 48 2 -48
v 49 2 -48
v -48 2 -49
v 48 2 -49
v -47 3 48
v 41 3 48
v -48 3 47
v -47 3 47
v -46 3 47
v 41 3 47
v -47 3 46
v -46 3 46
v 47 3 41
v 48 3 41
v -47 3 -46
v -46 3 -46
v 46 3 -46
v 47 3 -46
v -48 3 -47
v -47 3 -47
v -46 3 -47
v 46 3 -47
v 47 3 -47
v 48 3 -47
v -47 3 -48
v 47 3 -48
v -46 4 47
v 43 4 47
v -47 4 46
v -46 4 46
v -45 4 46
v 43 4 46
v -46 4 45
v -45 4 45
v 46 4 43
v 47 4 43
v -46 4 -45
v -45 4 -45
v 45 4 -45
v 46 4 -45
v -47 4 -46
v -46 4 -46
v -45 4 -46
v 45 4 -46
v 46 4 -46
v 47 4 -46
v -46 4 -47
v 46 4 -47
v -45 5 46
v 44 5 46
v -46 5 45
v -45 5 45
v 44 5 45
v 45 5 44
v 46 5 44
v -46 5 -45
v -45 5 -45
v 45 5 -45
v 46 5 -45
v -45 5 -46
v 45 5 -46
v -44 7 44
v 44 7 44
v -44 7 43
v 43 7 43
v 43 7 -45
v 44 7 -45
v -45 8 45
v 45 8 45
v -44 8 44
v 44 8 44
v -45 8 43
v -44 8 43
v 44 8 -45
v 45 8 -45
v -45 9 43
v 43 9 43
v -45 9 42
v 42 9 42
v 42 9 -45
v 43 9 -45
v -45 10 42
v 42 10 42
v -45 10 -45
v 42 10 -45

# faces
f 3/1/1 2/1/1 1/1/1
f 4/1/1 2/1/1 3/1/1
f 7/1/1 6/1/1 5/1/1
f 8/1/1 6/1/1 7/1/1
f 13/1/1 10/1/1 9/1/1
f 14/1/1 10/1/1 13/1/1
f 17/1/1 12/1/1 11/1/1
f 18/1/1 12/1/1 17/1/1
f 19/1/1 16/1/1 15/1/1
f 20/1/1 16/1/1 19/1/1
f 25/1/1 22/1/1 21/1/1
f 26/1/1 22/1/1 25/1/1
f 29/1/1 24/1/1 23/1/1
f 30/1/1 24/1/1 29/1/1
f 31/1/1 28/1/1 27/1/1
f 32/1/1 28/1/1 31/1/1
f 37/1/1 34/1/1 33/1/1
f 38/1/1 34/1/1 37/1/1
f 41/1/1 36/1/1 35/1/1
f 42/1/1 36/1/1 41/1/1
f 43/1/1 40/1/1 39/1/1
f 44/1/1 40/1/1 43/1/1
f 49/1/1 46/1/1 45/1/1
f 50/1/1 46/1/1 49/1/1
f 51/1/1 48/1/1 47/1/1
f 52/1/1 48/1/1 51/1/1
f 53/1/1 51/1/1 50/1/1
f 54/1/1 51/1/1 53/1/1
f 55/1/1 51/1/1 54/1/1
f 56/1/1 51/1/1 55/1/1
f 57/1/1 51/1/1 56/1/1
f 58/1/1 51/1/1 57/1/1
f 61/1/1 60/1/1 59/1/1
f 62/1/1 60/1/1 61/1/1
f 63/1/2 64/1/2 65/1/2
f 65/1/2 64/1/2 66/1/2
f 67/1/2 68/1/2 69/1/2
f 69/1/2 68/1/2 70/1/2
f 71/1/2 72/1/2 73/1/2
f 73/1/2 72/1/2 74/1/2
f 75/1/2 76/1/2 77/1/2
f 77/1/2 76/1/2 78/1/2
f 79/1/2 80/1/2 81/1/2
f 81/1/2 80/1/2 82/1/2
f 83/1/2 84/1/2 85/1/2
f 85/1/2 84/1/2 86/1/2
f 87/1/2 88/1/2 89/1/2
f 89/1/2 88/1/2 90/1/2
f 91/1/2 92/1/2 93/1/2
f 93/1/2 92/1/2 94/1/2
f 95/1/2 96/1/2 99/1/2
f 97/1/2 98/1/2 100/1/2
f 100/1/2 98/1/2 101/1/2
f 95/1/2 99/1/2 102/1/2
f 99/1/2 100/1/2 102/1/2
f 102/1/2 100/1/2 103/1/2
f 104/1/2 105/1/2 108/1/2
f 106/1/2 107/1/2 110/1/2
f 110/1/2 107/1/2 111/1/2
f 108/1/2 109/1/2 112/1/2
f 104/1/2 108/1/2 112/1/2
f 112/1/2 109/1/2 113/1/2
f 114/1/2 115/1/2 118/1/2
f 116/1/2 117/1/2 120/1/2
f 120/1/2 117/1/2 121/1/2
f 118/1/2 119/1/2 122/1/2
f 114/1/2 118/1/2 122/1/2
f 122/1/2 119/1/2 123/1/2
f 124/1/2 125/1/2 128/1/2
f 126/1/2 127/1/2 130/1/2
f 130/1/2 127/1/2 131/1/2
f 128/1/2 129/1/2 132/1/2
f 124/1/2 128/1/2 132/1/2
f 132/1/2 129/1/2 133/1/2
f 134/1/2 135/1/2 136/1/2
f 134/1/2 136/1/2 138/1/2
f 136/1/2 137/1/2 138/1/2
f 138/1/2 137/1/2 139/1/2
f 140/1/2 141/1/2 142/1/2
f 142/1/2 141/1/2 143/1/2
f 146/1/3 145/1/3 144/1/3
f 147/1/3 145/1/3 146/1/3
f 151/1/3 149/1/3 148/1/3
f 152/1/3 151/1/3 150/1/3
f 153/1/3 149/1/3 151/1/3
f 153/1/3 151/1/3 152/1/3
f 156/1/3 155/1/3 154/1/3
f 157/1/3 155/1/3 156/1/3
f 161/1/3 159/1/3 158/1/3
f 162/1/3 161/1/3 160/1/3
f 163/1/3 159/1/3 161/1/3
f 163/1/3 161/1/3 162/1/3
f 166/1/3 165/1/3 164/1/3
f 167/1/3 165/1/3 166/1/3
f 171/1/3 169/1/3 168/1/3
f 172/1/3 171/1/3 170/1/3
f 173/1/3 169/1/3 171/1/3
f 173/1/3 171/1/3 172/1/3
f 176/1/3 175/1/3 174/1/3
f 177/1/3 175/1/3 176/1/3
f 181/1/3 179/1/3 178/1/3
f 182/1/3 181/1/3 180/1/3
f 183/1/3 179/1/3 181/1/3
f 183/1/3 181/1/3 182/1/3
f 186/1/3 185/1/3 184/1/3
f 187/1/3 185/1/3 186/1/3
f 190/1/3 188/1/3 187/1/3
f 191/1/3 190/1/3 189/1/3
f 192/1/3 188/1/3 190/1/3
f 192/1/3 190/1/3 191/1/3
f 195/1/3 194/1/3 193/1/3
f 196/1/3 194/1/3 195/1/3
f 200/1/3 198/1/3 197/1/3
f 201/1/3 200/1/3 199/1/3
f 202/1/3 198/1/3 200/1/3
f 202/1/3 200/1/3 201/1/3
f 205/1/3 204/1/3 203/1/3
f 206/1/3 204/1/3 205/1/3
f 209/1/3 208/1/3 207/1/3
f 210/1/3 208/1/3 209/1/3
f 213/1/3 212/1/3 211/1/3
f 214/1/3 212/1/3 213/1/3
f 217/1/3 216/1/3 215/1/3
f 218/1/3 216/1/3 217/1/3
f 221/1/3 220/1/3 219/1/3
f 222/1/3 220/1/3 221/1/3
f 223/1/4 224/1/4 225/1/4
f 225/1/4 224/1/4 226/1/4
f 227/1/4 228/1/4 229/1/4
f 229/1/4 228/1/4 230/1/4
f 230/1/4 231/1/4 232/1/4
f 232/1/4 231/1/4 233/1/4
f 230/1/4 232/1/4 234/1/4
f 234/1/4 232/1/4 235/1/4
f 230/1/4 234/1/4 236/1/4
f 230/1/4 236/1/4 239/1/4
f 236/1/4 237/1/4 239/1/4
f 239/1/4 237/1/4 240/1/4
f 238/1/4 239/1/4 241/1/4
f 241/1/4 239/1/4 242/1/4
f 243/1/4 244/1/4 245/1/4
f 245/1/4 244/1/4 246/1/4
f 247/1/4 248/1/4 249/1/4
f 249/1/4 248/1/4 250/1/4
f 251/1/4 252/1/4 253/1/4
f 253/1/4 252/1/4 254/1/4
f 255/1/4 256/1/4 257/1/4
f 257/1/4 256/1/4 258/1/4
f 259/1/4 260/1/4 261/1/4
f 261/1/4 260/1/4 262/1/4
f 263/1/4 264/1/4 265/1/4
f 265/1/4 264/1/4 266/1/4
f 267/1/4 268/1/4 269/1/4
f 269/1/4 268/1/4 270/1/4
f 271/1/4 272/1/4 273/1/4
f 273/1/4 272/1/4 274/1/4
f 275/1/4 276/1/4 277/1/4
f 277/1/4 276/1/4 278/1/4
f 279/1/4 280/1/4 281/1/4
f 281/1/4 280/1/4 282/1/4
f 283/1/4 284/1/4 285/1/4
f 285/1/4 284/1/4 286/1/4
f 289/1/5 288/1/5 287/1/5
f 291/1/5 290/1/5 289/1/5
f 293/1/5 292/1/5 291/1/5
f 295/1/5 294/1/5 293/1/5
f 297/1/5 296/1/5 295/1/5
f 299/1/5 298/1/5 297/1/5
f 301/1/5 300/1/5 299/1/5
f 303/1/5 302/1/5 301/1/5
f 305/1/5 304/1/5 303/1/5
f 307/1/5 306/1/5 305/1/5
f 309/1/5 289/1/5 287/1/5
f 309/1/5 308/1/5 307/1/5
f 309/1/5 307/1/5 305/1/5
f 309/1/5 305/1/5 303/1/5
f 309/1/5 303/1/5 301/1/5
f 309/1/5 301/1/5 299/1/5
f 309/1/5 299/1/5 297/1/5
f 309/1/5 297/1/5 295/1/5
f 309/1/5 295/1/5 293/1/5
f 309/1/5 293/1/5 291/1/5
f 309/1/5 291/1/5 289/1/5
f 310/1/5 308/1/5 309/1/5
f 311/1/6 312/1/6 313/1/6
f 313/1/6 312/1/6 314/1/6
f 311/1/6 313/1/6 315/1/6
f 315/1/6 313/1/6 316/1/6
f 311/1/6 315/1/6 319/1/6
f 317/1/6 318/1/6 322/1/6
f 319/1/6 320/1/6 323/1/6
f 321/1/6 322/1/6 324/1/6
f 319/1/6 323/1/6 325/1/6
f 323/1/6 324/1/6 325/1/6
f 311/1/6 319/1/6 325/1/6
f 324/1/6 322/1/6 326/1/6
f 325/1/6 324/1/6 326/1/6
f 322/1/6 318/1/6 326/1/6
f 327/1/6 328/1/6 330/1/6
f 330/1/6 328/1/6 331/1/6
f 331/1/6 328/1/6 332/1/6
f 329/1/6 330/1/6 333/1/6
f 330/1/6 331/1/6 333/1/6
f 333/1/6 331/1/6 334/1/6
f 329/1/6 333/1/6 337/1/6
f 335/1/6 336/1/6 340/1/6
f 337/1/6 338/1/6 341/1/6
f 329/1/6 337/1/6 341/1/6
f 341/1/6 338/1/6 342/1/6
f 342/1/6 338/1/6 343/1/6
f 339/1/6 340/1/6 344/1/6
f 340/1/6 336/1/6 345/1/6
f 344/1/6 340/1/6 345/1/6
f 345/1/6 336/1/6 346/1/6
f 342/1/6 343/1/6 347/1/6
f 343/1/6 344/1/6 347/1/6
f 344/1/6 345/1/6 347/1/6
f 347/1/6 345/1/6 348/1/6
f 349/1/6 350/1/6 352/1/6
f 352/1/6 350/1/6 353/1/6
f 353/1/6 350/1/6 354/1/6
f 351/1/6 352/1/6 355/1/6
f 352/1/6 353/1/6 355/1/6
f 355/1/6 353/1/6 356/1/6
f 351/1/6 355/1/6 359/1/6
f 357/1/6 358/1/6 362/1/6
f 359/1/6 360/1/6 363/1/6
f 351/1/6 359/1/6 363/1/6
f 363/1/6 360/1/6 364/1/6
f 364/1/6 360/1/6 365/1/6
f 361/1/6 362/1/6 366/1/6
f 362/1/6 358/1/6 367/1/6
f 366/1/6 362/1/6 367/1/6
f 367/1/6 358/1/6 368/1/6
f 364/1/6 365/1/6 369/1/6
f 365/1/6 366/1/6 369/1/6
f 366/1/6 367/1/6 369/1/6
f 369/1/6 367/1/6 370/1/6
f 371/1/6 372/1/6 374/1/6
f 374/1/6 372/1/6 375/1/6
f 375/1/6 372/1/6 376/1/6
f 373/1/6 374/1/6 377/1/6
f 374/1/6 375/1/6 377/1/6
f 377/1/6 375/1/6 378/1/6
f 373/1/6 377/1/6 381/1/6
f 379/1/6 380/1/6 384/1/6
f 381/1/6 382/1/6 385/1/6
f 373/1/6 381/1/6 385/1/6
f 385/1/6 382/1/6 386/1/6
f 386/1/6 382/1/6 387/1/6
f 383/1/6 384/1/6 388/1/6
f 384/1/6 380/1/6 389/1/6
f 388/1/6 384/1/6 389/1/6
f 389/1/6 380/1/6 390/1/6
f 386/1/6 387/1/6 391/1/6
f 387/1/6 388/1/6 391/1/6
f 388/1/6 389/1/6 391/1/6
f 391/1/6 389/1/6 392/1/6
f 393/1/6 394/1/6 396/1/6
f 396/1/6 394/1/6 397/1/6
f 395/1/6 396/1/6 400/1/6
f 400/1/6 396/1/6 401/1/6
f 398/1/6 399/1/6 402/1/6
f 402/1/6 399/1/6 403/1/6
f 401/1/6 402/1/6 404/1/6
f 404/1/6 402/1/6 405/1/6
f 406/1/6 407/1/6 408/1/6
f 408/1/6 407/1/6 409/1/6
f 409/1/6 407/1/6 410/1/6
f 410/1/6 407/1/6 411/1/6
f 412/1/6 413/1/6 414/1/6
f 414/1/6 413/1/6 415/1/6
f 412/1/6 414/1/6 416/1/6
f 416/1/6 414/1/6 417/1/6
f 415/1/6 413/1/6 418/1/6
f 418/1/6 413/1/6 419/1/6
f 420/1/6 421/1/6 422/1/6
f 422/1/6 421/1/6 423/1/6
f 423/1/6 421/1/6 424/1/6
f 424/1/6 421/1/6 425/1/6
f 426/1/6 427/1/6 428/1/6
f 428/1/6 427/1/6 429/1/6
