# MagicaVoxel @ Ephtracy

# group
o 

# material
mtllib MoveTuto-0.mtl
usemtl palette

# normals
vn -1 0 0
vn 1 0 0
vn 0 0 1
vn 0 0 -1
vn 0 -1 0
vn 0 1 0

# texcoords
vt 0.0683594 0.5
vt 0.955078 0.5

# verts
v -1 1.8 0.1
v -1 1.8 -0.1
v -1 2 0.1
v -1 2 -0.1
v -0.9 1.6 0.1
v -0.9 1.6 -0.1
v -0.9 1.8 0.1
v -0.9 1.8 -0.1
v -0.8 1.4 0.1
v -0.8 1.4 -0.1
v -0.8 1.6 0.1
v -0.8 1.6 -0.1
v -0.7 1.2 0.1
v -0.7 1.2 -0.1
v -0.7 1.4 0.1
v -0.7 1.4 -0.1
v -0.6 1 0.1
v -0.6 1 -0.1
v -0.6 1.2 0.1
v -0.6 1.2 -0.1
v -0.5 0.8 0.1
v -0.5 0.8 -0.1
v -0.5 1 0.1
v -0.5 1 -0.1
v -0.4 0.6 0.1
v -0.4 0.6 -0.1
v -0.4 0.8 0.1
v -0.4 0.8 -0.1
v -0.3 0.4 0.1
v -0.3 0.4 -0.1
v -0.3 0.6 0.1
v -0.3 0.6 -0.1
v -0.2 0.2 0.1
v -0.2 0.2 -0.1
v -0.2 0.4 0.1
v -0.2 0.4 -0.1
v -0.1 0 0.1
v -0.1 0 -0.1
v -0.1 0.2 0.1
v -0.1 0.2 -0.1
v 0.1 1.5 0.1
v 0.1 1.5 -0.1
v 0.1 1.6 0.1
v 0.1 1.6 -0.1
v 0.3 1.6 0.1
v 0.3 1.6 -0.1
v 0.3 1.7 0.1
v 0.3 1.7 -0.1
v 0.4 1.7 0.1
v 0.4 1.7 -0.1
v 0.4 1.8 0.1
v 0.4 1.8 -0.1
v 0.6 1.8 0.1
v 0.6 1.8 -0.1
v 0.6 1.9 0.1
v 0.6 1.9 -0.1
v 0.8 1.9 0.1
v 0.8 1.9 -0.1
v 0.8 2 0.1
v 0.8 2 -0.1
v -0.8 1.9 0.1
v -0.8 1.9 -0.1
v -0.8 2 0.1
v -0.8 2 -0.1
v -0.6 1.8 0.1
v -0.6 1.8 -0.1
v -0.6 1.9 0.1
v -0.6 1.9 -0.1
v -0.4 1.7 0.1
v -0.4 1.7 -0.1
v -0.4 1.8 0.1
v -0.4 1.8 -0.1
v -0.3 1.6 0.1
v -0.3 1.6 -0.1
v -0.3 1.7 0.1
v -0.3 1.7 -0.1
v -0.1 1.5 0.1
v -0.1 1.5 -0.1
v -0.1 1.6 0.1
v -0.1 1.6 -0.1
v 0.1 0 0.1
v 0.1 0 -0.1
v 0.1 0.2 0.1
v 0.1 0.2 -0.1
v 0.2 0.2 0.1
v 0.2 0.2 -0.1
v 0.2 0.4 0.1
v 0.2 0.4 -0.1
v 0.3 0.4 0.1
v 0.3 0.4 -0.1
v 0.3 0.6 0.1
v 0.3 0.6 -0.1
v 0.4 0.6 0.1
v 0.4 0.6 -0.1
v 0.4 0.8 0.1
v 0.4 0.8 -0.1
v 0.5 0.8 0.1
v 0.5 0.8 -0.1
v 0.5 1 0.1
v 0.5 1 -0.1
v 0.6 1 0.1
v 0.6 1 -0.1
v 0.6 1.2 0.1
v 0.6 1.2 -0.1
v 0.7 1.2 0.1
v 0.7 1.2 -0.1
v 0.7 1.4 0.1
v 0.7 1.4 -0.1
v 0.8 1.4 0.1
v 0.8 1.4 -0.1
v 0.8 1.6 0.1
v 0.8 1.6 -0.1
v 0.9 1.6 0.1
v 0.9 1.6 -0.1
v 0.9 1.8 0.1
v 0.9 1.8 -0.1
v 1 1.8 0.1
v 1 1.8 -0.1
v 1 2 0.1
v 1 2 -0.1
v -1 1.8 0.1
v -1 2 0.1
v -0.9 1.6 0.1
v -0.9 1.8 0.1
v -0.9 1.9 0.1
v -0.8 1.4 0.1
v -0.8 1.6 0.1
v -0.8 1.8 0.1
v -0.8 1.9 0.1
v -0.8 2 0.1
v -0.7 1.2 0.1
v -0.7 1.4 0.1
v -0.7 1.6 0.1
v -0.6 1 0.1
v -0.6 1.2 0.1
v -0.6 1.4 0.1
v -0.6 1.7 0.1
v -0.6 1.8 0.1
v -0.6 1.9 0.1
v -0.5 0.8 0.1
v -0.5 1 0.1
v -0.5 1.2 0.1
v -0.4 0.6 0.1
v -0.4 0.8 0.1
v -0.4 1 0.1
v -0.4 1.6 0.1
v -0.4 1.7 0.1
v -0.4 1.8 0.1
v -0.3 0.4 0.1
v -0.3 0.6 0.1
v -0.3 0.8 0.1
v -0.3 1.5 0.1
v -0.3 1.6 0.1
v -0.3 1.7 0.1
v -0.2 0.2 0.1
v -0.2 0.4 0.1
v -0.2 0.6 0.1
v -0.1 0 0.1
v -0.1 0.2 0.1
v -0.1 0.4 0.1
v -0.1 1.4 0.1
v -0.1 1.5 0.1
v -0.1 1.6 0.1
v 0.1 0 0.1
v 0.1 0.2 0.1
v 0.1 0.4 0.1
v 0.1 1.4 0.1
v 0.1 1.5 0.1
v 0.1 1.6 0.1
v 0.2 0.2 0.1
v 0.2 0.4 0.1
v 0.2 0.6 0.1
v 0.3 0.4 0.1
v 0.3 0.6 0.1
v 0.3 0.8 0.1
v 0.3 1.5 0.1
v 0.3 1.6 0.1
v 0.3 1.7 0.1
v 0.4 0.6 0.1
v 0.4 0.8 0.1
v 0.4 1 0.1
v 0.4 1.6 0.1
v 0.4 1.7 0.1
v 0.4 1.8 0.1
v 0.5 0.8 0.1
v 0.5 1 0.1
v 0.5 1.2 0.1
v 0.6 1 0.1
v 0.6 1.2 0.1
v 0.6 1.4 0.1
v 0.6 1.7 0.1
v 0.6 1.8 0.1
v 0.6 1.9 0.1
v 0.7 1.2 0.1
v 0.7 1.4 0.1
v 0.7 1.6 0.1
v 0.8 1.4 0.1
v 0.8 1.6 0.1
v 0.8 1.8 0.1
v 0.8 1.9 0.1
v 0.8 2 0.1
v 0.9 1.6 0.1
v 0.9 1.8 0.1
v 0.9 1.9 0.1
v 1 1.8 0.1
v 1 2 0.1
v -1 1.8 -0.1
v -1 2 -0.1
v -0.9 1.6 -0.1
v -0.9 1.8 -0.1
v -0.9 1.9 -0.1
v -0.8 1.4 -0.1
v -0.8 1.6 -0.1
v -0.8 1.8 -0.1
v -0.8 1.9 -0.1
v -0.8 2 -0.1
v -0.7 1.2 -0.1
v -0.7 1.4 -0.1
v -0.7 1.6 -0.1
v -0.6 1 -0.1
v -0.6 1.2 -0.1
v -0.6 1.4 -0.1
v -0.6 1.7 -0.1
v -0.6 1.8 -0.1
v -0.6 1.9 -0.1
v -0.5 0.8 -0.1
v -0.5 1 -0.1
v -0.5 1.2 -0.1
v -0.4 0.6 -0.1
v -0.4 0.8 -0.1
v -0.4 1 -0.1
v -0.4 1.6 -0.1
v -0.4 1.7 -0.1
v -0.4 1.8 -0.1
v -0.3 0.4 -0.1
v -0.3 0.6 -0.1
v -0.3 0.8 -0.1
v -0.3 1.5 -0.1
v -0.3 1.6 -0.1
v -0.3 1.7 -0.1
v -0.2 0.2 -0.1
v -0.2 0.4 -0.1
v -0.2 0.6 -0.1
v -0.1 0 -0.1
v -0.1 0.2 -0.1
v -0.1 0.4 -0.1
v -0.1 1.4 -0.1
v -0.1 1.5 -0.1
v -0.1 1.6 -0.1
v 0.1 0 -0.1
v 0.1 0.2 -0.1
v 0.1 0.4 -0.1
v 0.1 1.4 -0.1
v 0.1 1.5 -0.1
v 0.1 1.6 -0.1
v 0.2 0.2 -0.1
v 0.2 0.4 -0.1
v 0.2 0.6 -0.1
v 0.3 0.4 -0.1
v 0.3 0.6 -0.1
v 0.3 0.8 -0.1
v 0.3 1.5 -0.1
v 0.3 1.6 -0.1
v 0.3 1.7 -0.1
v 0.4 0.6 -0.1
v 0.4 0.8 -0.1
v 0.4 1 -0.1
v 0.4 1.6 -0.1
v 0.4 1.7 -0.1
v 0.4 1.8 -0.1
v 0.5 0.8 -0.1
v 0.5 1 -0.1
v 0.5 1.2 -0.1
v 0.6 1 -0.1
v 0.6 1.2 -0.1
v 0.6 1.4 -0.1
v 0.6 1.7 -0.1
v 0.6 1.8 -0.1
v 0.6 1.9 -0.1
v 0.7 1.2 -0.1
v 0.7 1.4 -0.1
v 0.7 1.6 -0.1
v 0.8 1.4 -0.1
v 0.8 1.6 -0.1
v 0.8 1.8 -0.1
v 0.8 1.9 -0.1
v 0.8 2 -0.1
v 0.9 1.6 -0.1
v 0.9 1.8 -0.1
v 0.9 1.9 -0.1
v 1 1.8 -0.1
v 1 2 -0.1
v -0.1 0 0.1
v 0.1 0 0.1
v -0.1 0 -0.1
v 0.1 0 -0.1
v -0.2 0.2 0.1
v -0.1 0.2 0.1
v 0.1 0.2 0.1
v 0.2 0.2 0.1
v -0.2 0.2 -0.1
v -0.1 0.2 -0.1
v 0.1 0.2 -0.1
v 0.2 0.2 -0.1
v -0.3 0.4 0.1
v -0.2 0.4 0.1
v 0.2 0.4 0.1
v 0.3 0.4 0.1
v -0.3 0.4 -0.1
v -0.2 0.4 -0.1
v 0.2 0.4 -0.1
v 0.3 0.4 -0.1
v -0.4 0.6 0.1
v -0.3 0.6 0.1
v 0.3 0.6 0.1
v 0.4 0.6 0.1
v -0.4 0.6 -0.1
v -0.3 0.6 -0.1
v 0.3 0.6 -0.1
v 0.4 0.6 -0.1
v -0.5 0.8 0.1
v -0.4 0.8 0.1
v 0.4 0.8 0.1
v 0.5 0.8 0.1
v -0.5 0.8 -0.1
v -0.4 0.8 -0.1
v 0.4 0.8 -0.1
v 0.5 0.8 -0.1
v -0.6 1 0.1
v -0.5 1 0.1
v 0.5 1 0.1
v 0.6 1 0.1
v -0.6 1 -0.1
v -0.5 1 -0.1
v 0.5 1 -0.1
v 0.6 1 -0.1
v -0.7 1.2 0.1
v -0.6 1.2 0.1
v 0.6 1.2 0.1
v 0.7 1.2 0.1
v -0.7 1.2 -0.1
v -0.6 1.2 -0.1
v 0.6 1.2 -0.1
v 0.7 1.2 -0.1
v -0.8 1.4 0.1
v -0.7 1.4 0.1
v 0.7 1.4 0.1
v 0.8 1.4 0.1
v -0.8 1.4 -0.1
v -0.7 1.4 -0.1
v 0.7 1.4 -0.1
v 0.8 1.4 -0.1
v -0.9 1.6 0.1
v -0.8 1.6 0.1
v 0.8 1.6 0.1
v 0.9 1.6 0.1
v -0.9 1.6 -0.1
v -0.8 1.6 -0.1
v 0.8 1.6 -0.1
v 0.9 1.6 -0.1
v -1 1.8 0.1
v -0.9 1.8 0.1
v 0.9 1.8 0.1
v 1 1.8 0.1
v -1 1.8 -0.1
v -0.9 1.8 -0.1
v 0.9 1.8 -0.1
v 1 1.8 -0.1
v -0.1 1.5 0.1
v 0.1 1.5 0.1
v -0.1 1.5 -0.1
v 0.1 1.5 -0.1
v -0.3 1.6 0.1
v -0.1 1.6 0.1
v 0.1 1.6 0.1
v 0.3 1.6 0.1
v -0.3 1.6 -0.1
v -0.1 1.6 -0.1
v 0.1 1.6 -0.1
v 0.3 1.6 -0.1
v -0.4 1.7 0.1
v -0.3 1.7 0.1
v 0.3 1.7 0.1
v 0.4 1.7 0.1
v -0.4 1.7 -0.1
v -0.3 1.7 -0.1
v 0.3 1.7 -0.1
v 0.4 1.7 -0.1
v -0.6 1.8 0.1
v -0.4 1.8 0.1
v 0.4 1.8 0.1
v 0.6 1.8 0.1
v -0.6 1.8 -0.1
v -0.4 1.8 -0.1
v 0.4 1.8 -0.1
v 0.6 1.8 -0.1
v -0.8 1.9 0.1
v -0.6 1.9 0.1
v 0.6 1.9 0.1
v 0.8 1.9 0.1
v -0.8 1.9 -0.1
v -0.6 1.9 -0.1
v 0.6 1.9 -0.1
v 0.8 1.9 -0.1
v -1 2 0.1
v -0.8 2 0.1
v 0.8 2 0.1
v 1 2 0.1
v -1 2 -0.1
v -0.8 2 -0.1
v 0.8 2 -0.1
v 1 2 -0.1

# faces
f 3/2/1 2/2/1 1/2/1
f 4/2/1 2/2/1 3/2/1
f 7/2/1 6/2/1 5/2/1
f 8/2/1 6/2/1 7/2/1
f 11/2/1 10/2/1 9/2/1
f 12/2/1 10/2/1 11/2/1
f 15/2/1 14/2/1 13/2/1
f 16/2/1 14/2/1 15/2/1
f 19/2/1 18/2/1 17/2/1
f 20/2/1 18/2/1 19/2/1
f 23/2/1 22/2/1 21/2/1
f 24/2/1 22/2/1 23/2/1
f 27/2/1 26/2/1 25/2/1
f 28/2/1 26/2/1 27/2/1
f 31/2/1 30/2/1 29/2/1
f 32/2/1 30/2/1 31/2/1
f 35/2/1 34/2/1 33/2/1
f 36/2/1 34/2/1 35/2/1
f 39/2/1 38/2/1 37/2/1
f 40/2/1 38/2/1 39/2/1
f 43/2/1 42/2/1 41/2/1
f 44/2/1 42/2/1 43/2/1
f 47/2/1 46/2/1 45/2/1
f 48/2/1 46/2/1 47/2/1
f 51/2/1 50/2/1 49/2/1
f 52/2/1 50/2/1 51/2/1
f 55/2/1 54/2/1 53/2/1
f 56/2/1 54/2/1 55/2/1
f 59/2/1 58/2/1 57/2/1
f 60/2/1 58/2/1 59/2/1
f 61/2/2 62/2/2 63/2/2
f 63/2/2 62/2/2 64/2/2
f 65/2/2 66/2/2 67/2/2
f 67/2/2 66/2/2 68/2/2
f 69/2/2 70/2/2 71/2/2
f 71/2/2 70/2/2 72/2/2
f 73/2/2 74/2/2 75/2/2
f 75/2/2 74/2/2 76/2/2
f 77/2/2 78/2/2 79/2/2
f 79/2/2 78/2/2 80/2/2
f 81/2/2 82/2/2 83/2/2
f 83/2/2 82/2/2 84/2/2
f 85/2/2 86/2/2 87/2/2
f 87/2/2 86/2/2 88/2/2
f 89/2/2 90/2/2 91/2/2
f 91/2/2 90/2/2 92/2/2
f 93/2/2 94/2/2 95/2/2
f 95/2/2 94/2/2 96/2/2
f 97/2/2 98/2/2 99/2/2
f 99/2/2 98/2/2 100/2/2
f 101/2/2 102/2/2 103/2/2
f 103/2/2 102/2/2 104/2/2
f 105/2/2 106/2/2 107/2/2
f 107/2/2 106/2/2 108/2/2
f 109/2/2 110/2/2 111/2/2
f 111/2/2 110/2/2 112/2/2
f 113/2/2 114/2/2 115/2/2
f 115/2/2 114/2/2 116/2/2
f 117/2/2 118/2/2 119/2/2
f 119/2/2 118/2/2 120/2/2
f 124/2/3 122/2/3 121/2/3
f 125/2/3 122/2/3 124/2/3
f 127/2/3 124/2/3 123/2/3
f 128/1/3 125/1/3 124/1/3
f 128/2/3 124/2/3 127/2/3
f 129/2/3 122/2/3 125/2/3
f 129/1/3 125/1/3 128/1/3
f 130/2/3 122/2/3 129/2/3
f 132/2/3 127/2/3 126/2/3
f 133/1/3 128/1/3 127/1/3
f 133/2/3 127/2/3 132/2/3
f 135/2/3 132/2/3 131/2/3
f 136/1/3 133/1/3 132/1/3
f 136/2/3 132/2/3 135/2/3
f 137/1/3 128/1/3 133/1/3
f 137/1/3 133/1/3 136/1/3
f 138/2/3 129/2/3 128/2/3
f 138/1/3 128/1/3 137/1/3
f 139/2/3 129/2/3 138/2/3
f 141/2/3 135/2/3 134/2/3
f 142/1/3 136/1/3 135/1/3
f 142/1/3 137/1/3 136/1/3
f 142/2/3 135/2/3 141/2/3
f 144/2/3 141/2/3 140/2/3
f 145/1/3 142/1/3 141/1/3
f 145/2/3 141/2/3 144/2/3
f 146/1/3 137/1/3 142/1/3
f 146/1/3 142/1/3 145/1/3
f 147/2/3 138/2/3 137/2/3
f 147/1/3 137/1/3 146/1/3
f 148/2/3 138/2/3 147/2/3
f 150/2/3 144/2/3 143/2/3
f 151/1/3 145/1/3 144/1/3
f 151/1/3 146/1/3 145/1/3
f 151/2/3 144/2/3 150/2/3
f 152/1/3 146/1/3 151/1/3
f 153/2/3 147/2/3 146/2/3
f 153/1/3 146/1/3 152/1/3
f 154/2/3 147/2/3 153/2/3
f 156/2/3 150/2/3 149/2/3
f 157/1/3 152/1/3 151/1/3
f 157/1/3 151/1/3 150/1/3
f 157/2/3 150/2/3 156/2/3
f 159/2/3 156/2/3 155/2/3
f 160/1/3 157/1/3 156/1/3
f 160/2/3 156/2/3 159/2/3
f 161/1/3 152/1/3 157/1/3
f 161/1/3 157/1/3 160/1/3
f 162/2/3 153/2/3 152/2/3
f 162/1/3 152/1/3 161/1/3
f 163/2/3 153/2/3 162/2/3
f 164/2/3 159/2/3 158/2/3
f 165/1/3 160/1/3 159/1/3
f 165/2/3 159/2/3 164/2/3
f 165/1/3 161/1/3 160/1/3
f 166/1/3 161/1/3 165/1/3
f 167/2/3 162/2/3 161/2/3
f 167/1/3 161/1/3 166/1/3
f 168/2/3 162/2/3 167/2/3
f 170/2/3 166/2/3 165/2/3
f 171/1/3 168/1/3 167/1/3
f 171/2/3 166/2/3 170/2/3
f 171/1/3 167/1/3 166/1/3
f 172/1/3 168/1/3 171/1/3
f 173/2/3 172/2/3 171/2/3
f 174/1/3 168/1/3 172/1/3
f 174/2/3 172/2/3 173/2/3
f 175/1/3 168/1/3 174/1/3
f 176/2/3 169/2/3 168/2/3
f 176/1/3 168/1/3 175/1/3
f 177/2/3 169/2/3 176/2/3
f 179/2/3 175/2/3 174/2/3
f 180/1/3 177/1/3 176/1/3
f 180/2/3 175/2/3 179/2/3
f 180/1/3 176/1/3 175/1/3
f 181/1/3 177/1/3 180/1/3
f 182/2/3 178/2/3 177/2/3
f 182/1/3 177/1/3 181/1/3
f 183/2/3 178/2/3 182/2/3
f 185/2/3 181/2/3 180/2/3
f 186/1/3 183/1/3 182/1/3
f 186/2/3 181/2/3 185/2/3
f 186/1/3 182/1/3 181/1/3
f 187/1/3 183/1/3 186/1/3
f 188/2/3 187/2/3 186/2/3
f 189/1/3 183/1/3 187/1/3
f 189/2/3 187/2/3 188/2/3
f 190/1/3 183/1/3 189/1/3
f 191/2/3 184/2/3 183/2/3
f 191/1/3 183/1/3 190/1/3
f 192/2/3 184/2/3 191/2/3
f 194/2/3 190/2/3 189/2/3
f 195/1/3 192/1/3 191/1/3
f 195/2/3 190/2/3 194/2/3
f 195/1/3 191/1/3 190/1/3
f 196/1/3 192/1/3 195/1/3
f 197/2/3 196/2/3 195/2/3
f 198/1/3 192/1/3 196/1/3
f 198/2/3 196/2/3 197/2/3
f 199/2/3 193/2/3 192/2/3
f 199/1/3 192/1/3 198/1/3
f 200/2/3 193/2/3 199/2/3
f 202/2/3 199/2/3 198/2/3
f 203/1/3 200/1/3 199/1/3
f 203/2/3 199/2/3 202/2/3
f 204/2/3 201/2/3 200/2/3
f 204/1/3 200/1/3 203/1/3
f 205/2/3 204/2/3 203/2/3
f 206/2/3 201/2/3 204/2/3
f 206/2/3 204/2/3 205/2/3
f 207/2/4 208/2/4 210/2/4
f 210/2/4 208/2/4 211/2/4
f 209/2/4 210/2/4 213/2/4
f 210/1/4 211/1/4 214/1/4
f 213/2/4 210/2/4 214/2/4
f 211/2/4 208/2/4 215/2/4
f 214/1/4 211/1/4 215/1/4
f 215/2/4 208/2/4 216/2/4
f 212/2/4 213/2/4 218/2/4
f 213/1/4 214/1/4 219/1/4
f 218/2/4 213/2/4 219/2/4
f 217/2/4 218/2/4 221/2/4
f 218/1/4 219/1/4 222/1/4
f 221/2/4 218/2/4 222/2/4
f 219/1/4 214/1/4 223/1/4
f 222/1/4 219/1/4 223/1/4
f 214/2/4 215/2/4 224/2/4
f 223/1/4 214/1/4 224/1/4
f 224/2/4 215/2/4 225/2/4
f 220/2/4 221/2/4 227/2/4
f 221/1/4 222/1/4 228/1/4
f 222/1/4 223/1/4 228/1/4
f 227/2/4 221/2/4 228/2/4
f 226/2/4 227/2/4 230/2/4
f 227/1/4 228/1/4 231/1/4
f 230/2/4 227/2/4 231/2/4
f 228/1/4 223/1/4 232/1/4
f 231/1/4 228/1/4 232/1/4
f 223/2/4 224/2/4 233/2/4
f 232/1/4 223/1/4 233/1/4
f 233/2/4 224/2/4 234/2/4
f 229/2/4 230/2/4 236/2/4
f 230/1/4 231/1/4 237/1/4
f 231/1/4 232/1/4 237/1/4
f 236/2/4 230/2/4 237/2/4
f 237/1/4 232/1/4 238/1/4
f 232/2/4 233/2/4 239/2/4
f 238/1/4 232/1/4 239/1/4
f 239/2/4 233/2/4 240/2/4
f 235/2/4 236/2/4 242/2/4
f 237/1/4 238/1/4 243/1/4
f 236/1/4 237/1/4 243/1/4
f 242/2/4 236/2/4 243/2/4
f 241/2/4 242/2/4 245/2/4
f 242/1/4 243/1/4 246/1/4
f 245/2/4 242/2/4 246/2/4
f 243/1/4 238/1/4 247/1/4
f 246/1/4 243/1/4 247/1/4
f 238/2/4 239/2/4 248/2/4
f 247/1/4 238/1/4 248/1/4
f 248/2/4 239/2/4 249/2/4
f 244/2/4 245/2/4 250/2/4
f 245/1/4 246/1/4 251/1/4
f 250/2/4 245/2/4 251/2/4
f 246/1/4 247/1/4 251/1/4
f 251/1/4 247/1/4 252/1/4
f 247/2/4 248/2/4 253/2/4
f 252/1/4 247/1/4 253/1/4
f 253/2/4 248/2/4 254/2/4
f 251/2/4 252/2/4 256/2/4
f 253/1/4 254/1/4 257/1/4
f 256/2/4 252/2/4 257/2/4
f 252/1/4 253/1/4 257/1/4
f 257/1/4 254/1/4 258/1/4
f 257/2/4 258/2/4 259/2/4
f 258/1/4 254/1/4 260/1/4
f 259/2/4 258/2/4 260/2/4
f 260/1/4 254/1/4 261/1/4
f 254/2/4 255/2/4 262/2/4
f 261/1/4 254/1/4 262/1/4
f 262/2/4 255/2/4 263/2/4
f 260/2/4 261/2/4 265/2/4
f 262/1/4 263/1/4 266/1/4
f 265/2/4 261/2/4 266/2/4
f 261/1/4 262/1/4 266/1/4
f 266/1/4 263/1/4 267/1/4
f 263/2/4 264/2/4 268/2/4
f 267/1/4 263/1/4 268/1/4
f 268/2/4 264/2/4 269/2/4
f 266/2/4 267/2/4 271/2/4
f 268/1/4 269/1/4 272/1/4
f 271/2/4 267/2/4 272/2/4
f 267/1/4 268/1/4 272/1/4
f 272/1/4 269/1/4 273/1/4
f 272/2/4 273/2/4 274/2/4
f 273/1/4 269/1/4 275/1/4
f 274/2/4 273/2/4 275/2/4
f 275/1/4 269/1/4 276/1/4
f 269/2/4 270/2/4 277/2/4
f 276/1/4 269/1/4 277/1/4
f 277/2/4 270/2/4 278/2/4
f 275/2/4 276/2/4 280/2/4
f 277/1/4 278/1/4 281/1/4
f 280/2/4 276/2/4 281/2/4
f 276/1/4 277/1/4 281/1/4
f 281/1/4 278/1/4 282/1/4
f 281/2/4 282/2/4 283/2/4
f 282/1/4 278/1/4 284/1/4
f 283/2/4 282/2/4 284/2/4
f 278/2/4 279/2/4 285/2/4
f 284/1/4 278/1/4 285/1/4
f 285/2/4 279/2/4 286/2/4
f 284/2/4 285/2/4 288/2/4
f 285/1/4 286/1/4 289/1/4
f 288/2/4 285/2/4 289/2/4
f 286/2/4 287/2/4 290/2/4
f 289/1/4 286/1/4 290/1/4
f 289/2/4 290/2/4 291/2/4
f 290/2/4 287/2/4 292/2/4
f 291/2/4 290/2/4 292/2/4
f 295/2/5 294/2/5 293/2/5
f 296/2/5 294/2/5 295/2/5
f 301/2/5 298/2/5 297/2/5
f 302/2/5 298/2/5 301/2/5
f 303/2/5 300/2/5 299/2/5
f 304/2/5 300/2/5 303/2/5
f 309/2/5 306/2/5 305/2/5
f 310/2/5 306/2/5 309/2/5
f 311/2/5 308/2/5 307/2/5
f 312/2/5 308/2/5 311/2/5
f 317/2/5 314/2/5 313/2/5
f 318/2/5 314/2/5 317/2/5
f 319/2/5 316/2/5 315/2/5
f 320/2/5 316/2/5 319/2/5
f 325/2/5 322/2/5 321/2/5
f 326/2/5 322/2/5 325/2/5
f 327/2/5 324/2/5 323/2/5
f 328/2/5 324/2/5 327/2/5
f 333/2/5 330/2/5 329/2/5
f 334/2/5 330/2/5 333/2/5
f 335/2/5 332/2/5 331/2/5
f 336/2/5 332/2/5 335/2/5
f 341/2/5 338/2/5 337/2/5
f 342/2/5 338/2/5 341/2/5
f 343/2/5 340/2/5 339/2/5
f 344/2/5 340/2/5 343/2/5
f 349/2/5 346/2/5 345/2/5
f 350/2/5 346/2/5 349/2/5
f 351/2/5 348/2/5 347/2/5
f 352/2/5 348/2/5 351/2/5
f 357/2/5 354/2/5 353/2/5
f 358/2/5 354/2/5 357/2/5
f 359/2/5 356/2/5 355/2/5
f 360/2/5 356/2/5 359/2/5
f 365/2/5 362/2/5 361/2/5
f 366/2/5 362/2/5 365/2/5
f 367/2/5 364/2/5 363/2/5
f 368/2/5 364/2/5 367/2/5
f 369/2/6 370/2/6 371/2/6
f 371/2/6 370/2/6 372/2/6
f 373/2/6 374/2/6 377/2/6
f 377/2/6 374/2/6 378/2/6
f 375/2/6 376/2/6 379/2/6
f 379/2/6 376/2/6 380/2/6
f 381/2/6 382/2/6 385/2/6
f 385/2/6 382/2/6 386/2/6
f 383/2/6 384/2/6 387/2/6
f 387/2/6 384/2/6 388/2/6
f 389/2/6 390/2/6 393/2/6
f 393/2/6 390/2/6 394/2/6
f 391/2/6 392/2/6 395/2/6
f 395/2/6 392/2/6 396/2/6
f 397/2/6 398/2/6 401/2/6
f 401/2/6 398/2/6 402/2/6
f 399/2/6 400/2/6 403/2/6
f 403/2/6 400/2/6 404/2/6
f 405/2/6 406/2/6 409/2/6
f 409/2/6 406/2/6 410/2/6
f 407/2/6 408/2/6 411/2/6
f 411/2/6 408/2/6 412/2/6
