# MagicaVoxel @ Ephtracy

# group
g Hotel furnitures-1

# material
mtllib Hotel furnitures-1.mtl
usemtl palette

# normals
vn -1 0 0
vn 1 0 0
vn 0 0 1
vn 0 0 -1
vn 0 -1 0
vn 0 1 0

# texcoords
vt 0.373047 0.5
vt 0.849609 0.5
vt 0.857422 0.5

# verts
v -6 3 3.5
v -6 3 -3.5
v -6 6 3.5
v -6 6 -3.5
v -5 0 3.5
v -5 0 -1.5
v -5 1 -1.5
v -5 1 -2.5
v -5 3 3.5
v -5 3 -1.5
v -5 3 -2.5
v -5 6 -1.5
v -5 6 -3.5
v -5 8 -1.5
v -5 8 -3.5
v -4 8 -1.5
v -4 8 -3.5
v -4 10 -1.5
v -4 10 -3.5
v 3 0 3.5
v 3 0 2.5
v 3 1 3.5
v 3 1 2.5
v 3 3 3.5
v 3 3 2.5
v 3 4 2.5
v 3 4 -1.5
v 3 6 3.5
v 3 6 -1.5
v -3 0 3.5
v -3 0 2.5
v -3 1 3.5
v -3 1 2.5
v -3 3 3.5
v -3 3 2.5
v -3 4 2.5
v -3 4 -1.5
v -3 6 3.5
v -3 6 -1.5
v 4 8 -1.5
v 4 8 -3.5
v 4 10 -1.5
v 4 10 -3.5
v 5 0 3.5
v 5 0 -1.5
v 5 1 -1.5
v 5 1 -2.5
v 5 3 3.5
v 5 3 -1.5
v 5 3 -2.5
v 5 6 -1.5
v 5 6 -3.5
v 5 8 -1.5
v 5 8 -3.5
v 6 3 3.5
v 6 3 -3.5
v 6 6 3.5
v 6 6 -3.5
v -6 3 3.5
v -6 6 3.5
v -5 0 3.5
v -5 3 3.5
v -5 5 3.5
v -5 6 3.5
v -4 2 3.5
v -4 5 3.5
v -3 0 3.5
v -3 1 3.5
v -3 3 3.5
v -3 6 3.5
v 3 0 3.5
v 3 1 3.5
v 3 3 3.5
v 3 6 3.5
v 4 2 3.5
v 4 5 3.5
v 5 0 3.5
v 5 3 3.5
v 5 5 3.5
v 5 6 3.5
v 6 3 3.5
v 6 6 3.5
v -3 0 2.5
v -3 1 2.5
v -3 3 2.5
v -3 4 2.5
v 3 0 2.5
v 3 1 2.5
v 3 3 2.5
v 3 4 2.5
v -5 6 -1.5
v -5 8 -1.5
v -4 6 -1.5
v -4 8 -1.5
v -4 10 -1.5
v -3 4 -1.5
v -3 6 -1.5
v -3 8 -1.5
v -3 9 -1.5
v 3 4 -1.5
v 3 6 -1.5
v 3 8 -1.5
v 3 9 -1.5
v 4 6 -1.5
v 4 8 -1.5
v 4 10 -1.5
v 5 6 -1.5
v 5 8 -1.5
v -5 0 -1.5
v -5 1 -1.5
v 5 0 -1.5
v 5 1 -1.5
v -5 1 -2.5
v -5 3 -2.5
v 5 1 -2.5
v 5 3 -2.5
v -6 3 -3.5
v -6 6 -3.5
v -5 3 -3.5
v -5 6 -3.5
v -5 8 -3.5
v -4 6 -3.5
v -4 8 -3.5
v -4 10 -3.5
v -3 8 -3.5
v -3 9 -3.5
v 3 8 -3.5
v 3 9 -3.5
v 4 6 -3.5
v 4 8 -3.5
v 4 10 -3.5
v 5 3 -3.5
v 5 6 -3.5
v 5 8 -3.5
v 6 3 -3.5
v 6 6 -3.5
v -5 0 3.5
v -3 0 3.5
v 3 0 3.5
v 5 0 3.5
v -3 0 2.5
v 3 0 2.5
v -5 0 -1.5
v 5 0 -1.5
v -3 1 3.5
v 3 1 3.5
v -3 1 2.5
v 3 1 2.5
v -5 1 -1.5
v 5 1 -1.5
v -5 1 -2.5
v 5 1 -2.5
v -6 3 3.5
v -5 3 3.5
v 5 3 3.5
v 6 3 3.5
v -5 3 -1.5
v 5 3 -1.5
v -5 3 -2.5
v 5 3 -2.5
v -6 3 -3.5
v -5 3 -3.5
v 5 3 -3.5
v 6 3 -3.5
v -3 3 3.5
v 3 3 3.5
v -3 3 2.5
v 3 3 2.5
v -3 4 2.5
v 3 4 2.5
v -3 4 -1.5
v 3 4 -1.5
v -6 6 3.5
v -5 6 3.5
v -3 6 3.5
v 3 6 3.5
v 5 6 3.5
v 6 6 3.5
v -5 6 -1.5
v -4 6 -1.5
v -3 6 -1.5
v 3 6 -1.5
v 4 6 -1.5
v 5 6 -1.5
v -6 6 -3.5
v -5 6 -3.5
v 5 6 -3.5
v 6 6 -3.5
v -5 8 -1.5
v -4 8 -1.5
v 4 8 -1.5
v 5 8 -1.5
v -5 8 -3.5
v -4 8 -3.5
v 4 8 -3.5
v 5 8 -3.5
v -4 10 -1.5
v 4 10 -1.5
v -4 10 -3.5
v 4 10 -3.5

# faces
f 3/3/1 2/3/1 1/3/1
f 4/3/1 2/3/1 3/3/1
f 7/1/1 6/1/1 5/1/1
f 9/1/1 7/1/1 5/1/1
f 10/2/1 8/2/1 7/2/1
f 10/1/1 7/1/1 9/1/1
f 11/2/1 8/2/1 10/2/1
f 14/3/1 13/3/1 12/3/1
f 15/3/1 13/3/1 14/3/1
f 18/3/1 17/3/1 16/3/1
f 19/3/1 17/3/1 18/3/1
f 22/1/1 21/1/1 20/1/1
f 23/1/1 21/1/1 22/1/1
f 26/2/1 25/2/1 24/2/1
f 28/2/1 26/2/1 24/2/1
f 28/2/1 27/2/1 26/2/1
f 29/2/1 27/2/1 28/2/1
f 30/1/2 31/1/2 32/1/2
f 32/1/2 31/1/2 33/1/2
f 34/2/2 35/2/2 36/2/2
f 34/2/2 36/2/2 38/2/2
f 36/2/2 37/2/2 38/2/2
f 38/2/2 37/2/2 39/2/2
f 40/3/2 41/3/2 42/3/2
f 42/3/2 41/3/2 43/3/2
f 44/1/2 45/1/2 46/1/2
f 44/1/2 46/1/2 48/1/2
f 46/2/2 47/2/2 49/2/2
f 48/1/2 46/1/2 49/1/2
f 49/2/2 47/2/2 50/2/2
f 51/3/2 52/3/2 53/3/2
f 53/3/2 52/3/2 54/3/2
f 55/3/2 56/3/2 57/3/2
f 57/3/2 56/3/2 58/3/2
f 62/3/3 60/3/3 59/3/3
f 63/3/3 60/3/3 62/3/3
f 64/3/3 60/3/3 63/3/3
f 65/1/3 62/1/3 61/1/3
f 65/1/3 63/1/3 62/1/3
f 66/2/3 64/2/3 63/2/3
f 66/1/3 63/1/3 65/1/3
f 67/1/3 65/1/3 61/1/3
f 68/1/3 65/1/3 67/1/3
f 69/2/3 66/2/3 65/2/3
f 70/2/3 64/2/3 66/2/3
f 70/2/3 66/2/3 69/2/3
f 72/1/3 65/1/3 68/1/3
f 73/2/3 69/2/3 65/2/3
f 75/1/3 72/1/3 71/1/3
f 75/2/3 74/2/3 73/2/3
f 75/2/3 73/2/3 65/2/3
f 75/1/3 65/1/3 72/1/3
f 76/2/3 74/2/3 75/2/3
f 77/1/3 75/1/3 71/1/3
f 77/1/3 76/1/3 75/1/3
f 78/1/3 76/1/3 77/1/3
f 79/2/3 74/2/3 76/2/3
f 79/1/3 76/1/3 78/1/3
f 80/2/3 74/2/3 79/2/3
f 81/3/3 79/3/3 78/3/3
f 81/3/3 80/3/3 79/3/3
f 82/3/3 80/3/3 81/3/3
f 87/1/3 84/1/3 83/1/3
f 88/1/3 84/1/3 87/1/3
f 89/2/3 86/2/3 85/2/3
f 90/2/3 86/2/3 89/2/3
f 93/3/3 92/3/3 91/3/3
f 94/3/3 92/3/3 93/3/3
f 97/2/3 94/2/3 93/2/3
f 98/3/3 95/3/3 94/3/3
f 98/2/3 94/2/3 97/2/3
f 99/3/3 95/3/3 98/3/3
f 100/2/3 97/2/3 96/2/3
f 100/2/3 98/2/3 97/2/3
f 100/2/3 99/2/3 98/2/3
f 101/2/3 99/2/3 100/2/3
f 102/2/3 99/2/3 101/2/3
f 103/3/3 95/3/3 99/3/3
f 103/2/3 99/2/3 102/2/3
f 104/2/3 102/2/3 101/2/3
f 105/3/3 103/3/3 102/3/3
f 105/2/3 102/2/3 104/2/3
f 106/3/3 95/3/3 103/3/3
f 106/3/3 103/3/3 105/3/3
f 107/3/3 105/3/3 104/3/3
f 108/3/3 105/3/3 107/3/3
f 109/1/4 110/1/4 111/1/4
f 111/1/4 110/1/4 112/1/4
f 113/2/4 114/2/4 115/2/4
f 115/2/4 114/2/4 116/2/4
f 117/3/4 118/3/4 119/3/4
f 119/3/4 118/3/4 120/3/4
f 119/2/4 120/2/4 122/2/4
f 120/3/4 121/3/4 122/3/4
f 122/3/4 121/3/4 123/3/4
f 122/2/4 123/2/4 125/2/4
f 123/3/4 124/3/4 125/3/4
f 125/3/4 124/3/4 126/3/4
f 122/2/4 125/2/4 127/2/4
f 125/2/4 126/2/4 127/2/4
f 126/3/4 124/3/4 128/3/4
f 127/2/4 126/2/4 128/2/4
f 119/2/4 122/2/4 129/2/4
f 122/2/4 127/2/4 129/2/4
f 127/3/4 128/3/4 130/3/4
f 129/2/4 127/2/4 130/2/4
f 128/3/4 124/3/4 131/3/4
f 130/3/4 128/3/4 131/3/4
f 119/2/4 129/2/4 132/2/4
f 129/3/4 130/3/4 133/3/4
f 132/2/4 129/2/4 133/2/4
f 133/3/4 130/3/4 134/3/4
f 132/3/4 133/3/4 135/3/4
f 135/3/4 133/3/4 136/3/4
f 141/1/5 138/1/5 137/1/5
f 142/1/5 140/1/5 139/1/5
f 143/1/5 141/1/5 137/1/5
f 143/1/5 142/1/5 141/1/5
f 144/1/5 140/1/5 142/1/5
f 144/1/5 142/1/5 143/1/5
f 147/1/5 146/1/5 145/1/5
f 148/1/5 146/1/5 147/1/5
f 151/2/5 150/2/5 149/2/5
f 152/2/5 150/2/5 151/2/5
f 157/3/5 154/3/5 153/3/5
f 158/3/5 156/3/5 155/3/5
f 159/3/5 157/3/5 153/3/5
f 160/3/5 156/3/5 158/3/5
f 161/3/5 159/3/5 153/3/5
f 162/2/5 160/2/5 159/2/5
f 162/3/5 159/3/5 161/3/5
f 163/3/5 156/3/5 160/3/5
f 163/2/5 160/2/5 162/2/5
f 164/3/5 156/3/5 163/3/5
f 165/2/6 166/2/6 167/2/6
f 167/2/6 166/2/6 168/2/6
f 169/2/6 170/2/6 171/2/6
f 171/2/6 170/2/6 172/2/6
f 173/3/6 174/3/6 179/3/6
f 174/2/6 175/2/6 179/2/6
f 179/2/6 175/2/6 180/2/6
f 180/2/6 175/2/6 181/2/6
f 176/2/6 177/2/6 182/2/6
f 182/2/6 177/2/6 183/2/6
f 177/3/6 178/3/6 184/3/6
f 183/2/6 177/2/6 184/2/6
f 173/3/6 179/3/6 185/3/6
f 185/3/6 179/3/6 186/3/6
f 184/3/6 178/3/6 187/3/6
f 187/3/6 178/3/6 188/3/6
f 189/3/6 190/3/6 193/3/6
f 193/3/6 190/3/6 194/3/6
f 191/3/6 192/3/6 195/3/6
f 195/3/6 192/3/6 196/3/6
f 197/3/6 198/3/6 199/3/6
f 199/3/6 198/3/6 200/3/6
