# MagicaVoxel @ Ephtracy

# group
o filled

# material
mtllib Café detailed and filled-0-filled.mtl
usemtl palette

# normals
vn -1 0 0
vn 1 0 0
vn 0 0 1
vn 0 0 -1
vn 0 -1 0
vn 0 1 0

# texcoords
vt 0.0644531 0.5
vt 0.537109 0.5
vt 0.865234 0.5
vt 0.955078 0.5
vt 0.958984 0.5
vt 0.974609 0.5
vt 0.978516 0.5
vt 0.990234 0.5

# verts
v -4.9 0 5
v -4.9 0 -5
v -4.9 0.1 5
v -4.9 0.1 -5
v -4.9 5.7 5
v -4.9 5.7 -5
v -4.9 5.9 5
v -4.9 5.9 -5
v -4.8 5.9 4.9
v -4.8 5.9 -4.9
v -4.8 6.1 4.9
v -4.8 6.1 -4.9
v -4.7 6.1 4.8
v -4.7 6.1 -4.8
v -4.7 6.4 4.8
v -4.7 6.4 -4.8
v -4.6 6.4 4.7
v -4.6 6.4 -4.7
v -4.6 6.6 4.7
v -4.6 6.6 -4.7
v 1.1 0.1 5
v 1.1 0.1 4.9
v 1.1 2 5
v 1.1 2 4.9
v -0.9 0.1 5
v -0.9 0.1 4.9
v -0.9 2 5
v -0.9 2 4.9
v 4.8 6.4 4.7
v 4.8 6.4 -4.7
v 4.8 6.6 4.7
v 4.8 6.6 -4.7
v 4.9 6.1 4.8
v 4.9 6.1 -4.8
v 4.9 6.4 4.8
v 4.9 6.4 -4.8
v 5 5.9 4.9
v 5 5.9 -4.9
v 5 6.1 4.9
v 5 6.1 -4.9
v 5.1 0 5
v 5.1 0 -5
v 5.1 0.1 5
v 5.1 0.1 -5
v 5.1 5.7 5
v 5.1 5.7 -5
v 5.1 5.9 5
v 5.1 5.9 -5
v -4.9 0 5
v -4.9 0.1 5
v -4.9 5.7 5
v -4.9 5.9 5
v -2.1 3.5 5
v -2.1 4.9 5
v -2 3.6 5
v -2 4.8 5
v -1.7 3.8 5
v -1.7 4.6 5
v -1.5 3.7 5
v -1.5 3.8 5
v -1.5 4.6 5
v -1.5 4.7 5
v -1 0.1 5
v -1 2.1 5
v -1 3.7 5
v -1 3.8 5
v -1 4.6 5
v -1 4.7 5
v -0.9 0.1 5
v -0.9 2 5
v -0.8 3.7 5
v -0.8 3.8 5
v -0.7 3.8 5
v -0.7 4 5
v -0.6 3.8 5
v -0.6 4 5
v -0.6 4.2 5
v -0.5 3.7 5
v -0.5 3.8 5
v -0.5 4 5
v -0.5 4.1 5
v -0.5 4.2 5
v -0.5 4.5 5
v -0.4 4.2 5
v -0.4 4.5 5
v -0.4 4.7 5
v -0.2 4.2 5
v -0.2 4.5 5
v -0.2 4.7 5
v -0.0999999 3.7 5
v -0.0999999 3.8 5
v -0.0999999 4 5
v -0.0999999 4.1 5
v -0.0999999 4.2 5
v -0.0999999 4.5 5
v 0 3.8 5
v 0 4 5
v 0 4.2 5
v 0.0999999 3.8 5
v 0.0999999 4 5
v 0.2 3.7 5
v 0.2 3.8 5
v 0.4 3.7 5
v 0.4 3.8 5
v 0.4 4.6 5
v 0.4 4.7 5
v 0.5 3.8 5
v 0.5 4.6 5
v 0.6 3.8 5
v 0.6 4.2 5
v 0.6 4.3 5
v 0.6 4.5 5
v 0.7 3.7 5
v 0.7 3.8 5
v 0.7 4.1 5
v 0.7 4.2 5
v 0.8 4.1 5
v 0.8 4.3 5
v 1 4.4 5
v 1 4.5 5
v 1.1 0.1 5
v 1.1 2 5
v 1.1 4.4 5
v 1.1 4.7 5
v 1.2 0.1 5
v 1.2 2.1 5
v 1.2 3.7 5
v 1.2 3.8 5
v 1.2 4.6 5
v 1.2 4.7 5
v 1.3 3.8 5
v 1.3 4.6 5
v 1.4 3.8 5
v 1.4 4.2 5
v 1.4 4.3 5
v 1.4 4.6 5
v 1.6 4.1 5
v 1.6 4.2 5
v 1.7 4.1 5
v 1.7 4.3 5
v 1.8 3.8 5
v 1.8 3.9 5
v 1.8 4.5 5
v 1.8 4.6 5
v 1.9 3.9 5
v 1.9 4 5
v 1.9 4.4 5
v 1.9 4.5 5
v 2 3.7 5
v 2 4 5
v 2 4.4 5
v 2 4.7 5
v 2.3 3.6 5
v 2.3 4.8 5
v 2.4 3.5 5
v 2.4 4.9 5
v 5.1 0 5
v 5.1 0.1 5
v 5.1 5.7 5
v 5.1 5.9 5
v -4.8 5.9 4.9
v -4.8 6.1 4.9
v -0.9 0.1 4.9
v -0.9 2 4.9
v 1.1 0.1 4.9
v 1.1 2 4.9
v 5 5.9 4.9
v 5 6.1 4.9
v -4.7 6.1 4.8
v -4.7 6.4 4.8
v 4.9 6.1 4.8
v 4.9 6.4 4.8
v -4.6 6.4 4.7
v -4.6 6.6 4.7
v 4.8 6.4 4.7
v 4.8 6.6 4.7
v -4.6 6.4 -4.7
v -4.6 6.6 -4.7
v 4.8 6.4 -4.7
v 4.8 6.6 -4.7
v -4.7 6.1 -4.8
v -4.7 6.4 -4.8
v 4.9 6.1 -4.8
v 4.9 6.4 -4.8
v -4.8 5.9 -4.9
v -4.8 6.1 -4.9
v 5 5.9 -4.9
v 5 6.1 -4.9
v -4.9 0 -5
v -4.9 0.1 -5
v -4.9 5.7 -5
v -4.9 5.9 -5
v 5.1 0 -5
v 5.1 0.1 -5
v 5.1 5.7 -5
v 5.1 5.9 -5
v -4.9 0 5
v 5.1 0 5
v -4.9 0 -5
v 5.1 0 -5
v -0.9 2 5
v 1.1 2 5
v -0.9 2 4.9
v 1.1 2 4.9
v -0.9 0.1 5
v 1.1 0.1 5
v -0.9 0.1 4.9
v 1.1 0.1 4.9
v -4.9 5.9 5
v 5.1 5.9 5
v -4.8 5.9 4.9
v 5 5.9 4.9
v -4.8 5.9 -4.9
v 5 5.9 -4.9
v -4.9 5.9 -5
v 5.1 5.9 -5
v -4.8 6.1 4.9
v 5 6.1 4.9
v -4.7 6.1 4.8
v 4.9 6.1 4.8
v -4.7 6.1 -4.8
v 4.9 6.1 -4.8
v -4.8 6.1 -4.9
v 5 6.1 -4.9
v -4.7 6.4 4.8
v 4.9 6.4 4.8
v -4.6 6.4 4.7
v 4.8 6.4 4.7
v -4.6 6.4 -4.7
v 4.8 6.4 -4.7
v -4.7 6.4 -4.8
v 4.9 6.4 -4.8
v -4.6 6.6 4.7
v 4.8 6.6 4.7
v -4.6 6.6 -4.7
v 4.8 6.6 -4.7

# faces
f 3/1/1 2/1/1 1/1/1
f 4/1/1 2/1/1 3/1/1
f 5/2/1 4/2/1 3/2/1
f 6/2/1 4/2/1 5/2/1
f 7/8/1 6/8/1 5/8/1
f 8/8/1 6/8/1 7/8/1
f 11/8/1 10/8/1 9/8/1
f 12/8/1 10/8/1 11/8/1
f 15/8/1 14/8/1 13/8/1
f 16/8/1 14/8/1 15/8/1
f 19/8/1 18/8/1 17/8/1
f 20/8/1 18/8/1 19/8/1
f 23/6/1 22/6/1 21/6/1
f 24/6/1 22/6/1 23/6/1
f 25/6/2 26/6/2 27/6/2
f 27/6/2 26/6/2 28/6/2
f 29/8/2 30/8/2 31/8/2
f 31/8/2 30/8/2 32/8/2
f 33/8/2 34/8/2 35/8/2
f 35/8/2 34/8/2 36/8/2
f 37/8/2 38/8/2 39/8/2
f 39/8/2 38/8/2 40/8/2
f 41/1/2 42/1/2 43/1/2
f 43/1/2 42/1/2 44/1/2
f 43/2/2 44/2/2 45/2/2
f 45/2/2 44/2/2 46/2/2
f 45/8/2 46/8/2 47/8/2
f 47/8/2 46/8/2 48/8/2
f 53/2/3 51/2/3 50/2/3
f 54/2/3 51/2/3 53/2/3
f 55/4/3 54/4/3 53/4/3
f 56/4/3 54/4/3 55/4/3
f 57/5/3 56/5/3 55/5/3
f 58/5/3 56/5/3 57/5/3
f 59/5/3 57/5/3 55/5/3
f 60/4/3 58/4/3 57/4/3
f 60/5/3 57/5/3 59/5/3
f 61/5/3 56/5/3 58/5/3
f 61/4/3 58/4/3 60/4/3
f 62/5/3 56/5/3 61/5/3
f 63/1/3 50/1/3 49/1/3
f 63/2/3 53/2/3 50/2/3
f 64/2/3 53/2/3 63/2/3
f 65/4/3 60/4/3 59/4/3
f 65/5/3 59/5/3 55/5/3
f 66/5/3 61/5/3 60/5/3
f 66/4/3 60/4/3 65/4/3
f 67/4/3 62/4/3 61/4/3
f 67/5/3 61/5/3 66/5/3
f 68/5/3 56/5/3 62/5/3
f 68/4/3 62/4/3 67/4/3
f 69/6/3 64/6/3 63/6/3
f 69/1/3 63/1/3 49/1/3
f 70/6/3 64/6/3 69/6/3
f 71/5/3 67/5/3 66/5/3
f 71/5/3 66/5/3 65/5/3
f 71/5/3 65/5/3 55/5/3
f 71/5/3 68/5/3 67/5/3
f 72/5/3 68/5/3 71/5/3
f 73/4/3 72/4/3 71/4/3
f 73/5/3 68/5/3 72/5/3
f 74/5/3 68/5/3 73/5/3
f 75/4/3 73/4/3 71/4/3
f 75/4/3 74/4/3 73/4/3
f 76/5/3 68/5/3 74/5/3
f 76/4/3 74/4/3 75/4/3
f 77/5/3 68/5/3 76/5/3
f 78/5/3 71/5/3 55/5/3
f 78/4/3 75/4/3 71/4/3
f 79/5/3 76/5/3 75/5/3
f 79/4/3 75/4/3 78/4/3
f 80/4/3 77/4/3 76/4/3
f 80/5/3 76/5/3 79/5/3
f 81/4/3 77/4/3 80/4/3
f 82/5/3 68/5/3 77/5/3
f 82/4/3 77/4/3 81/4/3
f 83/5/3 68/5/3 82/5/3
f 84/4/3 82/4/3 81/4/3
f 84/4/3 83/4/3 82/4/3
f 85/5/3 68/5/3 83/5/3
f 85/4/3 83/4/3 84/4/3
f 86/5/3 56/5/3 68/5/3
f 86/5/3 68/5/3 85/5/3
f 87/5/3 85/5/3 84/5/3
f 87/4/3 84/4/3 81/4/3
f 88/4/3 86/4/3 85/4/3
f 88/5/3 85/5/3 87/5/3
f 89/5/3 56/5/3 86/5/3
f 89/4/3 86/4/3 88/4/3
f 90/5/3 81/5/3 80/5/3
f 90/5/3 79/5/3 78/5/3
f 90/5/3 78/5/3 55/5/3
f 90/5/3 80/5/3 79/5/3
f 91/5/3 81/5/3 90/5/3
f 92/5/3 81/5/3 91/5/3
f 93/4/3 88/4/3 87/4/3
f 93/5/3 81/5/3 92/5/3
f 93/4/3 87/4/3 81/4/3
f 94/4/3 88/4/3 93/4/3
f 95/5/3 89/5/3 88/5/3
f 95/4/3 88/4/3 94/4/3
f 96/5/3 92/5/3 91/5/3
f 96/4/3 91/4/3 90/4/3
f 97/4/3 94/4/3 93/4/3
f 97/5/3 92/5/3 96/5/3
f 97/4/3 93/4/3 92/4/3
f 98/5/3 95/5/3 94/5/3
f 98/4/3 94/4/3 97/4/3
f 99/4/3 96/4/3 90/4/3
f 99/4/3 97/4/3 96/4/3
f 100/5/3 98/5/3 97/5/3
f 100/4/3 97/4/3 99/4/3
f 101/4/3 99/4/3 90/4/3
f 101/5/3 90/5/3 55/5/3
f 102/5/3 100/5/3 99/5/3
f 102/4/3 99/4/3 101/4/3
f 103/5/3 101/5/3 55/5/3
f 103/5/3 102/5/3 101/5/3
f 104/5/3 100/5/3 102/5/3
f 104/5/3 102/5/3 103/5/3
f 105/5/3 89/5/3 95/5/3
f 105/5/3 100/5/3 104/5/3
f 105/5/3 95/5/3 98/5/3
f 105/5/3 98/5/3 100/5/3
f 106/5/3 56/5/3 89/5/3
f 106/5/3 89/5/3 105/5/3
f 107/4/3 104/4/3 103/4/3
f 107/5/3 105/5/3 104/5/3
f 108/4/3 106/4/3 105/4/3
f 108/5/3 105/5/3 107/5/3
f 109/4/3 107/4/3 103/4/3
f 109/4/3 108/4/3 107/4/3
f 110/4/3 108/4/3 109/4/3
f 111/4/3 108/4/3 110/4/3
f 112/4/3 108/4/3 111/4/3
f 113/5/3 103/5/3 55/5/3
f 113/4/3 109/4/3 103/4/3
f 114/5/3 110/5/3 109/5/3
f 114/4/3 109/4/3 113/4/3
f 115/5/3 110/5/3 114/5/3
f 116/4/3 111/4/3 110/4/3
f 116/5/3 110/5/3 115/5/3
f 117/5/3 115/5/3 114/5/3
f 117/5/3 114/5/3 113/5/3
f 117/4/3 116/4/3 115/4/3
f 118/5/3 112/5/3 111/5/3
f 118/4/3 116/4/3 117/4/3
f 118/4/3 111/4/3 116/4/3
f 119/5/3 118/5/3 117/5/3
f 119/5/3 112/5/3 118/5/3
f 120/4/3 108/4/3 112/4/3
f 120/5/3 112/5/3 119/5/3
f 121/1/3 69/1/3 49/1/3
f 122/6/3 64/6/3 70/6/3
f 123/5/3 119/5/3 117/5/3
f 123/4/3 120/4/3 119/4/3
f 124/4/3 108/4/3 120/4/3
f 124/4/3 120/4/3 123/4/3
f 124/5/3 56/5/3 106/5/3
f 124/4/3 106/4/3 108/4/3
f 125/1/3 121/1/3 49/1/3
f 125/6/3 122/6/3 121/6/3
f 126/2/3 53/2/3 64/2/3
f 126/6/3 122/6/3 125/6/3
f 126/6/3 64/6/3 122/6/3
f 127/5/3 123/5/3 117/5/3
f 127/5/3 113/5/3 55/5/3
f 127/5/3 124/5/3 123/5/3
f 127/5/3 117/5/3 113/5/3
f 128/5/3 124/5/3 127/5/3
f 129/5/3 124/5/3 128/5/3
f 130/5/3 56/5/3 124/5/3
f 130/5/3 124/5/3 129/5/3
f 131/5/3 129/5/3 128/5/3
f 131/4/3 128/4/3 127/4/3
f 132/4/3 130/4/3 129/4/3
f 132/5/3 129/5/3 131/5/3
f 133/4/3 131/4/3 127/4/3
f 133/4/3 132/4/3 131/4/3
f 134/4/3 132/4/3 133/4/3
f 135/4/3 132/4/3 134/4/3
f 136/4/3 130/4/3 132/4/3
f 136/4/3 132/4/3 135/4/3
f 137/5/3 134/5/3 133/5/3
f 138/4/3 135/4/3 134/4/3
f 138/5/3 134/5/3 137/5/3
f 139/5/3 137/5/3 133/5/3
f 139/4/3 138/4/3 137/4/3
f 140/4/3 135/4/3 138/4/3
f 140/4/3 138/4/3 139/4/3
f 140/5/3 136/5/3 135/5/3
f 141/5/3 139/5/3 133/5/3
f 141/4/3 133/4/3 127/4/3
f 141/5/3 140/5/3 139/5/3
f 142/5/3 140/5/3 141/5/3
f 143/5/3 136/5/3 140/5/3
f 143/5/3 140/5/3 142/5/3
f 144/4/3 130/4/3 136/4/3
f 144/5/3 136/5/3 143/5/3
f 145/4/3 142/4/3 141/4/3
f 145/5/3 143/5/3 142/5/3
f 146/5/3 143/5/3 145/5/3
f 147/5/3 143/5/3 146/5/3
f 148/4/3 144/4/3 143/4/3
f 148/5/3 143/5/3 147/5/3
f 149/5/3 127/5/3 55/5/3
f 149/4/3 141/4/3 127/4/3
f 149/4/3 145/4/3 141/4/3
f 149/4/3 146/4/3 145/4/3
f 150/5/3 147/5/3 146/5/3
f 150/4/3 146/4/3 149/4/3
f 151/4/3 148/4/3 147/4/3
f 151/5/3 147/5/3 150/5/3
f 152/5/3 56/5/3 130/5/3
f 152/4/3 148/4/3 151/4/3
f 152/4/3 144/4/3 148/4/3
f 152/4/3 130/4/3 144/4/3
f 153/5/3 151/5/3 150/5/3
f 153/4/3 55/4/3 53/4/3
f 153/5/3 152/5/3 151/5/3
f 153/5/3 149/5/3 55/5/3
f 153/5/3 150/5/3 149/5/3
f 154/5/3 56/5/3 152/5/3
f 154/5/3 152/5/3 153/5/3
f 154/4/3 54/4/3 56/4/3
f 155/4/3 153/4/3 53/4/3
f 155/2/3 53/2/3 126/2/3
f 155/4/3 154/4/3 153/4/3
f 155/2/3 126/2/3 125/2/3
f 156/4/3 54/4/3 154/4/3
f 156/4/3 154/4/3 155/4/3
f 156/2/3 51/2/3 54/2/3
f 157/1/3 125/1/3 49/1/3
f 158/2/3 155/2/3 125/2/3
f 158/1/3 125/1/3 157/1/3
f 158/2/3 156/2/3 155/2/3
f 159/8/3 52/8/3 51/8/3
f 159/2/3 156/2/3 158/2/3
f 159/2/3 51/2/3 156/2/3
f 160/8/3 52/8/3 159/8/3
f 165/4/3 164/4/3 163/4/3
f 166/4/3 164/4/3 165/4/3
f 167/8/3 162/8/3 161/8/3
f 168/8/3 162/8/3 167/8/3
f 171/8/3 170/8/3 169/8/3
f 172/8/3 170/8/3 171/8/3
f 175/8/3 174/8/3 173/8/3
f 176/8/3 174/8/3 175/8/3
f 177/8/4 178/8/4 179/8/4
f 179/8/4 178/8/4 180/8/4
f 181/8/4 182/8/4 183/8/4
f 183/8/4 182/8/4 184/8/4
f 185/8/4 186/8/4 187/8/4
f 187/8/4 186/8/4 188/8/4
f 189/1/4 190/1/4 193/1/4
f 190/2/4 191/2/4 194/2/4
f 193/1/4 190/1/4 194/1/4
f 191/8/4 192/8/4 195/8/4
f 194/2/4 191/2/4 195/2/4
f 195/8/4 192/8/4 196/8/4
f 199/1/5 198/1/5 197/1/5
f 200/1/5 198/1/5 199/1/5
f 203/6/5 202/6/5 201/6/5
f 204/6/5 202/6/5 203/6/5
f 205/1/6 206/1/6 207/1/6
f 207/1/6 206/1/6 208/1/6
f 209/8/6 210/8/6 211/8/6
f 211/8/6 210/8/6 212/8/6
f 209/8/6 211/8/6 213/8/6
f 212/8/6 210/8/6 214/8/6
f 209/8/6 213/8/6 215/8/6
f 213/8/6 214/8/6 215/8/6
f 214/8/6 210/8/6 216/8/6
f 215/8/6 214/8/6 216/8/6
f 217/8/6 218/8/6 219/8/6
f 219/8/6 218/8/6 220/8/6
f 217/8/6 219/8/6 221/8/6
f 220/8/6 218/8/6 222/8/6
f 217/8/6 221/8/6 223/8/6
f 221/8/6 222/8/6 223/8/6
f 222/8/6 218/8/6 224/8/6
f 223/8/6 222/8/6 224/8/6
f 225/8/6 226/8/6 227/8/6
f 227/8/6 226/8/6 228/8/6
f 225/8/6 227/8/6 229/8/6
f 228/8/6 226/8/6 230/8/6
f 225/8/6 229/8/6 231/8/6
f 229/8/6 230/8/6 231/8/6
f 230/8/6 226/8/6 232/8/6
f 231/8/6 230/8/6 232/8/6
f 233/8/6 234/8/6 235/8/6
f 235/8/6 234/8/6 236/8/6
