# MagicaVoxel @ Ephtracy

# group
g Buttons good-1

# material
mtllib Buttons good-1.mtl
usemtl palette

# normals
vn -1 0 0
vn 1 0 0
vn 0 0 1
vn 0 0 -1
vn 0 -1 0
vn 0 1 0

# texcoords
vt 0.537109 0.5
vt 0.958984 0.5

# verts
v -22.5 4 1.5
v -22.5 4 -1.5
v -22.5 7 1.5
v -22.5 7 -1.5
v -21.5 2 1.5
v -21.5 2 -1.5
v -21.5 4 1.5
v -21.5 4 -1.5
v -21.5 7 1.5
v -21.5 7 -1.5
v -21.5 9 1.5
v -21.5 9 -1.5
v -20.5 1 1.5
v -20.5 1 -1.5
v -20.5 2 1.5
v -20.5 2 -1.5
v -20.5 9 1.5
v -20.5 9 -1.5
v -20.5 10 1.5
v -20.5 10 -1.5
v -17.5 0 1.5
v -17.5 0 -1.5
v -17.5 1 1.5
v -17.5 1 -1.5
v -17.5 10 1.5
v -17.5 10 -1.5
v -17.5 11 1.5
v -17.5 11 -1.5
v -12.5 2 1.5
v -12.5 2 0.5
v -12.5 9 1.5
v -12.5 9 0.5
v -8.5 2 1.5
v -8.5 2 0.5
v -8.5 5 1.5
v -8.5 5 0.5
v -8.5 6 1.5
v -8.5 6 0.5
v -8.5 9 1.5
v -8.5 9 0.5
v -5.5 2 1.5
v -5.5 2 0.5
v -5.5 9 1.5
v -5.5 9 0.5
v 1.5 2 1.5
v 1.5 2 0.5
v 1.5 9 1.5
v 1.5 9 0.5
v 8.5 2 1.5
v 8.5 2 0.5
v 8.5 9 1.5
v 8.5 9 0.5
v 12.5 6 1.5
v 12.5 6 0.5
v 12.5 8 1.5
v 12.5 8 0.5
v 16.5 1 1.5
v 16.5 1 0.5
v 16.5 2 1.5
v 16.5 2 0.5
v 16.5 9 1.5
v 16.5 9 0.5
v 16.5 10 1.5
v 16.5 10 0.5
v 19.5 2 1.5
v 19.5 2 0.5
v 19.5 3 1.5
v 19.5 3 0.5
v 19.5 8 1.5
v 19.5 8 0.5
v 19.5 9 1.5
v 19.5 9 0.5
v 20.5 3 1.5
v 20.5 3 0.5
v 20.5 5 1.5
v 20.5 5 0.5
v 20.5 6 1.5
v 20.5 6 0.5
v 20.5 8 1.5
v 20.5 8 0.5
v 21.5 5 1.5
v 21.5 5 0.5
v 21.5 6 1.5
v 21.5 6 0.5
v -21.5 5 1.5
v -21.5 5 0.5
v -21.5 6 1.5
v -21.5 6 0.5
v -20.5 3 1.5
v -20.5 3 0.5
v -20.5 5 1.5
v -20.5 5 0.5
v -20.5 6 1.5
v -20.5 6 0.5
v -20.5 8 1.5
v -20.5 8 0.5
v -19.5 2 1.5
v -19.5 2 0.5
v -19.5 3 1.5
v -19.5 3 0.5
v -19.5 8 1.5
v -19.5 8 0.5
v -19.5 9 1.5
v -19.5 9 0.5
v -16.5 1 1.5
v -16.5 1 0.5
v -16.5 2 1.5
v -16.5 2 0.5
v -16.5 9 1.5
v -16.5 9 0.5
v -16.5 10 1.5
v -16.5 10 0.5
v -11.5 2 1.5
v -11.5 2 0.5
v -11.5 5 1.5
v -11.5 5 0.5
v -11.5 6 1.5
v -11.5 6 0.5
v -11.5 9 1.5
v -11.5 9 0.5
v -7.5 2 1.5
v -7.5 2 0.5
v -7.5 9 1.5
v -7.5 9 0.5
v -4.5 3 1.5
v -4.5 3 0.5
v -4.5 5 1.5
v -4.5 5 0.5
v -4.5 6 1.5
v -4.5 6 0.5
v -4.5 8 1.5
v -4.5 8 0.5
v -2.5 5 1.5
v -2.5 5 0.5
v -2.5 6 1.5
v -2.5 6 0.5
v -0.5 2 1.5
v -0.5 2 0.5
v -0.5 3 1.5
v -0.5 3 0.5
v -0.5 8 1.5
v -0.5 8 0.5
v -0.5 9 1.5
v -0.5 9 0.5
v 2.5 3 1.5
v 2.5 3 0.5
v 2.5 9 1.5
v 2.5 9 0.5
v 6.5 2 1.5
v 6.5 2 0.5
v 6.5 3 1.5
v 6.5 3 0.5
v 9.5 2 1.5
v 9.5 2 0.5
v 9.5 5 1.5
v 9.5 5 0.5
v 9.5 6 1.5
v 9.5 6 0.5
v 9.5 8 1.5
v 9.5 8 0.5
v 12.5 5 1.5
v 12.5 5 0.5
v 12.5 6 1.5
v 12.5 6 0.5
v 12.5 8 1.5
v 12.5 8 0.5
v 12.5 9 1.5
v 12.5 9 0.5
v 13.5 6 1.5
v 13.5 6 0.5
v 13.5 8 1.5
v 13.5 8 0.5
v 17.5 0 1.5
v 17.5 0 -1.5
v 17.5 1 1.5
v 17.5 1 -1.5
v 17.5 10 1.5
v 17.5 10 -1.5
v 17.5 11 1.5
v 17.5 11 -1.5
v 20.5 1 1.5
v 20.5 1 -1.5
v 20.5 2 1.5
v 20.5 2 -1.5
v 20.5 9 1.5
v 20.5 9 -1.5
v 20.5 10 1.5
v 20.5 10 -1.5
v 21.5 2 1.5
v 21.5 2 -1.5
v 21.5 4 1.5
v 21.5 4 -1.5
v 21.5 7 1.5
v 21.5 7 -1.5
v 21.5 9 1.5
v 21.5 9 -1.5
v 22.5 4 1.5
v 22.5 4 -1.5
v 22.5 7 1.5
v 22.5 7 -1.5
v -22.5 4 1.5
v -22.5 7 1.5
v -21.5 2 1.5
v -21.5 4 1.5
v -21.5 5 1.5
v -21.5 6 1.5
v -21.5 7 1.5
v -21.5 9 1.5
v -20.5 1 1.5
v -20.5 2 1.5
v -20.5 3 1.5
v -20.5 5 1.5
v -20.5 6 1.5
v -20.5 8 1.5
v -20.5 9 1.5
v -20.5 10 1.5
v -19.5 2 1.5
v -19.5 3 1.5
v -19.5 8 1.5
v -19.5 9 1.5
v -17.5 0 1.5
v -17.5 1 1.5
v -17.5 10 1.5
v -17.5 11 1.5
v -16.5 1 1.5
v -16.5 2 1.5
v -16.5 9 1.5
v -16.5 10 1.5
v -12.5 2 1.5
v -12.5 9 1.5
v -11.5 2 1.5
v -11.5 5 1.5
v -11.5 6 1.5
v -11.5 9 1.5
v -8.5 2 1.5
v -8.5 5 1.5
v -8.5 6 1.5
v -8.5 9 1.5
v -7.5 2 1.5
v -7.5 9 1.5
v -5.5 2 1.5
v -5.5 9 1.5
v -4.5 3 1.5
v -4.5 5 1.5
v -4.5 6 1.5
v -4.5 8 1.5
v -2.5 5 1.5
v -2.5 6 1.5
v -0.5 2 1.5
v -0.5 3 1.5
v -0.5 8 1.5
v -0.5 9 1.5
v 1.5 2 1.5
v 1.5 9 1.5
v 2.5 3 1.5
v 2.5 9 1.5
v 6.5 2 1.5
v 6.5 3 1.5
v 8.5 2 1.5
v 8.5 9 1.5
v 9.5 2 1.5
v 9.5 5 1.5
v 9.5 6 1.5
v 9.5 8 1.5
v 12.5 5 1.5
v 12.5 6 1.5
v 12.5 8 1.5
v 12.5 9 1.5
v 13.5 6 1.5
v 13.5 8 1.5
v 16.5 1 1.5
v 16.5 2 1.5
v 16.5 9 1.5
v 16.5 10 1.5
v 17.5 0 1.5
v 17.5 1 1.5
v 17.5 10 1.5
v 17.5 11 1.5
v 19.5 2 1.5
v 19.5 3 1.5
v 19.5 8 1.5
v 19.5 9 1.5
v 20.5 1 1.5
v 20.5 2 1.5
v 20.5 3 1.5
v 20.5 5 1.5
v 20.5 6 1.5
v 20.5 8 1.5
v 20.5 9 1.5
v 20.5 10 1.5
v 21.5 2 1.5
v 21.5 4 1.5
v 21.5 5 1.5
v 21.5 6 1.5
v 21.5 7 1.5
v 21.5 9 1.5
v 22.5 4 1.5
v 22.5 7 1.5
v -21.5 5 0.5
v -21.5 6 0.5
v -20.5 3 0.5
v -20.5 5 0.5
v -20.5 6 0.5
v -20.5 8 0.5
v -19.5 2 0.5
v -19.5 3 0.5
v -19.5 8 0.5
v -19.5 9 0.5
v -16.5 1 0.5
v -16.5 2 0.5
v -16.5 9 0.5
v -16.5 10 0.5
v -12.5 2 0.5
v -12.5 9 0.5
v -11.5 2 0.5
v -11.5 5 0.5
v -11.5 6 0.5
v -11.5 9 0.5
v -8.5 2 0.5
v -8.5 5 0.5
v -8.5 6 0.5
v -8.5 9 0.5
v -7.5 2 0.5
v -7.5 9 0.5
v -5.5 2 0.5
v -5.5 9 0.5
v -4.5 3 0.5
v -4.5 5 0.5
v -4.5 6 0.5
v -4.5 8 0.5
v -2.5 5 0.5
v -2.5 6 0.5
v -0.5 2 0.5
v -0.5 3 0.5
v -0.5 8 0.5
v -0.5 9 0.5
v 1.5 2 0.5
v 1.5 9 0.5
v 2.5 3 0.5
v 2.5 9 0.5
v 6.5 2 0.5
v 6.5 3 0.5
v 8.5 2 0.5
v 8.5 9 0.5
v 9.5 2 0.5
v 9.5 5 0.5
v 9.5 6 0.5
v 9.5 8 0.5
v 12.5 5 0.5
v 12.5 6 0.5
v 12.5 8 0.5
v 12.5 9 0.5
v 13.5 6 0.5
v 13.5 8 0.5
v 16.5 1 0.5
v 16.5 2 0.5
v 16.5 9 0.5
v 16.5 10 0.5
v 19.5 2 0.5
v 19.5 3 0.5
v 19.5 8 0.5
v 19.5 9 0.5
v 20.5 3 0.5
v 20.5 5 0.5
v 20.5 6 0.5
v 20.5 8 0.5
v 21.5 5 0.5
v 21.5 6 0.5
v -22.5 4 -1.5
v -22.5 7 -1.5
v -21.5 2 -1.5
v -21.5 4 -1.5
v -21.5 7 -1.5
v -21.5 9 -1.5
v -20.5 1 -1.5
v -20.5 2 -1.5
v -20.5 9 -1.5
v -20.5 10 -1.5
v -17.5 0 -1.5
v -17.5 1 -1.5
v -17.5 10 -1.5
v -17.5 11 -1.5
v 17.5 0 -1.5
v 17.5 1 -1.5
v 17.5 10 -1.5
v 17.5 11 -1.5
v 20.5 1 -1.5
v 20.5 2 -1.5
v 20.5 9 -1.5
v 20.5 10 -1.5
v 21.5 2 -1.5
v 21.5 4 -1.5
v 21.5 7 -1.5
v 21.5 9 -1.5
v 22.5 4 -1.5
v 22.5 7 -1.5
v -17.5 0 1.5
v 17.5 0 1.5
v -17.5 0 -1.5
v 17.5 0 -1.5
v -20.5 1 1.5
v -17.5 1 1.5
v 17.5 1 1.5
v 20.5 1 1.5
v -20.5 1 -1.5
v -17.5 1 -1.5
v 17.5 1 -1.5
v 20.5 1 -1.5
v -21.5 2 1.5
v -20.5 2 1.5
v -12.5 2 1.5
v -11.5 2 1.5
v -8.5 2 1.5
v -7.5 2 1.5
v -5.5 2 1.5
v -0.5 2 1.5
v 1.5 2 1.5
v 6.5 2 1.5
v 8.5 2 1.5
v 9.5 2 1.5
v 20.5 2 1.5
v 21.5 2 1.5
v -12.5 2 0.5
v -11.5 2 0.5
v -8.5 2 0.5
v -7.5 2 0.5
v -5.5 2 0.5
v -0.5 2 0.5
v 1.5 2 0.5
v 6.5 2 0.5
v 8.5 2 0.5
v 9.5 2 0.5
v -21.5 2 -1.5
v -20.5 2 -1.5
v 20.5 2 -1.5
v 21.5 2 -1.5
v -22.5 4 1.5
v -21.5 4 1.5
v 21.5 4 1.5
v 22.5 4 1.5
v -22.5 4 -1.5
v -21.5 4 -1.5
v 21.5 4 -1.5
v 22.5 4 -1.5
v -11.5 5 1.5
v -8.5 5 1.5
v -4.5 5 1.5
v -2.5 5 1.5
v 9.5 5 1.5
v 12.5 5 1.5
v -11.5 5 0.5
v -8.5 5 0.5
v -4.5 5 0.5
v -2.5 5 0.5
v 9.5 5 0.5
v 12.5 5 0.5
v -21.5 6 1.5
v -20.5 6 1.5
v 12.5 6 1.5
v 13.5 6 1.5
v 20.5 6 1.5
v 21.5 6 1.5
v -21.5 6 0.5
v -20.5 6 0.5
v 12.5 6 0.5
v 13.5 6 0.5
v 20.5 6 0.5
v 21.5 6 0.5
v -20.5 8 1.5
v -19.5 8 1.5
v -4.5 8 1.5
v -0.5 8 1.5
v 9.5 8 1.5
v 12.5 8 1.5
v 19.5 8 1.5
v 20.5 8 1.5
v -20.5 8 0.5
v -19.5 8 0.5
v -4.5 8 0.5
v -0.5 8 0.5
v 9.5 8 0.5
v 12.5 8 0.5
v 19.5 8 0.5
v 20.5 8 0.5
v -19.5 9 1.5
v -16.5 9 1.5
v 16.5 9 1.5
v 19.5 9 1.5
v -19.5 9 0.5
v -16.5 9 0.5
v 16.5 9 0.5
v 19.5 9 0.5
v -16.5 10 1.5
v 16.5 10 1.5
v -16.5 10 0.5
v 16.5 10 0.5
v -16.5 1 1.5
v 16.5 1 1.5
v -16.5 1 0.5
v 16.5 1 0.5
v -19.5 2 1.5
v -16.5 2 1.5
v 16.5 2 1.5
v 19.5 2 1.5
v -19.5 2 0.5
v -16.5 2 0.5
v 16.5 2 0.5
v 19.5 2 0.5
v -20.5 3 1.5
v -19.5 3 1.5
v -4.5 3 1.5
v -0.5 3 1.5
v 2.5 3 1.5
v 6.5 3 1.5
v 19.5 3 1.5
v 20.5 3 1.5
v -20.5 3 0.5
v -19.5 3 0.5
v -4.5 3 0.5
v -0.5 3 0.5
v 2.5 3 0.5
v 6.5 3 0.5
v 19.5 3 0.5
v 20.5 3 0.5
v -21.5 5 1.5
v -20.5 5 1.5
v 20.5 5 1.5
v 21.5 5 1.5
v -21.5 5 0.5
v -20.5 5 0.5
v 20.5 5 0.5
v 21.5 5 0.5
v -11.5 6 1.5
v -8.5 6 1.5
v -4.5 6 1.5
v -2.5 6 1.5
v 9.5 6 1.5
v 12.5 6 1.5
v -11.5 6 0.5
v -8.5 6 0.5
v -4.5 6 0.5
v -2.5 6 0.5
v 9.5 6 0.5
v 12.5 6 0.5
v -22.5 7 1.5
v -21.5 7 1.5
v 21.5 7 1.5
v 22.5 7 1.5
v -22.5 7 -1.5
v -21.5 7 -1.5
v 21.5 7 -1.5
v 22.5 7 -1.5
v 12.5 8 1.5
v 13.5 8 1.5
v 12.5 8 0.5
v 13.5 8 0.5
v -21.5 9 1.5
v -20.5 9 1.5
v -12.5 9 1.5
v -11.5 9 1.5
v -8.5 9 1.5
v -7.5 9 1.5
v -5.5 9 1.5
v -0.5 9 1.5
v 1.5 9 1.5
v 2.5 9 1.5
v 8.5 9 1.5
v 12.5 9 1.5
v 20.5 9 1.5
v 21.5 9 1.5
v -12.5 9 0.5
v -11.5 9 0.5
v -8.5 9 0.5
v -7.5 9 0.5
v -5.5 9 0.5
v -0.5 9 0.5
v 1.5 9 0.5
v 2.5 9 0.5
v 8.5 9 0.5
v 12.5 9 0.5
v -21.5 9 -1.5
v -20.5 9 -1.5
v 20.5 9 -1.5
v 21.5 9 -1.5
v -20.5 10 1.5
v -17.5 10 1.5
v 17.5 10 1.5
v 20.5 10 1.5
v -20.5 10 -1.5
v -17.5 10 -1.5
v 17.5 10 -1.5
v 20.5 10 -1.5
v -17.5 11 1.5
v 17.5 11 1.5
v -17.5 11 -1.5
v 17.5 11 -1.5

# faces
f 3/1/1 2/1/1 1/1/1
f 4/1/1 2/1/1 3/1/1
f 7/1/1 6/1/1 5/1/1
f 8/1/1 6/1/1 7/1/1
f 11/1/1 10/1/1 9/1/1
f 12/1/1 10/1/1 11/1/1
f 15/1/1 14/1/1 13/1/1
f 16/1/1 14/1/1 15/1/1
f 19/1/1 18/1/1 17/1/1
f 20/1/1 18/1/1 19/1/1
f 23/1/1 22/1/1 21/1/1
f 24/1/1 22/1/1 23/1/1
f 27/1/1 26/1/1 25/1/1
f 28/1/1 26/1/1 27/1/1
f 31/2/1 30/2/1 29/2/1
f 32/2/1 30/2/1 31/2/1
f 35/2/1 34/2/1 33/2/1
f 36/2/1 34/2/1 35/2/1
f 39/2/1 38/2/1 37/2/1
f 40/2/1 38/2/1 39/2/1
f 43/2/1 42/2/1 41/2/1
f 44/2/1 42/2/1 43/2/1
f 47/2/1 46/2/1 45/2/1
f 48/2/1 46/2/1 47/2/1
f 51/2/1 50/2/1 49/2/1
f 52/2/1 50/2/1 51/2/1
f 55/2/1 54/2/1 53/2/1
f 56/2/1 54/2/1 55/2/1
f 59/1/1 58/1/1 57/1/1
f 60/1/1 58/1/1 59/1/1
f 63/1/1 62/1/1 61/1/1
f 64/1/1 62/1/1 63/1/1
f 67/1/1 66/1/1 65/1/1
f 68/1/1 66/1/1 67/1/1
f 71/1/1 70/1/1 69/1/1
f 72/1/1 70/1/1 71/1/1
f 75/1/1 74/1/1 73/1/1
f 76/1/1 74/1/1 75/1/1
f 79/1/1 78/1/1 77/1/1
f 80/1/1 78/1/1 79/1/1
f 83/1/1 82/1/1 81/1/1
f 84/1/1 82/1/1 83/1/1
f 85/1/2 86/1/2 87/1/2
f 87/1/2 86/1/2 88/1/2
f 89/1/2 90/1/2 91/1/2
f 91/1/2 90/1/2 92/1/2
f 93/1/2 94/1/2 95/1/2
f 95/1/2 94/1/2 96/1/2
f 97/1/2 98/1/2 99/1/2
f 99/1/2 98/1/2 100/1/2
f 101/1/2 102/1/2 103/1/2
f 103/1/2 102/1/2 104/1/2
f 105/1/2 106/1/2 107/1/2
f 107/1/2 106/1/2 108/1/2
f 109/1/2 110/1/2 111/1/2
f 111/1/2 110/1/2 112/1/2
f 113/2/2 114/2/2 115/2/2
f 115/2/2 114/2/2 116/2/2
f 117/2/2 118/2/2 119/2/2
f 119/2/2 118/2/2 120/2/2
f 121/2/2 122/2/2 123/2/2
f 123/2/2 122/2/2 124/2/2
f 125/2/2 126/2/2 127/2/2
f 127/2/2 126/2/2 128/2/2
f 129/2/2 130/2/2 131/2/2
f 131/2/2 130/2/2 132/2/2
f 133/2/2 134/2/2 135/2/2
f 135/2/2 134/2/2 136/2/2
f 137/2/2 138/2/2 139/2/2
f 139/2/2 138/2/2 140/2/2
f 141/2/2 142/2/2 143/2/2
f 143/2/2 142/2/2 144/2/2
f 145/2/2 146/2/2 147/2/2
f 147/2/2 146/2/2 148/2/2
f 149/2/2 150/2/2 151/2/2
f 151/2/2 150/2/2 152/2/2
f 153/2/2 154/2/2 155/2/2
f 155/2/2 154/2/2 156/2/2
f 157/2/2 158/2/2 159/2/2
f 159/2/2 158/2/2 160/2/2
f 161/2/2 162/2/2 163/2/2
f 163/2/2 162/2/2 164/2/2
f 165/2/2 166/2/2 167/2/2
f 167/2/2 166/2/2 168/2/2
f 169/2/2 170/2/2 171/2/2
f 171/2/2 170/2/2 172/2/2
f 173/1/2 174/1/2 175/1/2
f 175/1/2 174/1/2 176/1/2
f 177/1/2 178/1/2 179/1/2
f 179/1/2 178/1/2 180/1/2
f 181/1/2 182/1/2 183/1/2
f 183/1/2 182/1/2 184/1/2
f 185/1/2 186/1/2 187/1/2
f 187/1/2 186/1/2 188/1/2
f 189/1/2 190/1/2 191/1/2
f 191/1/2 190/1/2 192/1/2
f 193/1/2 194/1/2 195/1/2
f 195/1/2 194/1/2 196/1/2
f 197/1/2 198/1/2 199/1/2
f 199/1/2 198/1/2 200/1/2
f 204/1/3 202/1/3 201/1/3
f 205/1/3 202/1/3 204/1/3
f 206/1/3 202/1/3 205/1/3
f 207/1/3 202/1/3 206/1/3
f 210/1/3 204/1/3 203/1/3
f 210/1/3 205/1/3 204/1/3
f 211/1/3 205/1/3 210/1/3
f 212/1/3 205/1/3 211/1/3
f 213/1/3 207/1/3 206/1/3
f 213/1/3 208/1/3 207/1/3
f 214/1/3 208/1/3 213/1/3
f 215/1/3 208/1/3 214/1/3
f 217/1/3 211/1/3 210/1/3
f 217/1/3 210/1/3 209/1/3
f 218/1/3 211/1/3 217/1/3
f 219/1/3 216/1/3 215/1/3
f 219/1/3 215/1/3 214/1/3
f 220/1/3 216/1/3 219/1/3
f 222/1/3 217/1/3 209/1/3
f 223/1/3 216/1/3 220/1/3
f 225/1/3 222/1/3 221/1/3
f 225/1/3 217/1/3 222/1/3
f 226/1/3 217/1/3 225/1/3
f 227/1/3 224/1/3 223/1/3
f 227/1/3 223/1/3 220/1/3
f 228/1/3 224/1/3 227/1/3
f 231/2/3 230/2/3 229/2/3
f 232/2/3 230/2/3 231/2/3
f 233/2/3 230/2/3 232/2/3
f 234/2/3 230/2/3 233/2/3
f 236/2/3 233/2/3 232/2/3
f 237/2/3 233/2/3 236/2/3
f 239/2/3 236/2/3 235/2/3
f 239/2/3 238/2/3 237/2/3
f 239/2/3 237/2/3 236/2/3
f 240/2/3 238/2/3 239/2/3
f 243/2/3 242/2/3 241/2/3
f 244/2/3 242/2/3 243/2/3
f 245/2/3 242/2/3 244/2/3
f 246/2/3 242/2/3 245/2/3
f 247/2/3 245/2/3 244/2/3
f 248/2/3 245/2/3 247/2/3
f 249/2/3 243/2/3 241/2/3
f 250/2/3 243/2/3 249/2/3
f 251/2/3 242/2/3 246/2/3
f 252/2/3 242/2/3 251/2/3
f 255/2/3 254/2/3 253/2/3
f 256/2/3 254/2/3 255/2/3
f 257/2/3 255/2/3 253/2/3
f 258/2/3 255/2/3 257/2/3
f 261/2/3 260/2/3 259/2/3
f 262/2/3 260/2/3 261/2/3
f 263/2/3 260/2/3 262/2/3
f 264/2/3 260/2/3 263/2/3
f 265/2/3 263/2/3 262/2/3
f 266/2/3 263/2/3 265/2/3
f 267/2/3 260/2/3 264/2/3
f 268/2/3 260/2/3 267/2/3
f 269/2/3 267/2/3 266/2/3
f 270/2/3 267/2/3 269/2/3
f 271/1/3 225/1/3 221/1/3
f 274/1/3 224/1/3 228/1/3
f 275/1/3 271/1/3 221/1/3
f 275/1/3 272/1/3 271/1/3
f 276/1/3 272/1/3 275/1/3
f 277/1/3 274/1/3 273/1/3
f 277/1/3 224/1/3 274/1/3
f 278/1/3 224/1/3 277/1/3
f 279/1/3 272/1/3 276/1/3
f 282/1/3 277/1/3 273/1/3
f 283/1/3 280/1/3 279/1/3
f 283/1/3 279/1/3 276/1/3
f 284/1/3 280/1/3 283/1/3
f 285/1/3 280/1/3 284/1/3
f 288/1/3 282/1/3 281/1/3
f 289/1/3 277/1/3 282/1/3
f 289/1/3 282/1/3 288/1/3
f 290/1/3 277/1/3 289/1/3
f 291/1/3 286/1/3 285/1/3
f 291/1/3 285/1/3 284/1/3
f 292/1/3 286/1/3 291/1/3
f 293/1/3 286/1/3 292/1/3
f 294/1/3 288/1/3 287/1/3
f 294/1/3 289/1/3 288/1/3
f 295/1/3 289/1/3 294/1/3
f 296/1/3 289/1/3 295/1/3
f 297/1/3 293/1/3 292/1/3
f 297/1/3 295/1/3 294/1/3
f 297/1/3 294/1/3 293/1/3
f 298/1/3 295/1/3 297/1/3
f 302/1/3 300/1/3 299/1/3
f 303/1/3 300/1/3 302/1/3
f 306/1/3 302/1/3 301/1/3
f 306/1/3 304/1/3 303/1/3
f 306/1/3 303/1/3 302/1/3
f 307/1/3 304/1/3 306/1/3
f 310/1/3 306/1/3 305/1/3
f 310/1/3 308/1/3 307/1/3
f 310/1/3 307/1/3 306/1/3
f 311/1/3 308/1/3 310/1/3
f 313/1/3 310/1/3 309/1/3
f 313/1/3 312/1/3 311/1/3
f 313/1/3 311/1/3 310/1/3
f 314/1/3 312/1/3 313/1/3
f 315/1/3 313/1/3 309/1/3
f 318/1/3 312/1/3 314/1/3
f 319/1/3 316/1/3 315/1/3
f 319/1/3 315/1/3 309/1/3
f 320/1/3 316/1/3 319/1/3
f 321/1/3 318/1/3 317/1/3
f 322/1/3 312/1/3 318/1/3
f 322/1/3 318/1/3 321/1/3
f 323/1/3 319/1/3 309/1/3
f 324/1/3 312/1/3 322/1/3
f 325/1/3 323/1/3 309/1/3
f 325/1/3 324/1/3 323/1/3
f 326/1/3 312/1/3 324/1/3
f 326/1/3 324/1/3 325/1/3
f 331/1/3 328/1/3 327/1/3
f 332/1/3 330/1/3 329/1/3
f 333/1/3 325/1/3 309/1/3
f 334/1/3 332/1/3 331/1/3
f 334/1/3 331/1/3 327/1/3
f 335/1/3 330/1/3 332/1/3
f 335/1/3 332/1/3 334/1/3
f 336/1/3 312/1/3 326/1/3
f 337/1/3 333/1/3 309/1/3
f 337/1/3 336/1/3 335/1/3
f 337/1/3 335/1/3 334/1/3
f 337/1/3 334/1/3 333/1/3
f 338/1/3 312/1/3 336/1/3
f 338/1/3 336/1/3 337/1/3
f 340/1/3 312/1/3 338/1/3
f 341/1/3 337/1/3 309/1/3
f 342/1/3 340/1/3 339/1/3
f 343/1/3 341/1/3 309/1/3
f 343/1/3 342/1/3 341/1/3
f 344/1/3 340/1/3 342/1/3
f 344/1/3 342/1/3 343/1/3
f 344/1/3 312/1/3 340/1/3
f 345/1/3 343/1/3 309/1/3
f 349/1/3 346/1/3 345/1/3
f 350/1/3 348/1/3 347/1/3
f 351/1/3 348/1/3 350/1/3
f 352/1/3 312/1/3 344/1/3
f 353/1/3 350/1/3 349/1/3
f 354/1/3 352/1/3 351/1/3
f 355/1/3 353/1/3 349/1/3
f 355/1/3 354/1/3 353/1/3
f 355/1/3 345/1/3 309/1/3
f 355/1/3 349/1/3 345/1/3
f 356/1/3 354/1/3 355/1/3
f 357/1/3 352/1/3 354/1/3
f 357/1/3 354/1/3 356/1/3
f 357/1/3 312/1/3 352/1/3
f 358/1/3 312/1/3 357/1/3
f 359/1/3 357/1/3 356/1/3
f 360/1/3 357/1/3 359/1/3
f 361/1/3 357/1/3 360/1/3
f 362/1/3 357/1/3 361/1/3
f 363/1/3 361/1/3 360/1/3
f 364/1/3 361/1/3 363/1/3
f 365/1/3 361/1/3 364/1/3
f 366/1/3 361/1/3 365/1/3
f 367/1/3 365/1/3 364/1/3
f 368/1/3 365/1/3 367/1/3
f 369/1/4 370/1/4 372/1/4
f 372/1/4 370/1/4 373/1/4
f 371/1/4 372/1/4 376/1/4
f 373/1/4 374/1/4 376/1/4
f 372/1/4 373/1/4 376/1/4
f 376/1/4 374/1/4 377/1/4
f 375/1/4 376/1/4 380/1/4
f 377/1/4 378/1/4 380/1/4
f 376/1/4 377/1/4 380/1/4
f 380/1/4 378/1/4 381/1/4
f 379/1/4 380/1/4 383/1/4
f 381/1/4 382/1/4 383/1/4
f 380/1/4 381/1/4 383/1/4
f 383/1/4 382/1/4 384/1/4
f 384/1/4 382/1/4 385/1/4
f 385/1/4 382/1/4 386/1/4
f 384/1/4 385/1/4 387/1/4
f 387/1/4 385/1/4 388/1/4
f 388/1/4 385/1/4 389/1/4
f 389/1/4 385/1/4 390/1/4
f 388/1/4 389/1/4 391/1/4
f 391/1/4 389/1/4 392/1/4
f 392/1/4 389/1/4 393/1/4
f 393/1/4 389/1/4 394/1/4
f 392/1/4 393/1/4 395/1/4
f 395/1/4 393/1/4 396/1/4
f 399/1/5 398/1/5 397/1/5
f 400/1/5 398/1/5 399/1/5
f 405/1/5 402/1/5 401/1/5
f 406/1/5 402/1/5 405/1/5
f 407/1/5 404/1/5 403/1/5
f 408/1/5 404/1/5 407/1/5
f 423/2/5 412/2/5 411/2/5
f 424/2/5 412/2/5 423/2/5
f 425/2/5 414/2/5 413/2/5
f 426/2/5 414/2/5 425/2/5
f 427/2/5 416/2/5 415/2/5
f 428/2/5 416/2/5 427/2/5
f 429/2/5 418/2/5 417/2/5
f 430/2/5 418/2/5 429/2/5
f 431/2/5 420/2/5 419/2/5
f 432/2/5 420/2/5 431/2/5
f 433/1/5 410/1/5 409/1/5
f 434/1/5 410/1/5 433/1/5
f 435/1/5 422/1/5 421/1/5
f 436/1/5 422/1/5 435/1/5
f 441/1/5 438/1/5 437/1/5
f 442/1/5 438/1/5 441/1/5
f 443/1/5 440/1/5 439/1/5
f 444/1/5 440/1/5 443/1/5
f 451/2/5 446/2/5 445/2/5
f 452/2/5 446/2/5 451/2/5
f 453/2/5 448/2/5 447/2/5
f 454/2/5 448/2/5 453/2/5
f 455/2/5 450/2/5 449/2/5
f 456/2/5 450/2/5 455/2/5
f 463/1/5 458/1/5 457/1/5
f 464/1/5 458/1/5 463/1/5
f 465/2/5 460/2/5 459/2/5
f 466/2/5 460/2/5 465/2/5
f 467/1/5 462/1/5 461/1/5
f 468/1/5 462/1/5 467/1/5
f 477/1/5 470/1/5 469/1/5
f 478/1/5 470/1/5 477/1/5
f 479/2/5 472/2/5 471/2/5
f 480/2/5 472/2/5 479/2/5
f 481/2/5 474/2/5 473/2/5
f 482/2/5 474/2/5 481/2/5
f 483/1/5 476/1/5 475/1/5
f 484/1/5 476/1/5 483/1/5
f 489/1/5 486/1/5 485/1/5
f 490/1/5 486/1/5 489/1/5
f 491/1/5 488/1/5 487/1/5
f 492/1/5 488/1/5 491/1/5
f 495/1/5 494/1/5 493/1/5
f 496/1/5 494/1/5 495/1/5
f 497/1/6 498/1/6 499/1/6
f 499/1/6 498/1/6 500/1/6
f 501/1/6 502/1/6 505/1/6
f 505/1/6 502/1/6 506/1/6
f 503/1/6 504/1/6 507/1/6
f 507/1/6 504/1/6 508/1/6
f 509/1/6 510/1/6 517/1/6
f 517/1/6 510/1/6 518/1/6
f 511/2/6 512/2/6 519/2/6
f 519/2/6 512/2/6 520/2/6
f 513/2/6 514/2/6 521/2/6
f 521/2/6 514/2/6 522/2/6
f 515/1/6 516/1/6 523/1/6
f 523/1/6 516/1/6 524/1/6
f 525/1/6 526/1/6 529/1/6
f 529/1/6 526/1/6 530/1/6
f 527/1/6 528/1/6 531/1/6
f 531/1/6 528/1/6 532/1/6
f 533/2/6 534/2/6 539/2/6
f 539/2/6 534/2/6 540/2/6
f 535/2/6 536/2/6 541/2/6
f 541/2/6 536/2/6 542/2/6
f 537/2/6 538/2/6 543/2/6
f 543/2/6 538/2/6 544/2/6
f 545/1/6 546/1/6 549/1/6
f 549/1/6 546/1/6 550/1/6
f 547/1/6 548/1/6 551/1/6
f 551/1/6 548/1/6 552/1/6
f 553/2/6 554/2/6 555/2/6
f 555/2/6 554/2/6 556/2/6
f 559/2/6 560/2/6 571/2/6
f 571/2/6 560/2/6 572/2/6
f 561/2/6 562/2/6 573/2/6
f 573/2/6 562/2/6 574/2/6
f 563/2/6 564/2/6 575/2/6
f 575/2/6 564/2/6 576/2/6
f 565/2/6 566/2/6 577/2/6
f 577/2/6 566/2/6 578/2/6
f 567/2/6 568/2/6 579/2/6
f 579/2/6 568/2/6 580/2/6
f 557/1/6 558/1/6 581/1/6
f 581/1/6 558/1/6 582/1/6
f 569/1/6 570/1/6 583/1/6
f 583/1/6 570/1/6 584/1/6
f 585/1/6 586/1/6 589/1/6
f 589/1/6 586/1/6 590/1/6
f 587/1/6 588/1/6 591/1/6
f 591/1/6 588/1/6 592/1/6
f 593/1/6 594/1/6 595/1/6
f 595/1/6 594/1/6 596/1/6
