# MagicaVoxel @ Ephtracy

# group
g Bank-9

# material
mtllib Bank-9.mtl
usemtl palette

# normals
vn -1 0 0
vn 1 0 0
vn 0 0 1
vn 0 0 -1
vn 0 -1 0
vn 0 1 0

# texcoords
vt 0.173828 0.5
vt 0.654297 0.5

# verts
v -5 0 1
v -5 0 -1
v -5 1 1
v -5 1 -1
v -5 4 1
v -5 4 -1
v -5 5 1
v -5 5 -1
v 5 0 1
v 5 0 -0
v 5 0 -1
v 5 1 1
v 5 1 -0
v 5 4 1
v 5 4 -1
v 5 5 1
v 5 5 -1
v -5 0 1
v -5 1 1
v -5 4 1
v -5 5 1
v 5 0 1
v 5 1 1
v 5 4 1
v 5 5 1
v -5 0 -1
v -5 1 -1
v -5 4 -1
v -5 5 -1
v -4 0 -1
v -4 1 -1
v 5 0 -1
v 5 4 -1
v 5 5 -1
v -5 0 1
v 5 0 1
v -4 0 -0
v 5 0 -0
v -5 0 -1
v -4 0 -1
v 5 0 -1
v -5 5 1
v 5 5 1
v -5 5 -1
v 5 5 -1

# faces
f 3/2/1 2/2/1 1/2/1
f 4/2/1 2/2/1 3/2/1
f 5/1/1 4/1/1 3/1/1
f 6/1/1 4/1/1 5/1/1
f 7/2/1 6/2/1 5/2/1
f 8/2/1 6/2/1 7/2/1
f 9/2/2 10/2/2 12/2/2
f 10/1/2 11/1/2 13/1/2
f 12/2/2 10/2/2 13/2/2
f 12/1/2 13/1/2 14/1/2
f 13/1/2 11/1/2 15/1/2
f 14/1/2 13/1/2 15/1/2
f 14/2/2 15/2/2 16/2/2
f 16/2/2 15/2/2 17/2/2
f 22/2/3 19/2/3 18/2/3
f 23/1/3 20/1/3 19/1/3
f 23/2/3 19/2/3 22/2/3
f 24/2/3 21/2/3 20/2/3
f 24/1/3 20/1/3 23/1/3
f 25/2/3 21/2/3 24/2/3
f 26/2/4 27/2/4 30/2/4
f 27/1/4 28/1/4 31/1/4
f 30/2/4 27/2/4 31/2/4
f 30/1/4 31/1/4 32/1/4
f 28/2/4 29/2/4 33/2/4
f 32/1/4 31/1/4 33/1/4
f 31/1/4 28/1/4 33/1/4
f 33/2/4 29/2/4 34/2/4
f 37/2/5 36/2/5 35/2/5
f 38/2/5 36/2/5 37/2/5
f 39/2/5 37/2/5 35/2/5
f 40/1/5 38/1/5 37/1/5
f 40/2/5 37/2/5 39/2/5
f 41/1/5 38/1/5 40/1/5
f 42/2/6 43/2/6 44/2/6
f 44/2/6 43/2/6 45/2/6
