# MagicaVoxel @ Ephtracy

# group
o D6

# material
mtllib --11-D6.mtl
usemtl palette

# normals
vn 0 0 1
vn 0 0 -1
vn 1 0 0
vn -1 0 0
vn 0 -1 0
vn 0 1 0

# texcoords
vt 0.958984 0.5
vt 0.974609 0.5
vt 0.978516 0.5
vt 0.982422 0.5

# verts
v 10 0 5
v 5 0 5
v 10 0.1 5
v 9.4 0.1 5
v 9.3 0.1 5
v 5.7 0.1 5
v 5.6 0.1 5
v 5 0.1 5
v 10 0.2 5
v 9.4 0.2 5
v 9.3 0.2 5
v 5.7 0.2 5
v 5.6 0.2 5
v 5 0.2 5
v 10 0 0
v 7.6 0 0
v 7.4 0 0
v 5 0 0
v 10 0.1 0
v 9.4 0.1 0
v 9.3 0.1 0
v 7.6 0.1 0
v 7.4 0.1 0
v 5.7 0.1 0
v 5.6 0.1 0
v 5 0.1 0
v 10 0.2 0
v 9.4 0.2 0
v 9.3 0.2 0
v 5.7 0.2 0
v 5.6 0.2 0
v 5 0.2 0
v 10 0 5
v 10 0.1 5
v 10 0.2 5
v 10 0 0
v 10 0.1 0
v 10 0.2 0
v 5.7 0.1 5
v 5.7 0.2 5
v 5.7 0.1 0
v 5.7 0.2 0
v 9.3 0.1 5
v 9.3 0.2 5
v 9.3 0.1 0
v 9.3 0.2 0
v 5 0 5
v 5 0.1 5
v 5 0.2 5
v 5 0 0
v 5 0.1 0
v 5 0.2 0
v 10 0 5
v 10 0 0
v 7.6 0 4.5
v 7.6 0 4
v 7.6 0 3.5
v 7.6 0 3
v 7.6 0 2.5
v 7.6 0 2
v 7.6 0 1.5
v 7.6 0 1
v 7.6 0 0.5
v 7.6 0 0
v 7.4 0 4.5
v 7.4 0 4
v 7.4 0 3.5
v 7.4 0 3
v 7.4 0 2.5
v 7.4 0 2
v 7.4 0 1.5
v 7.4 0 1
v 7.4 0 0.5
v 7.4 0 0
v 5 0 5
v 5 0 0
v 9.3 0.1 5
v 9.3 0.1 0
v 7.6 0.1 4.5
v 7.6 0.1 4
v 7.6 0.1 3.5
v 7.6 0.1 3
v 7.6 0.1 2.5
v 7.6 0.1 2
v 7.6 0.1 1.5
v 7.6 0.1 1
v 7.6 0.1 0.5
v 7.6 0.1 0
v 7.4 0.1 4.5
v 7.4 0.1 4
v 7.4 0.1 3.5
v 7.4 0.1 3
v 7.4 0.1 2.5
v 7.4 0.1 2
v 7.4 0.1 1.5
v 7.4 0.1 1
v 7.4 0.1 0.5
v 7.4 0.1 0
v 5.7 0.1 5
v 5.7 0.1 0
v 10 0.2 5
v 10 0.2 0
v 9.4 0.2 5
v 9.4 0.2 0
v 9.3 0.2 5
v 9.3 0.2 0
v 5.7 0.2 5
v 5.7 0.2 0
v 5.6 0.2 5
v 5.6 0.2 0
v 5 0.2 5
v 5 0.2 0

# faces
f 3/3/1 2/3/1 1/3/1
f 4/3/1 2/3/1 3/3/1
f 5/3/1 2/3/1 4/3/1
f 6/3/1 2/3/1 5/3/1
f 7/3/1 2/3/1 6/3/1
f 8/3/1 2/3/1 7/3/1
f 9/4/1 4/4/1 3/4/1
f 10/2/1 5/2/1 4/2/1
f 10/4/1 4/4/1 9/4/1
f 11/2/1 5/2/1 10/2/1
f 12/2/1 7/2/1 6/2/1
f 13/4/1 8/4/1 7/4/1
f 13/2/1 7/2/1 12/2/1
f 14/4/1 8/4/1 13/4/1
f 15/3/2 16/3/2 19/3/2
f 19/3/2 16/3/2 20/3/2
f 20/3/2 16/3/2 21/3/2
f 16/1/2 17/1/2 22/1/2
f 21/3/2 16/3/2 22/3/2
f 17/3/2 18/3/2 23/3/2
f 22/1/2 17/1/2 23/1/2
f 23/3/2 18/3/2 24/3/2
f 24/3/2 18/3/2 25/3/2
f 25/3/2 18/3/2 26/3/2
f 19/4/2 20/4/2 27/4/2
f 20/2/2 21/2/2 28/2/2
f 27/4/2 20/4/2 28/4/2
f 28/2/2 21/2/2 29/2/2
f 24/2/2 25/2/2 30/2/2
f 25/4/2 26/4/2 31/4/2
f 30/2/2 25/2/2 31/2/2
f 31/4/2 26/4/2 32/4/2
f 36/3/3 34/3/3 33/3/3
f 37/4/3 35/4/3 34/4/3
f 37/3/3 34/3/3 36/3/3
f 38/4/3 35/4/3 37/4/3
f 41/2/3 40/2/3 39/2/3
f 42/2/3 40/2/3 41/2/3
f 43/2/4 44/2/4 45/2/4
f 45/2/4 44/2/4 46/2/4
f 47/3/4 48/3/4 50/3/4
f 48/4/4 49/4/4 51/4/4
f 50/3/4 48/3/4 51/3/4
f 51/4/4 49/4/4 52/4/4
f 55/3/5 54/3/5 53/3/5
f 56/3/5 54/3/5 55/3/5
f 57/3/5 54/3/5 56/3/5
f 58/3/5 54/3/5 57/3/5
f 59/3/5 54/3/5 58/3/5
f 60/3/5 54/3/5 59/3/5
f 61/3/5 54/3/5 60/3/5
f 62/3/5 54/3/5 61/3/5
f 63/3/5 54/3/5 62/3/5
f 64/3/5 54/3/5 63/3/5
f 65/3/5 55/3/5 53/3/5
f 65/1/5 56/1/5 55/1/5
f 66/3/5 57/3/5 56/3/5
f 66/1/5 56/1/5 65/1/5
f 67/1/5 58/1/5 57/1/5
f 67/3/5 57/3/5 66/3/5
f 68/3/5 59/3/5 58/3/5
f 68/1/5 58/1/5 67/1/5
f 69/1/5 60/1/5 59/1/5
f 69/3/5 59/3/5 68/3/5
f 70/3/5 61/3/5 60/3/5
f 70/1/5 60/1/5 69/1/5
f 71/1/5 62/1/5 61/1/5
f 71/3/5 61/3/5 70/3/5
f 72/3/5 63/3/5 62/3/5
f 72/1/5 62/1/5 71/1/5
f 73/1/5 64/1/5 63/1/5
f 73/3/5 63/3/5 72/3/5
f 74/1/5 64/1/5 73/1/5
f 75/3/5 72/3/5 71/3/5
f 75/3/5 65/3/5 53/3/5
f 75/3/5 74/3/5 73/3/5
f 75/3/5 73/3/5 72/3/5
f 75/3/5 71/3/5 70/3/5
f 75/3/5 70/3/5 69/3/5
f 75/3/5 69/3/5 68/3/5
f 75/3/5 68/3/5 67/3/5
f 75/3/5 67/3/5 66/3/5
f 75/3/5 66/3/5 65/3/5
f 76/3/5 74/3/5 75/3/5
f 77/3/6 78/3/6 79/3/6
f 79/3/6 78/3/6 80/3/6
f 80/3/6 78/3/6 81/3/6
f 81/3/6 78/3/6 82/3/6
f 82/3/6 78/3/6 83/3/6
f 83/3/6 78/3/6 84/3/6
f 84/3/6 78/3/6 85/3/6
f 85/3/6 78/3/6 86/3/6
f 86/3/6 78/3/6 87/3/6
f 87/3/6 78/3/6 88/3/6
f 77/3/6 79/3/6 89/3/6
f 79/1/6 80/1/6 89/1/6
f 80/3/6 81/3/6 90/3/6
f 89/1/6 80/1/6 90/1/6
f 81/1/6 82/1/6 91/1/6
f 90/3/6 81/3/6 91/3/6
f 82/3/6 83/3/6 92/3/6
f 91/1/6 82/1/6 92/1/6
f 83/1/6 84/1/6 93/1/6
f 92/3/6 83/3/6 93/3/6
f 84/3/6 85/3/6 94/3/6
f 93/1/6 84/1/6 94/1/6
f 85/1/6 86/1/6 95/1/6
f 94/3/6 85/3/6 95/3/6
f 86/3/6 87/3/6 96/3/6
f 95/1/6 86/1/6 96/1/6
f 87/1/6 88/1/6 97/1/6
f 96/3/6 87/3/6 97/3/6
f 97/1/6 88/1/6 98/1/6
f 95/3/6 96/3/6 99/3/6
f 77/3/6 89/3/6 99/3/6
f 97/3/6 98/3/6 99/3/6
f 96/3/6 97/3/6 99/3/6
f 94/3/6 95/3/6 99/3/6
f 93/3/6 94/3/6 99/3/6
f 92/3/6 93/3/6 99/3/6
f 91/3/6 92/3/6 99/3/6
f 90/3/6 91/3/6 99/3/6
f 89/3/6 90/3/6 99/3/6
f 99/3/6 98/3/6 100/3/6
f 101/4/6 102/4/6 103/4/6
f 103/4/6 102/4/6 104/4/6
f 103/2/6 104/2/6 105/2/6
f 105/2/6 104/2/6 106/2/6
f 107/2/6 108/2/6 109/2/6
f 109/2/6 108/2/6 110/2/6
f 109/4/6 110/4/6 111/4/6
f 111/4/6 110/4/6 112/4/6
