# MagicaVoxel @ Ephtracy

# group
o Corner 1

# material
mtllib --26-Corner 1.mtl
usemtl palette

# normals
vn -1 0 0
vn 1 0 0
vn 0 0 1
vn 0 0 -1
vn 0 -1 0
vn 0 1 0

# texcoords
vt 0.00976563 0.5
vt 0.982422 0.5

# verts
v -20 0 15
v -20 0 5
v -20 0.1 15
v -20 0.1 5
v -12 0.1 5.1
v -12 0.1 5
v -12 0.2 5.1
v -12 0.2 5
v -11.3 0.1 5.2
v -11.3 0.1 5.1
v -11.3 0.2 5.2
v -11.3 0.2 5.1
v -11.1 0.1 5.3
v -11.1 0.1 5.2
v -11.1 0.2 5.3
v -11.1 0.2 5.2
v -10.9 0.1 5.4
v -10.9 0.1 5.3
v -10.9 0.2 5.4
v -10.9 0.2 5.3
v -10.7 0.1 5.5
v -10.7 0.1 5.4
v -10.7 0.2 5.5
v -10.7 0.2 5.4
v -10.6 0.1 5.6
v -10.6 0.1 5.5
v -10.6 0.2 5.6
v -10.6 0.2 5.5
v -10.5 0.1 5.7
v -10.5 0.1 5.6
v -10.5 0.2 5.7
v -10.5 0.2 5.6
v -10.4 0.1 5.9
v -10.4 0.1 5.7
v -10.4 0.2 5.9
v -10.4 0.2 5.7
v -10.3 0.1 6.1
v -10.3 0.1 5.9
v -10.3 0.2 6.1
v -10.3 0.2 5.9
v -10.2 0.1 6.3
v -10.2 0.1 6.1
v -10.2 0.2 6.3
v -10.2 0.2 6.1
v -10.1 0.1 7
v -10.1 0.1 6.3
v -10.1 0.2 7
v -10.1 0.2 6.3
v -10 0 15
v -10 0 5
v -10 0.1 15
v -10 0.1 7
v -10 0.1 5
v -10 0.2 7
v -10 0.2 5
v -20 0 15
v -20 0.1 15
v -10 0 15
v -10 0.1 15
v -10.1 0.1 7
v -10.1 0.2 7
v -10 0.1 7
v -10 0.2 7
v -10.2 0.1 6.3
v -10.2 0.2 6.3
v -10.1 0.1 6.3
v -10.1 0.2 6.3
v -10.3 0.1 6.1
v -10.3 0.2 6.1
v -10.2 0.1 6.1
v -10.2 0.2 6.1
v -10.4 0.1 5.9
v -10.4 0.2 5.9
v -10.3 0.1 5.9
v -10.3 0.2 5.9
v -10.5 0.1 5.7
v -10.5 0.2 5.7
v -10.4 0.1 5.7
v -10.4 0.2 5.7
v -10.6 0.1 5.6
v -10.6 0.2 5.6
v -10.5 0.1 5.6
v -10.5 0.2 5.6
v -10.7 0.1 5.5
v -10.7 0.2 5.5
v -10.6 0.1 5.5
v -10.6 0.2 5.5
v -10.9 0.1 5.4
v -10.9 0.2 5.4
v -10.7 0.1 5.4
v -10.7 0.2 5.4
v -11.1 0.1 5.3
v -11.1 0.2 5.3
v -10.9 0.1 5.3
v -10.9 0.2 5.3
v -11.3 0.1 5.2
v -11.3 0.2 5.2
v -11.1 0.1 5.2
v -11.1 0.2 5.2
v -12 0.1 5.1
v -12 0.2 5.1
v -11.3 0.1 5.1
v -11.3 0.2 5.1
v -20 0 5
v -20 0.1 5
v -12 0.1 5
v -12 0.2 5
v -10 0 5
v -10 0.1 5
v -10 0.2 5
v -20 0 15
v -10 0 15
v -20 0 5
v -10 0 5
v -20 0.1 15
v -10 0.1 15
v -10.1 0.1 7
v -10 0.1 7
v -10.2 0.1 6.3
v -10.1 0.1 6.3
v -10.3 0.1 6.1
v -10.2 0.1 6.1
v -10.4 0.1 5.9
v -10.3 0.1 5.9
v -10.5 0.1 5.7
v -10.4 0.1 5.7
v -10.6 0.1 5.6
v -10.5 0.1 5.6
v -10.7 0.1 5.5
v -10.6 0.1 5.5
v -10.9 0.1 5.4
v -10.7 0.1 5.4
v -11.1 0.1 5.3
v -10.9 0.1 5.3
v -11.3 0.1 5.2
v -11.1 0.1 5.2
v -12 0.1 5.1
v -11.3 0.1 5.1
v -20 0.1 5
v -12 0.1 5
v -10.1 0.2 7
v -10 0.2 7
v -10.2 0.2 6.3
v -10.1 0.2 6.3
v -10.3 0.2 6.1
v -10.2 0.2 6.1
v -10.4 0.2 5.9
v -10.3 0.2 5.9
v -10.5 0.2 5.7
v -10.4 0.2 5.7
v -10.6 0.2 5.6
v -10.5 0.2 5.6
v -10.7 0.2 5.5
v -10.6 0.2 5.5
v -10.9 0.2 5.4
v -10.7 0.2 5.4
v -11.1 0.2 5.3
v -10.9 0.2 5.3
v -11.3 0.2 5.2
v -11.1 0.2 5.2
v -12 0.2 5.1
v -11.3 0.2 5.1
v -12 0.2 5
v -10 0.2 5

# faces
f 3/1/1 2/1/1 1/1/1
f 4/1/1 2/1/1 3/1/1
f 7/2/1 6/2/1 5/2/1
f 8/2/1 6/2/1 7/2/1
f 11/2/1 10/2/1 9/2/1
f 12/2/1 10/2/1 11/2/1
f 15/2/1 14/2/1 13/2/1
f 16/2/1 14/2/1 15/2/1
f 19/2/1 18/2/1 17/2/1
f 20/2/1 18/2/1 19/2/1
f 23/2/1 22/2/1 21/2/1
f 24/2/1 22/2/1 23/2/1
f 27/2/1 26/2/1 25/2/1
f 28/2/1 26/2/1 27/2/1
f 31/2/1 30/2/1 29/2/1
f 32/2/1 30/2/1 31/2/1
f 35/2/1 34/2/1 33/2/1
f 36/2/1 34/2/1 35/2/1
f 39/2/1 38/2/1 37/2/1
f 40/2/1 38/2/1 39/2/1
f 43/2/1 42/2/1 41/2/1
f 44/2/1 42/2/1 43/2/1
f 47/2/1 46/2/1 45/2/1
f 48/2/1 46/2/1 47/2/1
f 49/1/2 50/1/2 51/1/2
f 51/1/2 50/1/2 52/1/2
f 52/1/2 50/1/2 53/1/2
f 52/2/2 53/2/2 54/2/2
f 54/2/2 53/2/2 55/2/2
f 58/1/3 57/1/3 56/1/3
f 59/1/3 57/1/3 58/1/3
f 62/2/3 61/2/3 60/2/3
f 63/2/3 61/2/3 62/2/3
f 66/2/3 65/2/3 64/2/3
f 67/2/3 65/2/3 66/2/3
f 70/2/3 69/2/3 68/2/3
f 71/2/3 69/2/3 70/2/3
f 74/2/3 73/2/3 72/2/3
f 75/2/3 73/2/3 74/2/3
f 78/2/3 77/2/3 76/2/3
f 79/2/3 77/2/3 78/2/3
f 82/2/3 81/2/3 80/2/3
f 83/2/3 81/2/3 82/2/3
f 86/2/3 85/2/3 84/2/3
f 87/2/3 85/2/3 86/2/3
f 90/2/3 89/2/3 88/2/3
f 91/2/3 89/2/3 90/2/3
f 94/2/3 93/2/3 92/2/3
f 95/2/3 93/2/3 94/2/3
f 98/2/3 97/2/3 96/2/3
f 99/2/3 97/2/3 98/2/3
f 102/2/3 101/2/3 100/2/3
f 103/2/3 101/2/3 102/2/3
f 104/1/4 105/1/4 106/1/4
f 104/1/4 106/1/4 108/1/4
f 106/2/4 107/2/4 109/2/4
f 108/1/4 106/1/4 109/1/4
f 109/2/4 107/2/4 110/2/4
f 113/1/5 112/1/5 111/1/5
f 114/1/5 112/1/5 113/1/5
f 115/1/6 116/1/6 117/1/6
f 117/1/6 116/1/6 118/1/6
f 115/1/6 117/1/6 119/1/6
f 119/1/6 117/1/6 120/1/6
f 115/1/6 119/1/6 121/1/6
f 121/1/6 119/1/6 122/1/6
f 115/1/6 121/1/6 123/1/6
f 123/1/6 121/1/6 124/1/6
f 115/1/6 123/1/6 125/1/6
f 125/1/6 123/1/6 126/1/6
f 115/1/6 125/1/6 127/1/6
f 127/1/6 125/1/6 128/1/6
f 115/1/6 127/1/6 129/1/6
f 129/1/6 127/1/6 130/1/6
f 115/1/6 129/1/6 131/1/6
f 131/1/6 129/1/6 132/1/6
f 115/1/6 131/1/6 133/1/6
f 133/1/6 131/1/6 134/1/6
f 115/1/6 133/1/6 135/1/6
f 135/1/6 133/1/6 136/1/6
f 115/1/6 135/1/6 137/1/6
f 137/1/6 135/1/6 138/1/6
f 115/1/6 137/1/6 139/1/6
f 139/1/6 137/1/6 140/1/6
f 141/2/6 142/2/6 144/2/6
f 143/2/6 144/2/6 146/2/6
f 145/2/6 146/2/6 148/2/6
f 147/2/6 148/2/6 150/2/6
f 149/2/6 150/2/6 152/2/6
f 151/2/6 152/2/6 154/2/6
f 153/2/6 154/2/6 156/2/6
f 155/2/6 156/2/6 158/2/6
f 157/2/6 158/2/6 160/2/6
f 159/2/6 160/2/6 162/2/6
f 161/2/6 162/2/6 163/2/6
f 144/2/6 142/2/6 164/2/6
f 163/2/6 162/2/6 164/2/6
f 146/2/6 144/2/6 164/2/6
f 162/2/6 160/2/6 164/2/6
f 148/2/6 146/2/6 164/2/6
f 160/2/6 158/2/6 164/2/6
f 150/2/6 148/2/6 164/2/6
f 158/2/6 156/2/6 164/2/6
f 152/2/6 150/2/6 164/2/6
f 156/2/6 154/2/6 164/2/6
f 154/2/6 152/2/6 164/2/6
