# MagicaVoxel @ Ephtracy

# group
g Painting-0

# material
mtllib Painting-0.mtl
usemtl palette

# normals
vn -1 0 0
vn 1 0 0
vn 0 0 1
vn 0 0 -1
vn 0 -1 0
vn 0 1 0

# texcoords
vt 0.00976563 0.5
vt 0.0683594 0.5
vt 0.373047 0.5
vt 0.955078 0.5
vt 0.958984 0.5

# verts
v 0.5 0 15
v 0.5 0 -15
v 0.5 3 12
v 0.5 3 -12
v 0.5 10 5
v 0.5 10 -7
v 0.5 11 6
v 0.5 11 5
v 0.5 11 -4
v 0.5 11 -7
v 0.5 11 -8
v 0.5 12 7
v 0.5 12 6
v 0.5 12 5
v 0.5 12 -4
v 0.5 12 -5
v 0.5 12 -7
v 0.5 12 -8
v 0.5 12 -9
v 0.5 13 8
v 0.5 13 7
v 0.5 13 6
v 0.5 14 -5
v 0.5 14 -6
v 0.5 14 -8
v 0.5 14 -9
v 0.5 14 -10
v 0.5 15 9
v 0.5 15 8
v 0.5 15 7
v 0.5 16 5
v 0.5 16 -0
v 0.5 17 6
v 0.5 17 5
v 0.5 17 -0
v 0.5 18 7
v 0.5 18 6
v 0.5 18 5
v 0.5 18 4
v 0.5 18 1
v 0.5 19 1
v 0.5 19 -0
v 0.5 19 -5
v 0.5 19 -6
v 0.5 20 4
v 0.5 20 3
v 0.5 20 -0
v 0.5 20 -5
v 0.5 21 8
v 0.5 21 7
v 0.5 21 3
v 0.5 22 9
v 0.5 22 8
v 0.5 22 7
v 0.5 22 -8
v 0.5 22 -9
v 0.5 22 -10
v 0.5 23 6
v 0.5 23 5
v 0.5 23 3
v 0.5 23 -0
v 0.5 23 -1
v 0.5 23 -3
v 0.5 24 -7
v 0.5 24 -8
v 0.5 24 -9
v 0.5 25 8
v 0.5 25 7
v 0.5 25 6
v 0.5 25 5
v 0.5 25 3
v 0.5 25 -0
v 0.5 25 -1
v 0.5 25 -3
v 0.5 26 -5
v 0.5 26 -6
v 0.5 26 -7
v 0.5 26 -8
v 0.5 27 -4
v 0.5 27 -5
v 0.5 28 7
v 0.5 28 6
v 0.5 28 5
v 0.5 28 -3
v 0.5 28 -4
v 0.5 29 5
v 0.5 29 2
v 0.5 29 -2
v 0.5 29 -3
v 0.5 29 -5
v 0.5 29 -6
v 0.5 29 -7
v 0.5 30 6
v 0.5 30 5
v 0.5 30 4
v 0.5 30 3
v 0.5 30 2
v 0.5 30 -2
v 0.5 30 -3
v 0.5 31 5
v 0.5 31 4
v 0.5 31 3
v 0.5 31 2
v 0.5 31 -2
v 0.5 31 -3
v 0.5 31 -5
v 0.5 31 -6
v 0.5 32 4
v 0.5 32 3
v 0.5 32 -3
v 0.5 32 -5
v 0.5 37 12
v 0.5 37 -12
v 0.5 40 15
v 0.5 40 -15
v 1.5 1 14
v 1.5 1 -14
v 1.5 2 13
v 1.5 2 -13
v 1.5 3 12
v 1.5 3 -12
v 1.5 10 5
v 1.5 10 -7
v 1.5 11 6
v 1.5 11 5
v 1.5 11 -4
v 1.5 11 -7
v 1.5 11 -8
v 1.5 12 7
v 1.5 12 6
v 1.5 12 5
v 1.5 12 -4
v 1.5 12 -5
v 1.5 12 -7
v 1.5 12 -8
v 1.5 12 -9
v 1.5 13 8
v 1.5 13 7
v 1.5 13 6
v 1.5 14 -5
v 1.5 14 -6
v 1.5 14 -8
v 1.5 14 -9
v 1.5 14 -10
v 1.5 15 9
v 1.5 15 8
v 1.5 15 7
v 1.5 16 5
v 1.5 16 -0
v 1.5 17 6
v 1.5 17 5
v 1.5 17 -0
v 1.5 18 7
v 1.5 18 6
v 1.5 18 5
v 1.5 18 4
v 1.5 18 1
v 1.5 19 1
v 1.5 19 -0
v 1.5 19 -5
v 1.5 19 -6
v 1.5 20 4
v 1.5 20 3
v 1.5 20 -0
v 1.5 20 -5
v 1.5 21 8
v 1.5 21 7
v 1.5 21 3
v 1.5 22 9
v 1.5 22 8
v 1.5 22 7
v 1.5 22 -8
v 1.5 22 -9
v 1.5 22 -10
v 1.5 23 6
v 1.5 23 5
v 1.5 23 3
v 1.5 23 -0
v 1.5 23 -1
v 1.5 23 -3
v 1.5 24 -7
v 1.5 24 -8
v 1.5 24 -9
v 1.5 25 8
v 1.5 25 7
v 1.5 25 6
v 1.5 25 5
v 1.5 25 3
v 1.5 25 -0
v 1.5 25 -1
v 1.5 25 -3
v 1.5 26 -5
v 1.5 26 -6
v 1.5 26 -7
v 1.5 26 -8
v 1.5 27 -4
v 1.5 27 -5
v 1.5 28 7
v 1.5 28 6
v 1.5 28 5
v 1.5 28 -3
v 1.5 28 -4
v 1.5 29 5
v 1.5 29 2
v 1.5 29 -2
v 1.5 29 -3
v 1.5 29 -5
v 1.5 29 -6
v 1.5 29 -7
v 1.5 30 6
v 1.5 30 5
v 1.5 30 4
v 1.5 30 3
v 1.5 30 2
v 1.5 30 -2
v 1.5 30 -3
v 1.5 31 5
v 1.5 31 4
v 1.5 31 3
v 1.5 31 2
v 1.5 31 -2
v 1.5 31 -3
v 1.5 31 -5
v 1.5 31 -6
v 1.5 32 4
v 1.5 32 3
v 1.5 32 -3
v 1.5 32 -5
v 1.5 37 12
v 1.5 37 -12
v 1.5 38 13
v 1.5 38 -13
v 1.5 39 14
v 1.5 39 -14
v 2.5 0 15
v 2.5 0 -15
v 2.5 1 14
v 2.5 1 -14
v 2.5 2 13
v 2.5 2 -13
v 2.5 3 12
v 2.5 3 -12
v 2.5 37 12
v 2.5 37 -12
v 2.5 38 13
v 2.5 38 -13
v 2.5 39 14
v 2.5 39 -14
v 2.5 40 15
v 2.5 40 -15
v 0.5 0 15
v 0.5 40 15
v 2.5 0 15
v 2.5 40 15
v 1.5 2 13
v 1.5 38 13
v 2.5 2 13
v 2.5 38 13
v 1.5 3 -12
v 1.5 37 -12
v 2.5 3 -12
v 2.5 37 -12
v 1.5 1 -14
v 1.5 39 -14
v 2.5 1 -14
v 2.5 39 -14
v 1.5 1 14
v 1.5 39 14
v 2.5 1 14
v 2.5 39 14
v 1.5 3 12
v 1.5 37 12
v 2.5 3 12
v 2.5 37 12
v 1.5 2 -13
v 1.5 38 -13
v 2.5 2 -13
v 2.5 38 -13
v 0.5 0 -15
v 0.5 40 -15
v 2.5 0 -15
v 2.5 40 -15
v 0.5 0 15
v 2.5 0 15
v 0.5 0 -15
v 2.5 0 -15
v 1.5 2 13
v 2.5 2 13
v 1.5 2 -13
v 2.5 2 -13
v 1.5 37 12
v 2.5 37 12
v 1.5 37 -12
v 2.5 37 -12
v 1.5 39 14
v 2.5 39 14
v 1.5 39 -14
v 2.5 39 -14
v 1.5 1 14
v 2.5 1 14
v 1.5 1 -14
v 2.5 1 -14
v 1.5 3 12
v 2.5 3 12
v 1.5 3 -12
v 2.5 3 -12
v 1.5 38 13
v 2.5 38 13
v 1.5 38 -13
v 2.5 38 -13
v 0.5 40 15
v 2.5 40 15
v 0.5 40 -15
v 2.5 40 -15

# faces
f 3/3/1 2/3/1 1/3/1
f 4/3/1 2/3/1 3/3/1
f 5/5/1 4/5/1 3/5/1
f 6/5/1 4/5/1 5/5/1
f 7/5/1 5/5/1 3/5/1
f 8/4/1 6/4/1 5/4/1
f 8/5/1 5/5/1 7/5/1
f 9/4/1 6/4/1 8/4/1
f 10/5/1 4/5/1 6/5/1
f 10/4/1 6/4/1 9/4/1
f 11/5/1 4/5/1 10/5/1
f 12/5/1 7/5/1 3/5/1
f 13/4/1 8/4/1 7/4/1
f 13/5/1 7/5/1 12/5/1
f 14/1/1 9/1/1 8/1/1
f 14/4/1 8/4/1 13/4/1
f 15/2/1 10/2/1 9/2/1
f 15/1/1 9/1/1 14/1/1
f 16/2/1 10/2/1 15/2/1
f 17/4/1 11/4/1 10/4/1
f 17/2/1 10/2/1 16/2/1
f 18/5/1 4/5/1 11/5/1
f 18/4/1 11/4/1 17/4/1
f 19/5/1 4/5/1 18/5/1
f 20/5/1 12/5/1 3/5/1
f 21/4/1 13/4/1 12/4/1
f 21/5/1 12/5/1 20/5/1
f 22/1/1 14/1/1 13/1/1
f 22/4/1 13/4/1 21/4/1
f 22/1/1 16/1/1 15/1/1
f 22/1/1 15/1/1 14/1/1
f 23/2/1 17/2/1 16/2/1
f 23/1/1 16/1/1 22/1/1
f 23/1/1 22/1/1 21/1/1
f 23/2/1 18/2/1 17/2/1
f 24/2/1 18/2/1 23/2/1
f 25/4/1 19/4/1 18/4/1
f 25/2/1 18/2/1 24/2/1
f 26/5/1 4/5/1 19/5/1
f 26/4/1 19/4/1 25/4/1
f 27/5/1 4/5/1 26/5/1
f 28/5/1 20/5/1 3/5/1
f 29/4/1 21/4/1 20/4/1
f 29/5/1 20/5/1 28/5/1
f 30/1/1 24/1/1 23/1/1
f 30/4/1 21/4/1 29/4/1
f 30/1/1 23/1/1 21/1/1
f 31/1/1 30/1/1 29/1/1
f 31/1/1 24/1/1 30/1/1
f 32/1/1 24/1/1 31/1/1
f 33/1/1 31/1/1 29/1/1
f 34/4/1 32/4/1 31/4/1
f 34/1/1 31/1/1 33/1/1
f 35/1/1 24/1/1 32/1/1
f 35/4/1 32/4/1 34/4/1
f 36/1/1 33/1/1 29/1/1
f 37/4/1 34/4/1 33/4/1
f 37/1/1 33/1/1 36/1/1
f 38/1/1 35/1/1 34/1/1
f 38/4/1 34/4/1 37/4/1
f 39/1/1 35/1/1 38/1/1
f 40/1/1 35/1/1 39/1/1
f 41/2/1 40/2/1 39/2/1
f 41/1/1 35/1/1 40/1/1
f 42/1/1 24/1/1 35/1/1
f 42/1/1 35/1/1 41/1/1
f 43/1/1 24/1/1 42/1/1
f 44/2/1 25/2/1 24/2/1
f 44/1/1 24/1/1 43/1/1
f 44/2/1 26/2/1 25/2/1
f 45/2/1 42/2/1 41/2/1
f 45/2/1 41/2/1 39/2/1
f 45/4/1 37/4/1 36/4/1
f 45/4/1 39/4/1 38/4/1
f 45/4/1 38/4/1 37/4/1
f 46/2/1 42/2/1 45/2/1
f 47/1/1 43/1/1 42/1/1
f 47/2/1 42/2/1 46/2/1
f 48/2/1 44/2/1 43/2/1
f 48/1/1 43/1/1 47/1/1
f 49/4/1 29/4/1 28/4/1
f 49/1/1 36/1/1 29/1/1
f 50/4/1 46/4/1 45/4/1
f 50/1/1 36/1/1 49/1/1
f 50/4/1 45/4/1 36/4/1
f 51/2/1 48/2/1 47/2/1
f 51/4/1 46/4/1 50/4/1
f 51/2/1 47/2/1 46/2/1
f 52/4/1 49/4/1 28/4/1
f 52/5/1 28/5/1 3/5/1
f 53/2/1 51/2/1 50/2/1
f 53/4/1 49/4/1 52/4/1
f 53/2/1 50/2/1 49/2/1
f 54/2/1 51/2/1 53/2/1
f 55/2/1 44/2/1 48/2/1
f 55/2/1 51/2/1 54/2/1
f 55/2/1 48/2/1 51/2/1
f 55/2/1 26/2/1 44/2/1
f 56/4/1 27/4/1 26/4/1
f 56/2/1 26/2/1 55/2/1
f 57/5/1 4/5/1 27/5/1
f 57/4/1 27/4/1 56/4/1
f 58/2/1 55/2/1 54/2/1
f 59/2/1 55/2/1 58/2/1
f 60/2/1 55/2/1 59/2/1
f 61/2/1 55/2/1 60/2/1
f 62/2/1 55/2/1 61/2/1
f 63/2/1 55/2/1 62/2/1
f 64/2/1 55/2/1 63/2/1
f 65/4/1 56/4/1 55/4/1
f 65/2/1 55/2/1 64/2/1
f 66/5/1 57/5/1 56/5/1
f 66/4/1 56/4/1 65/4/1
f 67/4/1 54/4/1 53/4/1
f 67/5/1 53/5/1 52/5/1
f 68/2/1 58/2/1 54/2/1
f 68/4/1 54/4/1 67/4/1
f 69/5/1 59/5/1 58/5/1
f 69/2/1 58/2/1 68/2/1
f 70/4/1 60/4/1 59/4/1
f 70/5/1 59/5/1 69/5/1
f 71/2/1 61/2/1 60/2/1
f 71/4/1 60/4/1 70/4/1
f 72/5/1 62/5/1 61/5/1
f 72/2/1 61/2/1 71/2/1
f 73/4/1 63/4/1 62/4/1
f 73/5/1 62/5/1 72/5/1
f 74/2/1 64/2/1 63/2/1
f 74/4/1 63/4/1 73/4/1
f 75/2/1 73/2/1 72/2/1
f 75/2/1 64/2/1 74/2/1
f 75/2/1 74/2/1 73/2/1
f 75/2/1 72/2/1 71/2/1
f 75/2/1 71/2/1 70/2/1
f 75/2/1 70/2/1 69/2/1
f 76/2/1 64/2/1 75/2/1
f 77/4/1 65/4/1 64/4/1
f 77/2/1 64/2/1 76/2/1
f 78/5/1 66/5/1 65/5/1
f 78/4/1 65/4/1 77/4/1
f 79/2/1 75/2/1 69/2/1
f 80/1/1 76/1/1 75/1/1
f 80/2/1 75/2/1 79/2/1
f 81/4/1 69/4/1 68/4/1
f 81/5/1 68/5/1 67/5/1
f 82/2/1 79/2/1 69/2/1
f 82/4/1 69/4/1 81/4/1
f 83/2/1 79/2/1 82/2/1
f 84/2/1 79/2/1 83/2/1
f 85/1/1 80/1/1 79/1/1
f 85/2/1 79/2/1 84/2/1
f 86/2/1 84/2/1 83/2/1
f 86/4/1 83/4/1 82/4/1
f 87/2/1 84/2/1 86/2/1
f 88/2/1 84/2/1 87/2/1
f 89/1/1 85/1/1 84/1/1
f 89/2/1 84/2/1 88/2/1
f 90/1/1 76/1/1 80/1/1
f 90/1/1 85/1/1 89/1/1
f 90/1/1 80/1/1 85/1/1
f 91/4/1 77/4/1 76/4/1
f 91/1/1 76/1/1 90/1/1
f 92/5/1 78/5/1 77/5/1
f 92/4/1 77/4/1 91/4/1
f 93/5/1 82/5/1 81/5/1
f 93/4/1 86/4/1 82/4/1
f 94/1/1 87/1/1 86/1/1
f 94/4/1 86/4/1 93/4/1
f 95/1/1 87/1/1 94/1/1
f 96/1/1 87/1/1 95/1/1
f 97/4/1 88/4/1 87/4/1
f 97/1/1 87/1/1 96/1/1
f 98/1/1 89/1/1 88/1/1
f 98/4/1 88/4/1 97/4/1
f 98/1/1 90/1/1 89/1/1
f 99/1/1 90/1/1 98/1/1
f 100/4/1 95/4/1 94/4/1
f 100/5/1 94/5/1 93/5/1
f 101/1/1 96/1/1 95/1/1
f 101/4/1 95/4/1 100/4/1
f 102/4/1 97/4/1 96/4/1
f 102/1/1 96/1/1 101/1/1
f 103/5/1 98/5/1 97/5/1
f 103/4/1 97/4/1 102/4/1
f 104/4/1 99/4/1 98/4/1
f 104/5/1 98/5/1 103/5/1
f 105/1/1 90/1/1 99/1/1
f 105/4/1 99/4/1 104/4/1
f 106/4/1 91/4/1 90/4/1
f 106/1/1 90/1/1 105/1/1
f 107/5/1 92/5/1 91/5/1
f 107/4/1 91/4/1 106/4/1
f 108/5/1 101/5/1 100/5/1
f 108/4/1 102/4/1 101/4/1
f 109/5/1 104/5/1 103/5/1
f 109/4/1 102/4/1 108/4/1
f 109/5/1 105/5/1 104/5/1
f 109/5/1 103/5/1 102/5/1
f 110/4/1 106/4/1 105/4/1
f 110/5/1 105/5/1 109/5/1
f 111/5/1 107/5/1 106/5/1
f 111/4/1 106/4/1 110/4/1
f 112/3/1 3/3/1 1/3/1
f 112/5/1 108/5/1 100/5/1
f 112/5/1 111/5/1 110/5/1
f 112/5/1 109/5/1 108/5/1
f 112/5/1 100/5/1 93/5/1
f 112/5/1 52/5/1 3/5/1
f 112/5/1 110/5/1 109/5/1
f 112/5/1 81/5/1 67/5/1
f 112/5/1 93/5/1 81/5/1
f 112/5/1 67/5/1 52/5/1
f 113/5/1 107/5/1 111/5/1
f 113/5/1 111/5/1 112/5/1
f 113/3/1 2/3/1 4/3/1
f 113/5/1 4/5/1 57/5/1
f 113/5/1 66/5/1 78/5/1
f 113/5/1 78/5/1 92/5/1
f 113/5/1 57/5/1 66/5/1
f 113/5/1 92/5/1 107/5/1
f 114/3/1 112/3/1 1/3/1
f 114/3/1 113/3/1 112/3/1
f 115/3/1 2/3/1 113/3/1
f 115/3/1 113/3/1 114/3/1
f 116/3/2 117/3/2 118/3/2
f 118/3/2 117/3/2 119/3/2
f 120/5/2 121/5/2 122/5/2
f 122/5/2 121/5/2 123/5/2
f 120/5/2 122/5/2 124/5/2
f 122/4/2 123/4/2 125/4/2
f 124/5/2 122/5/2 125/5/2
f 125/4/2 123/4/2 126/4/2
f 123/5/2 121/5/2 127/5/2
f 126/4/2 123/4/2 127/4/2
f 127/5/2 121/5/2 128/5/2
f 120/5/2 124/5/2 129/5/2
f 124/4/2 125/4/2 130/4/2
f 129/5/2 124/5/2 130/5/2
f 125/1/2 126/1/2 131/1/2
f 130/4/2 125/4/2 131/4/2
f 126/2/2 127/2/2 132/2/2
f 131/1/2 126/1/2 132/1/2
f 132/2/2 127/2/2 133/2/2
f 127/4/2 128/4/2 134/4/2
f 133/2/2 127/2/2 134/2/2
f 128/5/2 121/5/2 135/5/2
f 134/4/2 128/4/2 135/4/2
f 135/5/2 121/5/2 136/5/2
f 120/5/2 129/5/2 137/5/2
f 129/4/2 130/4/2 138/4/2
f 137/5/2 129/5/2 138/5/2
f 130/1/2 131/1/2 139/1/2
f 138/4/2 130/4/2 139/4/2
f 132/1/2 133/1/2 139/1/2
f 131/1/2 132/1/2 139/1/2
f 133/2/2 134/2/2 140/2/2
f 139/1/2 133/1/2 140/1/2
f 138/1/2 139/1/2 140/1/2
f 134/2/2 135/2/2 140/2/2
f 140/2/2 135/2/2 141/2/2
f 135/4/2 136/4/2 142/4/2
f 141/2/2 135/2/2 142/2/2
f 136/5/2 121/5/2 143/5/2
f 142/4/2 136/4/2 143/4/2
f 143/5/2 121/5/2 144/5/2
f 120/5/2 137/5/2 145/5/2
f 137/4/2 138/4/2 146/4/2
f 145/5/2 137/5/2 146/5/2
f 140/1/2 141/1/2 147/1/2
f 146/4/2 138/4/2 147/4/2
f 138/1/2 140/1/2 147/1/2
f 146/1/2 147/1/2 148/1/2
f 147/1/2 141/1/2 148/1/2
f 148/1/2 141/1/2 149/1/2
f 146/1/2 148/1/2 150/1/2
f 148/4/2 149/4/2 151/4/2
f 150/1/2 148/1/2 151/1/2
f 149/1/2 141/1/2 152/1/2
f 151/4/2 149/4/2 152/4/2
f 146/1/2 150/1/2 153/1/2
f 150/4/2 151/4/2 154/4/2
f 153/1/2 150/1/2 154/1/2
f 151/1/2 152/1/2 155/1/2
f 154/4/2 151/4/2 155/4/2
f 155/1/2 152/1/2 156/1/2
f 156/1/2 152/1/2 157/1/2
f 156/2/2 157/2/2 158/2/2
f 157/1/2 152/1/2 158/1/2
f 152/1/2 141/1/2 159/1/2
f 158/1/2 152/1/2 159/1/2
f 159/1/2 141/1/2 160/1/2
f 141/2/2 142/2/2 161/2/2
f 160/1/2 141/1/2 161/1/2
f 142/2/2 143/2/2 161/2/2
f 158/2/2 159/2/2 162/2/2
f 156/2/2 158/2/2 162/2/2
f 153/4/2 154/4/2 162/4/2
f 155/4/2 156/4/2 162/4/2
f 154/4/2 155/4/2 162/4/2
f 162/2/2 159/2/2 163/2/2
f 159/1/2 160/1/2 164/1/2
f 163/2/2 159/2/2 164/2/2
f 160/2/2 161/2/2 165/2/2
f 164/1/2 160/1/2 165/1/2
f 145/4/2 146/4/2 166/4/2
f 146/1/2 153/1/2 166/1/2
f 162/4/2 163/4/2 167/4/2
f 166/1/2 153/1/2 167/1/2
f 153/4/2 162/4/2 167/4/2
f 164/2/2 165/2/2 168/2/2
f 167/4/2 163/4/2 168/4/2
f 163/2/2 164/2/2 168/2/2
f 145/4/2 166/4/2 169/4/2
f 120/5/2 145/5/2 169/5/2
f 167/2/2 168/2/2 170/2/2
f 169/4/2 166/4/2 170/4/2
f 166/2/2 167/2/2 170/2/2
f 170/2/2 168/2/2 171/2/2
f 165/2/2 161/2/2 172/2/2
f 171/2/2 168/2/2 172/2/2
f 168/2/2 165/2/2 172/2/2
f 161/2/2 143/2/2 172/2/2
f 143/4/2 144/4/2 173/4/2
f 172/2/2 143/2/2 173/2/2
f 144/5/2 121/5/2 174/5/2
f 173/4/2 144/4/2 174/4/2
f 171/2/2 172/2/2 175/2/2
f 175/2/2 172/2/2 176/2/2
f 176/2/2 172/2/2 177/2/2
f 177/2/2 172/2/2 178/2/2
f 178/2/2 172/2/2 179/2/2
f 179/2/2 172/2/2 180/2/2
f 180/2/2 172/2/2 181/2/2
f 172/4/2 173/4/2 182/4/2
f 181/2/2 172/2/2 182/2/2
f 173/5/2 174/5/2 183/5/2
f 182/4/2 173/4/2 183/4/2
f 170/4/2 171/4/2 184/4/2
f 169/5/2 170/5/2 184/5/2
f 171/2/2 175/2/2 185/2/2
f 184/4/2 171/4/2 185/4/2
f 175/5/2 176/5/2 186/5/2
f 185/2/2 175/2/2 186/2/2
f 176/4/2 177/4/2 187/4/2
f 186/5/2 176/5/2 187/5/2
f 177/2/2 178/2/2 188/2/2
f 187/4/2 177/4/2 188/4/2
f 178/5/2 179/5/2 189/5/2
f 188/2/2 178/2/2 189/2/2
f 179/4/2 180/4/2 190/4/2
f 189/5/2 179/5/2 190/5/2
f 180/2/2 181/2/2 191/2/2
f 190/4/2 180/4/2 191/4/2
f 189/2/2 190/2/2 192/2/2
f 191/2/2 181/2/2 192/2/2
f 190/2/2 191/2/2 192/2/2
f 188/2/2 189/2/2 192/2/2
f 187/2/2 188/2/2 192/2/2
f 186/2/2 187/2/2 192/2/2
f 192/2/2 181/2/2 193/2/2
f 181/4/2 182/4/2 194/4/2
f 193/2/2 181/2/2 194/2/2
f 182/5/2 183/5/2 195/5/2
f 194/4/2 182/4/2 195/4/2
f 186/2/2 192/2/2 196/2/2
f 192/1/2 193/1/2 197/1/2
f 196/2/2 192/2/2 197/2/2
f 185/4/2 186/4/2 198/4/2
f 184/5/2 185/5/2 198/5/2
f 186/2/2 196/2/2 199/2/2
f 198/4/2 186/4/2 199/4/2
f 199/2/2 196/2/2 200/2/2
f 200/2/2 196/2/2 201/2/2
f 196/1/2 197/1/2 202/1/2
f 201/2/2 196/2/2 202/2/2
f 200/2/2 201/2/2 203/2/2
f 199/4/2 200/4/2 203/4/2
f 203/2/2 201/2/2 204/2/2
f 204/2/2 201/2/2 205/2/2
f 201/1/2 202/1/2 206/1/2
f 205/2/2 201/2/2 206/2/2
f 197/1/2 193/1/2 207/1/2
f 206/1/2 202/1/2 207/1/2
f 202/1/2 197/1/2 207/1/2
f 193/4/2 194/4/2 208/4/2
f 207/1/2 193/1/2 208/1/2
f 194/5/2 195/5/2 209/5/2
f 208/4/2 194/4/2 209/4/2
f 198/5/2 199/5/2 210/5/2
f 199/4/2 203/4/2 210/4/2
f 203/1/2 204/1/2 211/1/2
f 210/4/2 203/4/2 211/4/2
f 211/1/2 204/1/2 212/1/2
f 212/1/2 204/1/2 213/1/2
f 204/4/2 205/4/2 214/4/2
f 213/1/2 204/1/2 214/1/2
f 205/1/2 206/1/2 215/1/2
f 214/4/2 205/4/2 215/4/2
f 206/1/2 207/1/2 215/1/2
f 215/1/2 207/1/2 216/1/2
f 211/4/2 212/4/2 217/4/2
f 210/5/2 211/5/2 217/5/2
f 212/1/2 213/1/2 218/1/2
f 217/4/2 212/4/2 218/4/2
f 213/4/2 214/4/2 219/4/2
f 218/1/2 213/1/2 219/1/2
f 214/5/2 215/5/2 220/5/2
f 219/4/2 214/4/2 220/4/2
f 215/4/2 216/4/2 221/4/2
f 220/5/2 215/5/2 221/5/2
f 216/1/2 207/1/2 222/1/2
f 221/4/2 216/4/2 222/4/2
f 207/4/2 208/4/2 223/4/2
f 222/1/2 207/1/2 223/1/2
f 208/5/2 209/5/2 224/5/2
f 223/4/2 208/4/2 224/4/2
f 217/5/2 218/5/2 225/5/2
f 218/4/2 219/4/2 225/4/2
f 220/5/2 221/5/2 226/5/2
f 225/4/2 219/4/2 226/4/2
f 221/5/2 222/5/2 226/5/2
f 219/5/2 220/5/2 226/5/2
f 222/4/2 223/4/2 227/4/2
f 226/5/2 222/5/2 227/5/2
f 223/5/2 224/5/2 228/5/2
f 227/4/2 223/4/2 228/4/2
f 217/5/2 225/5/2 229/5/2
f 120/5/2 169/5/2 229/5/2
f 227/5/2 228/5/2 229/5/2
f 225/5/2 226/5/2 229/5/2
f 210/5/2 217/5/2 229/5/2
f 184/5/2 198/5/2 229/5/2
f 226/5/2 227/5/2 229/5/2
f 169/5/2 184/5/2 229/5/2
f 198/5/2 210/5/2 229/5/2
f 224/5/2 209/5/2 230/5/2
f 229/5/2 228/5/2 230/5/2
f 183/5/2 174/5/2 230/5/2
f 195/5/2 183/5/2 230/5/2
f 174/5/2 121/5/2 230/5/2
f 209/5/2 195/5/2 230/5/2
f 228/5/2 224/5/2 230/5/2
f 116/3/2 118/3/2 231/3/2
f 119/3/2 117/3/2 232/3/2
f 116/3/2 231/3/2 233/3/2
f 231/3/2 232/3/2 233/3/2
f 232/3/2 117/3/2 234/3/2
f 233/3/2 232/3/2 234/3/2
f 235/3/2 236/3/2 237/3/2
f 237/3/2 236/3/2 238/3/2
f 239/3/2 240/3/2 241/3/2
f 241/3/2 240/3/2 242/3/2
f 239/3/2 241/3/2 243/3/2
f 242/3/2 240/3/2 244/3/2
f 239/3/2 243/3/2 245/3/2
f 243/3/2 244/3/2 245/3/2
f 244/3/2 240/3/2 246/3/2
f 245/3/2 244/3/2 246/3/2
f 235/3/2 237/3/2 247/3/2
f 238/3/2 236/3/2 248/3/2
f 235/3/2 247/3/2 249/3/2
f 247/3/2 248/3/2 249/3/2
f 248/3/2 236/3/2 250/3/2
f 249/3/2 248/3/2 250/3/2
f 253/3/3 252/3/3 251/3/3
f 254/3/3 252/3/3 253/3/3
f 257/3/3 256/3/3 255/3/3
f 258/3/3 256/3/3 257/3/3
f 261/3/3 260/3/3 259/3/3
f 262/3/3 260/3/3 261/3/3
f 265/3/3 264/3/3 263/3/3
f 266/3/3 264/3/3 265/3/3
f 267/3/4 268/3/4 269/3/4
f 269/3/4 268/3/4 270/3/4
f 271/3/4 272/3/4 273/3/4
f 273/3/4 272/3/4 274/3/4
f 275/3/4 276/3/4 277/3/4
f 277/3/4 276/3/4 278/3/4
f 279/3/4 280/3/4 281/3/4
f 281/3/4 280/3/4 282/3/4
f 285/3/5 284/3/5 283/3/5
f 286/3/5 284/3/5 285/3/5
f 289/3/5 288/3/5 287/3/5
f 290/3/5 288/3/5 289/3/5
f 293/3/5 292/3/5 291/3/5
f 294/3/5 292/3/5 293/3/5
f 297/3/5 296/3/5 295/3/5
f 298/3/5 296/3/5 297/3/5
f 299/3/6 300/3/6 301/3/6
f 301/3/6 300/3/6 302/3/6
f 303/3/6 304/3/6 305/3/6
f 305/3/6 304/3/6 306/3/6
f 307/3/6 308/3/6 309/3/6
f 309/3/6 308/3/6 310/3/6
f 311/3/6 312/3/6 313/3/6
f 313/3/6 312/3/6 314/3/6
