# MagicaVoxel @ Ephtracy

# group
g --6

# material
mtllib --6.mtl
usemtl palette

# normals
vn -1 0 0
vn 1 0 0
vn 0 0 1
vn 0 0 -1
vn 0 -1 0
vn 0 1 0

# texcoords
vt 0.560547 0.5

# verts
v -5 0 5
v -5 0 -4
v -5 16 -4
v -5 16 -5
v -5 17 5
v -5 17 -5
v 4 0 5
v 4 0 -5
v 4 16 5
v 4 16 -5
v -4 0 5
v -4 0 -4
v -4 16 5
v -4 16 -4
v 5 0 5
v 5 0 -5
v 5 17 5
v 5 17 -5
v -5 0 5
v -5 17 5
v -4 0 5
v -4 16 5
v 4 0 5
v 4 16 5
v 5 0 5
v 5 17 5
v -5 0 -4
v -5 16 -4
v -4 0 -4
v -4 16 -4
v -5 16 -5
v -5 17 -5
v 4 0 -5
v 4 16 -5
v 5 0 -5
v 5 17 -5
v -5 0 5
v -4 0 5
v 4 0 5
v 5 0 5
v -5 0 -4
v -4 0 -4
v 4 0 -5
v 5 0 -5
v -4 16 5
v 4 16 5
v -5 16 -4
v -4 16 -4
v -5 16 -5
v 4 16 -5
v -5 17 5
v 5 17 5
v -5 17 -5
v 5 17 -5

# faces
f 3/1/1 2/1/1 1/1/1
f 5/1/1 3/1/1 1/1/1
f 5/1/1 4/1/1 3/1/1
f 6/1/1 4/1/1 5/1/1
f 9/1/1 8/1/1 7/1/1
f 10/1/1 8/1/1 9/1/1
f 11/1/2 12/1/2 13/1/2
f 13/1/2 12/1/2 14/1/2
f 15/1/2 16/1/2 17/1/2
f 17/1/2 16/1/2 18/1/2
f 21/1/3 20/1/3 19/1/3
f 22/1/3 20/1/3 21/1/3
f 24/1/3 20/1/3 22/1/3
f 25/1/3 24/1/3 23/1/3
f 26/1/3 20/1/3 24/1/3
f 26/1/3 24/1/3 25/1/3
f 27/1/4 28/1/4 29/1/4
f 29/1/4 28/1/4 30/1/4
f 31/1/4 32/1/4 34/1/4
f 33/1/4 34/1/4 35/1/4
f 34/1/4 32/1/4 36/1/4
f 35/1/4 34/1/4 36/1/4
f 41/1/5 38/1/5 37/1/5
f 42/1/5 38/1/5 41/1/5
f 43/1/5 40/1/5 39/1/5
f 44/1/5 40/1/5 43/1/5
f 48/1/5 46/1/5 45/1/5
f 49/1/5 48/1/5 47/1/5
f 50/1/5 46/1/5 48/1/5
f 50/1/5 48/1/5 49/1/5
f 51/1/6 52/1/6 53/1/6
f 53/1/6 52/1/6 54/1/6
