# MagicaVoxel @ Ephtracy

# group
o Corner 2

# material
mtllib --14-Corner 2.mtl
usemtl palette

# normals
vn -1 0 0
vn 1 0 0
vn 0 0 1
vn 0 0 -1
vn 0 -1 0
vn 0 1 0

# texcoords
vt 0.00976563 0.5
vt 0.982422 0.5

# verts
v 10 0 -5
v 10 0 -15
v 10 0.1 -5
v 10 0.1 -7
v 10 0.1 -15
v 10 0.2 -5
v 10 0.2 -7
v 10.1 0.1 -6.3
v 10.1 0.1 -7
v 10.1 0.2 -6.3
v 10.1 0.2 -7
v 10.2 0.1 -6.1
v 10.2 0.1 -6.3
v 10.2 0.2 -6.1
v 10.2 0.2 -6.3
v 10.3 0.1 -5.9
v 10.3 0.1 -6.1
v 10.3 0.2 -5.9
v 10.3 0.2 -6.1
v 10.4 0.1 -5.7
v 10.4 0.1 -5.9
v 10.4 0.2 -5.7
v 10.4 0.2 -5.9
v 10.5 0.1 -5.6
v 10.5 0.1 -5.7
v 10.5 0.2 -5.6
v 10.5 0.2 -5.7
v 10.6 0.1 -5.5
v 10.6 0.1 -5.6
v 10.6 0.2 -5.5
v 10.6 0.2 -5.6
v 10.7 0.1 -5.4
v 10.7 0.1 -5.5
v 10.7 0.2 -5.4
v 10.7 0.2 -5.5
v 10.9 0.1 -5.3
v 10.9 0.1 -5.4
v 10.9 0.2 -5.3
v 10.9 0.2 -5.4
v 11.1 0.1 -5.2
v 11.1 0.1 -5.3
v 11.1 0.2 -5.2
v 11.1 0.2 -5.3
v 11.3 0.1 -5.1
v 11.3 0.1 -5.2
v 11.3 0.2 -5.1
v 11.3 0.2 -5.2
v 12 0.1 -5
v 12 0.1 -5.1
v 12 0.2 -5
v 12 0.2 -5.1
v 20 0 -5
v 20 0 -15
v 20 0.1 -5
v 20 0.1 -15
v 10 0 -5
v 10 0.1 -5
v 10 0.2 -5
v 12 0.1 -5
v 12 0.2 -5
v 20 0 -5
v 20 0.1 -5
v 11.3 0.1 -5.1
v 11.3 0.2 -5.1
v 12 0.1 -5.1
v 12 0.2 -5.1
v 11.1 0.1 -5.2
v 11.1 0.2 -5.2
v 11.3 0.1 -5.2
v 11.3 0.2 -5.2
v 10.9 0.1 -5.3
v 10.9 0.2 -5.3
v 11.1 0.1 -5.3
v 11.1 0.2 -5.3
v 10.7 0.1 -5.4
v 10.7 0.2 -5.4
v 10.9 0.1 -5.4
v 10.9 0.2 -5.4
v 10.6 0.1 -5.5
v 10.6 0.2 -5.5
v 10.7 0.1 -5.5
v 10.7 0.2 -5.5
v 10.5 0.1 -5.6
v 10.5 0.2 -5.6
v 10.6 0.1 -5.6
v 10.6 0.2 -5.6
v 10.4 0.1 -5.7
v 10.4 0.2 -5.7
v 10.5 0.1 -5.7
v 10.5 0.2 -5.7
v 10.3 0.1 -5.9
v 10.3 0.2 -5.9
v 10.4 0.1 -5.9
v 10.4 0.2 -5.9
v 10.2 0.1 -6.1
v 10.2 0.2 -6.1
v 10.3 0.1 -6.1
v 10.3 0.2 -6.1
v 10.1 0.1 -6.3
v 10.1 0.2 -6.3
v 10.2 0.1 -6.3
v 10.2 0.2 -6.3
v 10 0.1 -7
v 10 0.2 -7
v 10.1 0.1 -7
v 10.1 0.2 -7
v 10 0 -15
v 10 0.1 -15
v 20 0 -15
v 20 0.1 -15
v 10 0 -5
v 20 0 -5
v 10 0 -15
v 20 0 -15
v 12 0.1 -5
v 20 0.1 -5
v 11.3 0.1 -5.1
v 12 0.1 -5.1
v 11.1 0.1 -5.2
v 11.3 0.1 -5.2
v 10.9 0.1 -5.3
v 11.1 0.1 -5.3
v 10.7 0.1 -5.4
v 10.9 0.1 -5.4
v 10.6 0.1 -5.5
v 10.7 0.1 -5.5
v 10.5 0.1 -5.6
v 10.6 0.1 -5.6
v 10.4 0.1 -5.7
v 10.5 0.1 -5.7
v 10.3 0.1 -5.9
v 10.4 0.1 -5.9
v 10.2 0.1 -6.1
v 10.3 0.1 -6.1
v 10.1 0.1 -6.3
v 10.2 0.1 -6.3
v 10 0.1 -7
v 10.1 0.1 -7
v 10 0.1 -15
v 20 0.1 -15
v 10 0.2 -5
v 12 0.2 -5
v 11.3 0.2 -5.1
v 12 0.2 -5.1
v 11.1 0.2 -5.2
v 11.3 0.2 -5.2
v 10.9 0.2 -5.3
v 11.1 0.2 -5.3
v 10.7 0.2 -5.4
v 10.9 0.2 -5.4
v 10.6 0.2 -5.5
v 10.7 0.2 -5.5
v 10.5 0.2 -5.6
v 10.6 0.2 -5.6
v 10.4 0.2 -5.7
v 10.5 0.2 -5.7
v 10.3 0.2 -5.9
v 10.4 0.2 -5.9
v 10.2 0.2 -6.1
v 10.3 0.2 -6.1
v 10.1 0.2 -6.3
v 10.2 0.2 -6.3
v 10 0.2 -7
v 10.1 0.2 -7

# faces
f 3/1/1 2/1/1 1/1/1
f 4/1/1 2/1/1 3/1/1
f 5/1/1 2/1/1 4/1/1
f 6/2/1 4/2/1 3/2/1
f 7/2/1 4/2/1 6/2/1
f 8/2/2 9/2/2 10/2/2
f 10/2/2 9/2/2 11/2/2
f 12/2/2 13/2/2 14/2/2
f 14/2/2 13/2/2 15/2/2
f 16/2/2 17/2/2 18/2/2
f 18/2/2 17/2/2 19/2/2
f 20/2/2 21/2/2 22/2/2
f 22/2/2 21/2/2 23/2/2
f 24/2/2 25/2/2 26/2/2
f 26/2/2 25/2/2 27/2/2
f 28/2/2 29/2/2 30/2/2
f 30/2/2 29/2/2 31/2/2
f 32/2/2 33/2/2 34/2/2
f 34/2/2 33/2/2 35/2/2
f 36/2/2 37/2/2 38/2/2
f 38/2/2 37/2/2 39/2/2
f 40/2/2 41/2/2 42/2/2
f 42/2/2 41/2/2 43/2/2
f 44/2/2 45/2/2 46/2/2
f 46/2/2 45/2/2 47/2/2
f 48/2/2 49/2/2 50/2/2
f 50/2/2 49/2/2 51/2/2
f 52/1/2 53/1/2 54/1/2
f 54/1/2 53/1/2 55/1/2
f 59/1/3 57/1/3 56/1/3
f 59/2/3 58/2/3 57/2/3
f 60/2/3 58/2/3 59/2/3
f 61/1/3 59/1/3 56/1/3
f 62/1/3 59/1/3 61/1/3
f 63/2/4 64/2/4 65/2/4
f 65/2/4 64/2/4 66/2/4
f 67/2/4 68/2/4 69/2/4
f 69/2/4 68/2/4 70/2/4
f 71/2/4 72/2/4 73/2/4
f 73/2/4 72/2/4 74/2/4
f 75/2/4 76/2/4 77/2/4
f 77/2/4 76/2/4 78/2/4
f 79/2/4 80/2/4 81/2/4
f 81/2/4 80/2/4 82/2/4
f 83/2/4 84/2/4 85/2/4
f 85/2/4 84/2/4 86/2/4
f 87/2/4 88/2/4 89/2/4
f 89/2/4 88/2/4 90/2/4
f 91/2/4 92/2/4 93/2/4
f 93/2/4 92/2/4 94/2/4
f 95/2/4 96/2/4 97/2/4
f 97/2/4 96/2/4 98/2/4
f 99/2/4 100/2/4 101/2/4
f 101/2/4 100/2/4 102/2/4
f 103/2/4 104/2/4 105/2/4
f 105/2/4 104/2/4 106/2/4
f 107/1/4 108/1/4 109/1/4
f 109/1/4 108/1/4 110/1/4
f 113/1/5 112/1/5 111/1/5
f 114/1/5 112/1/5 113/1/5
f 115/1/6 116/1/6 118/1/6
f 117/1/6 118/1/6 120/1/6
f 119/1/6 120/1/6 122/1/6
f 121/1/6 122/1/6 124/1/6
f 123/1/6 124/1/6 126/1/6
f 125/1/6 126/1/6 128/1/6
f 127/1/6 128/1/6 130/1/6
f 129/1/6 130/1/6 132/1/6
f 131/1/6 132/1/6 134/1/6
f 133/1/6 134/1/6 136/1/6
f 135/1/6 136/1/6 138/1/6
f 137/1/6 138/1/6 139/1/6
f 118/1/6 116/1/6 140/1/6
f 139/1/6 138/1/6 140/1/6
f 120/1/6 118/1/6 140/1/6
f 138/1/6 136/1/6 140/1/6
f 122/1/6 120/1/6 140/1/6
f 136/1/6 134/1/6 140/1/6
f 124/1/6 122/1/6 140/1/6
f 134/1/6 132/1/6 140/1/6
f 126/1/6 124/1/6 140/1/6
f 132/1/6 130/1/6 140/1/6
f 128/1/6 126/1/6 140/1/6
f 130/1/6 128/1/6 140/1/6
f 141/2/6 142/2/6 143/2/6
f 143/2/6 142/2/6 144/2/6
f 141/2/6 143/2/6 145/2/6
f 145/2/6 143/2/6 146/2/6
f 141/2/6 145/2/6 147/2/6
f 147/2/6 145/2/6 148/2/6
f 141/2/6 147/2/6 149/2/6
f 149/2/6 147/2/6 150/2/6
f 141/2/6 149/2/6 151/2/6
f 151/2/6 149/2/6 152/2/6
f 141/2/6 151/2/6 153/2/6
f 153/2/6 151/2/6 154/2/6
f 141/2/6 153/2/6 155/2/6
f 155/2/6 153/2/6 156/2/6
f 141/2/6 155/2/6 157/2/6
f 157/2/6 155/2/6 158/2/6
f 141/2/6 157/2/6 159/2/6
f 159/2/6 157/2/6 160/2/6
f 141/2/6 159/2/6 161/2/6
f 161/2/6 159/2/6 162/2/6
f 141/2/6 161/2/6 163/2/6
f 163/2/6 161/2/6 164/2/6
