# MagicaVoxel @ Ephtracy

# group
o C6

# material
mtllib --2-C6.mtl
usemtl palette

# normals
vn 0 0 1
vn 0 0 -1
vn 1 0 0
vn -1 0 0
vn 0 -1 0
vn 0 1 0

# texcoords
vt 0.958984 0.5
vt 0.974609 0.5
vt 0.978516 0.5
vt 0.982422 0.5

# verts
v 10 0 0
v 5 0 0
v 10 0.1 0
v 9.4 0.1 0
v 9.3 0.1 0
v 5.7 0.1 0
v 5.6 0.1 0
v 5 0.1 0
v 10 0.2 0
v 9.4 0.2 0
v 9.3 0.2 0
v 5.7 0.2 0
v 5.6 0.2 0
v 5 0.2 0
v 10 0.1 -4.3
v 9.3 0.1 -4.3
v 10 0.2 -4.3
v 9.3 0.2 -4.3
v 10 0.1 -0.7
v 9.3 0.1 -0.7
v 10 0.2 -0.7
v 9.3 0.2 -0.7
v 10 0 -5
v 7.6 0 -5
v 7.4 0 -5
v 5 0 -5
v 10 0.1 -5
v 9.4 0.1 -5
v 9.3 0.1 -5
v 7.6 0.1 -5
v 7.4 0.1 -5
v 5.7 0.1 -5
v 5.6 0.1 -5
v 5 0.1 -5
v 10 0.2 -5
v 9.4 0.2 -5
v 9.3 0.2 -5
v 5.7 0.2 -5
v 5.6 0.2 -5
v 5 0.2 -5
v 10 0 0
v 10 0.1 0
v 10 0.2 0
v 10 0.1 -0.6
v 10 0.2 -0.6
v 10 0.1 -0.7
v 10 0.2 -0.7
v 10 0.1 -4.3
v 10 0.2 -4.3
v 10 0.1 -4.4
v 10 0.2 -4.4
v 10 0 -5
v 10 0.1 -5
v 10 0.2 -5
v 5.7 0.1 0
v 5.7 0.2 0
v 5.7 0.1 -5
v 5.7 0.2 -5
v 9.3 0.1 0
v 9.3 0.2 0
v 9.3 0.1 -0.7
v 9.3 0.2 -0.7
v 9.3 0.1 -4.3
v 9.3 0.2 -4.3
v 9.3 0.1 -5
v 9.3 0.2 -5
v 5 0 0
v 5 0.1 0
v 5 0.2 0
v 5 0 -5
v 5 0.1 -5
v 5 0.2 -5
v 10 0 0
v 10 0 -5
v 9.5 0 -2.4
v 9.5 0 -2.6
v 9 0 -2.4
v 9 0 -2.6
v 8.5 0 -2.4
v 8.5 0 -2.6
v 8 0 -2.4
v 8 0 -2.6
v 7.6 0 -0.5
v 7.6 0 -1
v 7.6 0 -1.5
v 7.6 0 -2
v 7.6 0 -2.4
v 7.6 0 -3
v 7.6 0 -3.5
v 7.6 0 -4
v 7.6 0 -4.5
v 7.6 0 -5
v 7.4 0 -0.5
v 7.4 0 -1
v 7.4 0 -1.5
v 7.4 0 -2
v 7.4 0 -2.4
v 7.4 0 -3
v 7.4 0 -3.5
v 7.4 0 -4
v 7.4 0 -4.5
v 7.4 0 -5
v 5 0 0
v 5 0 -5
v 10 0.1 -0.7
v 10 0.1 -4.3
v 9.5 0.1 -2.4
v 9.5 0.1 -2.6
v 9.3 0.1 0
v 9.3 0.1 -0.7
v 9.3 0.1 -4.3
v 9.3 0.1 -5
v 9 0.1 -2.4
v 9 0.1 -2.6
v 8.5 0.1 -2.4
v 8.5 0.1 -2.6
v 8 0.1 -2.4
v 8 0.1 -2.6
v 7.6 0.1 -0.5
v 7.6 0.1 -1
v 7.6 0.1 -1.5
v 7.6 0.1 -2
v 7.6 0.1 -2.4
v 7.6 0.1 -3
v 7.6 0.1 -3.5
v 7.6 0.1 -4
v 7.6 0.1 -4.5
v 7.6 0.1 -5
v 7.4 0.1 -0.5
v 7.4 0.1 -1
v 7.4 0.1 -1.5
v 7.4 0.1 -2
v 7.4 0.1 -2.4
v 7.4 0.1 -3
v 7.4 0.1 -3.5
v 7.4 0.1 -4
v 7.4 0.1 -4.5
v 7.4 0.1 -5
v 5.7 0.1 0
v 5.7 0.1 -5
v 10 0.2 0
v 10 0.2 -0.6
v 10 0.2 -0.7
v 10 0.2 -4.3
v 10 0.2 -4.4
v 10 0.2 -5
v 9.4 0.2 0
v 9.4 0.2 -0.6
v 9.4 0.2 -4.4
v 9.4 0.2 -5
v 9.3 0.2 0
v 9.3 0.2 -0.7
v 9.3 0.2 -4.3
v 9.3 0.2 -5
v 5.7 0.2 0
v 5.7 0.2 -5
v 5.6 0.2 0
v 5.6 0.2 -5
v 5 0.2 0
v 5 0.2 -5

# faces
f 3/3/1 2/3/1 1/3/1
f 4/3/1 2/3/1 3/3/1
f 5/3/1 2/3/1 4/3/1
f 6/3/1 2/3/1 5/3/1
f 7/3/1 2/3/1 6/3/1
f 8/3/1 2/3/1 7/3/1
f 9/4/1 4/4/1 3/4/1
f 10/2/1 5/2/1 4/2/1
f 10/4/1 4/4/1 9/4/1
f 11/2/1 5/2/1 10/2/1
f 12/2/1 7/2/1 6/2/1
f 13/4/1 8/4/1 7/4/1
f 13/2/1 7/2/1 12/2/1
f 14/4/1 8/4/1 13/4/1
f 17/2/1 16/2/1 15/2/1
f 18/2/1 16/2/1 17/2/1
f 19/2/2 20/2/2 21/2/2
f 21/2/2 20/2/2 22/2/2
f 23/3/2 24/3/2 27/3/2
f 27/3/2 24/3/2 28/3/2
f 28/3/2 24/3/2 29/3/2
f 24/1/2 25/1/2 30/1/2
f 29/3/2 24/3/2 30/3/2
f 25/3/2 26/3/2 31/3/2
f 30/1/2 25/1/2 31/1/2
f 31/3/2 26/3/2 32/3/2
f 32/3/2 26/3/2 33/3/2
f 33/3/2 26/3/2 34/3/2
f 27/4/2 28/4/2 35/4/2
f 28/2/2 29/2/2 36/2/2
f 35/4/2 28/4/2 36/4/2
f 36/2/2 29/2/2 37/2/2
f 32/2/2 33/2/2 38/2/2
f 33/4/2 34/4/2 39/4/2
f 38/2/2 33/2/2 39/2/2
f 39/4/2 34/4/2 40/4/2
f 44/3/3 42/3/3 41/3/3
f 44/4/3 43/4/3 42/4/3
f 45/4/3 43/4/3 44/4/3
f 46/3/3 44/3/3 41/3/3
f 46/2/3 45/2/3 44/2/3
f 47/2/3 45/2/3 46/2/3
f 48/3/3 46/3/3 41/3/3
f 50/3/3 48/3/3 41/3/3
f 50/2/3 49/2/3 48/2/3
f 51/2/3 49/2/3 50/2/3
f 52/3/3 50/3/3 41/3/3
f 53/4/3 51/4/3 50/4/3
f 53/3/3 50/3/3 52/3/3
f 54/4/3 51/4/3 53/4/3
f 57/2/3 56/2/3 55/2/3
f 58/2/3 56/2/3 57/2/3
f 59/2/4 60/2/4 61/2/4
f 61/2/4 60/2/4 62/2/4
f 63/2/4 64/2/4 65/2/4
f 65/2/4 64/2/4 66/2/4
f 67/3/4 68/3/4 70/3/4
f 68/4/4 69/4/4 71/4/4
f 70/3/4 68/3/4 71/3/4
f 71/4/4 69/4/4 72/4/4
f 75/3/5 74/3/5 73/3/5
f 76/3/5 74/3/5 75/3/5
f 77/3/5 75/3/5 73/3/5
f 77/1/5 76/1/5 75/1/5
f 78/3/5 74/3/5 76/3/5
f 78/1/5 76/1/5 77/1/5
f 79/3/5 77/3/5 73/3/5
f 79/3/5 78/3/5 77/3/5
f 80/3/5 74/3/5 78/3/5
f 80/3/5 78/3/5 79/3/5
f 81/3/5 79/3/5 73/3/5
f 81/1/5 80/1/5 79/1/5
f 82/3/5 74/3/5 80/3/5
f 82/1/5 80/1/5 81/1/5
f 83/3/5 81/3/5 73/3/5
f 83/3/5 82/3/5 81/3/5
f 84/3/5 82/3/5 83/3/5
f 85/3/5 82/3/5 84/3/5
f 86/3/5 82/3/5 85/3/5
f 87/3/5 82/3/5 86/3/5
f 88/3/5 74/3/5 82/3/5
f 88/3/5 82/3/5 87/3/5
f 89/3/5 74/3/5 88/3/5
f 90/3/5 74/3/5 89/3/5
f 91/3/5 74/3/5 90/3/5
f 92/3/5 74/3/5 91/3/5
f 93/3/5 83/3/5 73/3/5
f 93/1/5 84/1/5 83/1/5
f 94/3/5 85/3/5 84/3/5
f 94/1/5 84/1/5 93/1/5
f 95/1/5 86/1/5 85/1/5
f 95/3/5 85/3/5 94/3/5
f 96/3/5 87/3/5 86/3/5
f 96/1/5 86/1/5 95/1/5
f 97/1/5 88/1/5 87/1/5
f 97/3/5 87/3/5 96/3/5
f 98/3/5 89/3/5 88/3/5
f 98/1/5 88/1/5 97/1/5
f 99/1/5 90/1/5 89/1/5
f 99/3/5 89/3/5 98/3/5
f 100/3/5 91/3/5 90/3/5
f 100/1/5 90/1/5 99/1/5
f 101/1/5 92/1/5 91/1/5
f 101/3/5 91/3/5 100/3/5
f 102/1/5 92/1/5 101/1/5
f 103/3/5 95/3/5 94/3/5
f 103/3/5 100/3/5 99/3/5
f 103/3/5 102/3/5 101/3/5
f 103/3/5 101/3/5 100/3/5
f 103/3/5 99/3/5 98/3/5
f 103/3/5 98/3/5 97/3/5
f 103/3/5 97/3/5 96/3/5
f 103/3/5 96/3/5 95/3/5
f 103/3/5 94/3/5 93/3/5
f 103/3/5 93/3/5 73/3/5
f 104/3/5 102/3/5 103/3/5
f 105/3/6 106/3/6 107/3/6
f 107/3/6 106/3/6 108/3/6
f 105/3/6 107/3/6 110/3/6
f 108/3/6 106/3/6 111/3/6
f 109/3/6 110/3/6 113/3/6
f 107/1/6 108/1/6 113/1/6
f 110/3/6 107/3/6 113/3/6
f 111/3/6 112/3/6 114/3/6
f 113/1/6 108/1/6 114/1/6
f 108/3/6 111/3/6 114/3/6
f 109/3/6 113/3/6 115/3/6
f 113/3/6 114/3/6 115/3/6
f 114/3/6 112/3/6 116/3/6
f 115/3/6 114/3/6 116/3/6
f 109/3/6 115/3/6 117/3/6
f 115/1/6 116/1/6 117/1/6
f 116/3/6 112/3/6 118/3/6
f 117/1/6 116/1/6 118/1/6
f 109/3/6 117/3/6 119/3/6
f 117/3/6 118/3/6 119/3/6
f 119/3/6 118/3/6 120/3/6
f 120/3/6 118/3/6 121/3/6
f 121/3/6 118/3/6 122/3/6
f 122/3/6 118/3/6 123/3/6
f 118/3/6 112/3/6 124/3/6
f 123/3/6 118/3/6 124/3/6
f 124/3/6 112/3/6 125/3/6
f 125/3/6 112/3/6 126/3/6
f 126/3/6 112/3/6 127/3/6
f 127/3/6 112/3/6 128/3/6
f 109/3/6 119/3/6 129/3/6
f 119/1/6 120/1/6 129/1/6
f 120/3/6 121/3/6 130/3/6
f 129/1/6 120/1/6 130/1/6
f 121/1/6 122/1/6 131/1/6
f 130/3/6 121/3/6 131/3/6
f 122/3/6 123/3/6 132/3/6
f 131/1/6 122/1/6 132/1/6
f 123/1/6 124/1/6 133/1/6
f 132/3/6 123/3/6 133/3/6
f 124/3/6 125/3/6 134/3/6
f 133/1/6 124/1/6 134/1/6
f 125/1/6 126/1/6 135/1/6
f 134/3/6 125/3/6 135/3/6
f 126/3/6 127/3/6 136/3/6
f 135/1/6 126/1/6 136/1/6
f 127/1/6 128/1/6 137/1/6
f 136/3/6 127/3/6 137/3/6
f 137/1/6 128/1/6 138/1/6
f 130/3/6 131/3/6 139/3/6
f 135/3/6 136/3/6 139/3/6
f 137/3/6 138/3/6 139/3/6
f 136/3/6 137/3/6 139/3/6
f 134/3/6 135/3/6 139/3/6
f 133/3/6 134/3/6 139/3/6
f 132/3/6 133/3/6 139/3/6
f 131/3/6 132/3/6 139/3/6
f 129/3/6 130/3/6 139/3/6
f 109/3/6 129/3/6 139/3/6
f 139/3/6 138/3/6 140/3/6
f 141/4/6 142/4/6 147/4/6
f 142/2/6 143/2/6 148/2/6
f 147/4/6 142/4/6 148/4/6
f 145/4/6 146/4/6 149/4/6
f 144/2/6 145/2/6 149/2/6
f 149/4/6 146/4/6 150/4/6
f 147/2/6 148/2/6 151/2/6
f 148/2/6 143/2/6 152/2/6
f 151/2/6 148/2/6 152/2/6
f 144/2/6 149/2/6 153/2/6
f 149/2/6 150/2/6 153/2/6
f 153/2/6 150/2/6 154/2/6
f 155/2/6 156/2/6 157/2/6
f 157/2/6 156/2/6 158/2/6
f 157/4/6 158/4/6 159/4/6
f 159/4/6 158/4/6 160/4/6
